<svg xmlns="http://www.w3.org/2000/svg" viewBox="0 0 400 140"><defs><style>.cls-1{fill:#c2c2c2;}.cls-2{fill:#fff;}.cls-3{fill:#2f2f2f;}.cls-4{fill:none;stroke:#c2c2c2;stroke-linecap:round;stroke-miterlimit:10;}.cls-5{fill:#939393;}.cls-6{fill:#d83b01;}</style></defs><title>o365roadmapengage</title><g id="Road"><path class="cls-1" d="M0,81.41v1l0-1Zm13.83.72V83.2l11.08.68,0-1.12Zm24.91,1.4v1.2l11.07.67,0-1.24Zm24.92,1.4,0,1.26v.06l11.06.68,0-1.37Zm24.91,1.4,0,1.38v.06l11,.68,0-1.5Zm24.92,1.4,0,1.5v.07l11.05.67,0-1.62Zm37.37,2.1,0,1.68v.07l11,.68,0-1.81Zm24.91,1.4,0,1.81v.07l11,.67,0-1.93Zm24.92,1.4-.05,1.93v.07l11,.68V93.25Zm37.37,2.1L238,96.84v.08l11,.67V95.35ZM263,96.13l-.06,2.23v.08l11,.68V96.75Zm24.92,1.4-.08,2.35V100l11,.67V98.15Zm24.91,1.4-.08,2.47v.09l11,.67V99.54Zm24.91,1.4-.08,2.59V103l11,.68v-2.75Zm24.92,1.4-.09,2.71v.1l11,.67v-2.87Zm24.91,1.4-.09,2.84v.09l11,.67v-3Zm-12.45-.7-.1,2.78v.09l11,.67V103ZM350.17,101l-.09,2.65v.1l11,.67v-2.81Zm-24.91-1.4-.08,2.53v.09l11,.67v-2.68Zm-24.92-1.4-.07,2.41v.09l11,.67V98.84Zm-24.91-1.4-.07,2.29v.08l11,.68V97.45Zm-24.92-1.4-.06,2.17v.08l11,.67v-2.3ZM225.6,94l-.06,2v.08l11,.67V94.65Zm-12.46-.7,0,2v.07l11,.68V94Zm-24.91-1.4,0,1.87v.07l11,.67v-2Zm-24.92-1.4,0,1.75v.07l11,.67,0-1.87Zm-24.91-1.4,0,1.62v.07l11,.68,0-1.75Zm-12.46-.7,0,1.56v.07l11.05.68,0-1.69ZM101,87l0,1.44v.07l11.06.67,0-1.56Zm-24.92-1.4V87l11.06.68,0-1.44ZM51.2,84.23v1.26l11.06.68,0-1.31Zm-24.91-1.4V84l11.07.68,0-1.18ZM1.37,81.43v1l11.08.68,0-1.06Z"/><path class="cls-1" d="M1.43,102.74l-.07,1,11,1.41.1-1ZM26.2,105.8l-.08,1.08v.05l11,1.41.11-1.17ZM51,108.86l-.09,1.2v.06l11,1.41.11-1.3Zm24.76,3.06-.1,1.32v.05l11,1.42.13-1.43ZM100.49,115l-.12,1.43v.07l11,1.41.13-1.55ZM125.25,118l-.13,1.55v.07l11,1.42.14-1.68Zm12.39,1.53-.14,1.61v.07l11,1.42.13-1.75Zm24.76,3.06-.16,1.74v.07l11,1.41.14-1.87Zm24.77,3.06-.17,1.86v.07L198,129l.15-2Zm24.76,3.06-.18,2v.07l10.95,1.42.16-2.12Zm12.39,1.53-.2,2v.08l10.95,1.41.15-2.18Zm24.76,3.06-.21,2.16v.08L259.81,137l.16-2.3Zm24.77,3.06-.22,2.28v.08l9.55,1.24h1.4l.15-2.25Zm24.76,3.06-.05.54H303Zm-12.38-1.53L286,140h11l.05-.72Zm-24.77-3.06-.21,2.22v.08l10.94,1.42.17-2.37Zm-24.76-3.06-.2,2.1V134l10.95,1.41.16-2.24Zm-37.14-4.59-.18,1.92,0,.07,11,1.42.15-2.06Zm-24.77-3.06-.17,1.8V126l11,1.41.15-1.93ZM150,121.1l-.15,1.67v.07l11,1.42.14-1.81Zm-37.14-4.59-.13,1.49v.07l11,1.41.13-1.61Zm-24.77-3.06L88,114.82v.06l11,1.42.13-1.49Zm-24.76-3.06-.11,1.25v.06l11,1.42.12-1.36Zm-24.77-3.06-.09,1.13v.06l11,1.41.11-1.23Zm-24.77-3.06-.06,1,0,0,11,1.41.11-1.11Z"/><path class="cls-2" d="M.06,82.36H0l1.37.08h0Z"/><polygon points="400 108.83 400 140 316.43 140 0 101.56 0 83.27 400 108.83"/><path class="cls-3" d="M33.78,95.58l-3,9.72L0,101.57l2.45-8.9L0,83.27l30.89,2Z"/><path class="cls-3" d="M73.5,99.26,69.67,110l-37.58-4.57,3.06-9.76-2.9-10.36,37.81,2.42Z"/><path class="cls-3" d="M123.28,103.88l-5,12.05-47-5.71,3.88-10.8L71.68,87.86l47.36,3Z"/><path class="cls-3" d="M187.52,109.85l-6.69,13.68-60.49-7.35,5.06-12.1-4.3-13,61,3.91Z"/><path class="cls-3" d="M273.65,117.84l-9.37,15.83-80.75-9.81,6.81-13.75-5.47-15,81.66,5.23Z"/><path class="cls-3" d="M400,108.83l-129.78-8.24,7.25,17.61-9.55,15.91,48.5,5.89H400"/></g><g id="Pins"><g id="pedestrian"><path class="cls-1" d="M378.22,78.74l-4.18-1m10.87,6.89-4.47-1.89-2.35-4-4.18-1h0c-1.29.45-2.59.89-3.87,1.32l-3.89,1.31.42,6.49,2.16-.13-.28-4.34,4.26-1.36L371,87.74l1.22,2.1-3.7,10,2.23,1,3.78-9L376.87,95l1.5,6.43,2.17-.14L379,93.75l-3.6-5.21,1.75-6.63,1.29,3.17L384,86.9Z"/><circle class="cls-1" cx="376.99" cy="74.3" r="2.53"/></g><rect class="cls-1" x="360.67" y="95.85" width="5.06" height="1.45" transform="translate(-5.46 23.54) rotate(-3.68)"/><rect class="cls-1" x="361.92" y="92.85" width="5.79" height="1.45" transform="translate(-5.26 23.64) rotate(-3.68)"/><polyline class="cls-4" points="336.39 82.73 330.85 73.07 103.88 73.07"/><path class="cls-5" d="M331.41,104.6a12.51,12.51,0,0,1-2.67-4,12.13,12.13,0,0,1-.95-4.72,12.51,12.51,0,0,1,.44-3.27,12.84,12.84,0,0,1,1.25-2.95,11.89,11.89,0,0,1,1.92-2.5,12.85,12.85,0,0,1,2.51-1.93A11.61,11.61,0,0,1,336.85,84a12.3,12.3,0,0,1,3.28-.44,12.66,12.66,0,0,1,3.28.43,12,12,0,0,1,3,1.26,11.68,11.68,0,0,1,2.49,1.92,12,12,0,0,1,1.93,2.5A12.61,12.61,0,0,1,352,92.59a12.23,12.23,0,0,1,.44,3.28,12.2,12.2,0,0,1-3.62,8.73l-8.72,8.72Zm8.72-15.26a6.16,6.16,0,0,0-2.47.5,6.32,6.32,0,0,0-2,1.36,6.55,6.55,0,0,0-1.37,2,6.19,6.19,0,0,0,0,4.92,6.66,6.66,0,0,0,1.37,2,6.32,6.32,0,0,0,2,1.36,6.16,6.16,0,0,0,2.47.5,6.08,6.08,0,0,0,2.46-.5,6.35,6.35,0,0,0,2-1.36,6.66,6.66,0,0,0,1.37-2,6.35,6.35,0,0,0,.49-2.46,6.23,6.23,0,0,0-.5-2.47,6.53,6.53,0,0,0-1.36-2,6.35,6.35,0,0,0-2-1.36A6.08,6.08,0,0,0,340.13,89.34Z"/><path class="cls-2" d="M340.13,84.38a11.47,11.47,0,0,1,3.06.41A10.61,10.61,0,0,1,345.93,86a11.05,11.05,0,0,1,2.34,1.8,11.54,11.54,0,0,1,1.8,2.32,12.38,12.38,0,0,1,1.15,2.75,11.45,11.45,0,0,1,.41,3.05,11.38,11.38,0,0,1-3.37,8.13l-8.13,8.13-2.05-2.06-2.78-2.78L332,104a11.36,11.36,0,0,1-2.49-3.73,11.2,11.2,0,0,1-.89-4.4,11.87,11.87,0,0,1,.41-3.05,11.56,11.56,0,0,1,1.17-2.75A11.15,11.15,0,0,1,332,87.75a11.52,11.52,0,0,1,2.33-1.8,10.83,10.83,0,0,1,2.75-1.16,11.4,11.4,0,0,1,3.05-.41m0,18.5a6.94,6.94,0,0,0,2.8-.57,7.11,7.11,0,0,0,2.28-1.54,7.37,7.37,0,0,0,1.55-2.28,7.28,7.28,0,0,0,0-5.6,7.36,7.36,0,0,0-3.83-3.83,6.93,6.93,0,0,0-2.8-.56,7,7,0,0,0-2.81.56,7.5,7.5,0,0,0-2.27,1.55,7.34,7.34,0,0,0-1.54,2.28,7,7,0,0,0,0,5.6,7.26,7.26,0,0,0,3.81,3.82,7,7,0,0,0,2.81.57m0-20.18a13.55,13.55,0,0,0-3.5.46,13.21,13.21,0,0,0-5.81,3.39,12.65,12.65,0,0,0-2.07,2.68,13.51,13.51,0,0,0-1.32,3.13,13.14,13.14,0,0,0-.48,3.51,12.91,12.91,0,0,0,1,5,13.13,13.13,0,0,0,2.84,4.27l3.3,3.29,2.78,2.78,2.05,2.06,1.19,1.19,1.19-1.19,8.13-8.13a13.14,13.14,0,0,0,3.87-9.32,12.89,12.89,0,0,0-.48-3.49,13.83,13.83,0,0,0-1.31-3.15,13.53,13.53,0,0,0-2.07-2.67,13.11,13.11,0,0,0-5.82-3.39,13.21,13.21,0,0,0-3.51-.47Zm0,18.5a5.13,5.13,0,0,1-2.13-.43,5.47,5.47,0,0,1-1.76-1.19,5.69,5.69,0,0,1-1.19-1.76,5.27,5.27,0,0,1-.43-2.13,5.19,5.19,0,0,1,.43-2.12,5.62,5.62,0,0,1,1.19-1.77A5.47,5.47,0,0,1,338,90.61a5.13,5.13,0,0,1,2.13-.43,5.37,5.37,0,0,1,2.13.43A5.69,5.69,0,0,1,344,91.8a5.37,5.37,0,0,1,1.19,1.76,5.49,5.49,0,0,1,0,4.26A5.37,5.37,0,0,1,344,99.58a5.69,5.69,0,0,1-1.76,1.19,5.37,5.37,0,0,1-2.13.43Z"/><path class="cls-6" d="M343.77,92.05a5.43,5.43,0,0,0-1.64-1.1,5.2,5.2,0,0,0-4,0,5.11,5.11,0,0,0-2.74,2.74,5.2,5.2,0,0,0,0,4,5.43,5.43,0,0,0,1.1,1.64,5.31,5.31,0,0,0,1.64,1.1,5.2,5.2,0,0,0,4,0,5.11,5.11,0,0,0,2.74-2.74,5.2,5.2,0,0,0,0-4,5.31,5.31,0,0,0-1.1-1.64"/><path class="cls-6" d="M316.38,54.4V50.7a1.69,1.69,0,0,0-.2-.76,2.43,2.43,0,0,0-.5-.7,2.67,2.67,0,0,0-.7-.51,1.67,1.67,0,0,0-.76-.19h-6.49a1.71,1.71,0,0,0-.77.19,2.65,2.65,0,0,0-.69.5,2.44,2.44,0,0,0-.5.69,1.74,1.74,0,0,0-.2.78v3.75a56.31,56.31,0,0,1,5.66-.29C313,54.16,314.68,54.24,316.38,54.4Z"/><circle class="cls-6" cx="310.98" cy="43.79" r="3.09"/><path class="cls-3" d="M302.49,53.78a1.73,1.73,0,0,0-.2-.76,3.09,3.09,0,0,0-.5-.7,2.94,2.94,0,0,0-.71-.5,1.65,1.65,0,0,0-.75-.2h-6.49a1.74,1.74,0,0,0-.78.2,3,3,0,0,0-.69.49,2.88,2.88,0,0,0-.5.7,1.82,1.82,0,0,0-.19.77v5.07s0,0,0,.07c2.48-2,6.4-3.31,10.8-4.05Z"/><circle class="cls-3" cx="297.08" cy="46.88" r="3.09"/><path class="cls-3" d="M330.27,53.78a1.71,1.71,0,0,0-.19-.76,2.85,2.85,0,0,0-.51-.7,2.88,2.88,0,0,0-.7-.5,1.69,1.69,0,0,0-.76-.2h-6.48a1.74,1.74,0,0,0-.78.2,2.62,2.62,0,0,0-.69.49,2.88,2.88,0,0,0-.5.7,1.68,1.68,0,0,0-.19.77v1c4.31.68,8.21,1.92,10.8,3.76Z"/><circle class="cls-3" cx="324.87" cy="46.88" r="3.09"/><path class="cls-1" d="M328.16,60.8a23.84,23.84,0,0,0-8.69-2.9,49.41,49.41,0,0,0-5.16-.56c-1-.06-2-.09-3.08-.09s-2.36,0-3.5.11a47.6,47.6,0,0,0-5.24.63c-3.79.68-6.84,1.79-8.65,3.14A3.77,3.77,0,0,0,292,64c0,3.71,8.6,6.72,19.2,6.72s19.21-3,19.21-6.72C330.44,62.83,329.61,61.75,328.16,60.8Z"/></g><g id="Text"><path class="cls-3" d="M118.29,69.07h-6.67V56.47H118v1.34h-4.91V62h4.55v1.33h-4.55v4.41h5.2Z"/><path class="cls-3" d="M128,69.07h-1.44V63.94c0-1.9-.7-2.86-2.1-2.86a2.26,2.26,0,0,0-1.77.81,3,3,0,0,0-.72,2v5.13h-1.44v-9H122v1.5h0a3.24,3.24,0,0,1,3-1.72,2.74,2.74,0,0,1,2.26,1,4.26,4.26,0,0,1,.78,2.74Z"/><path class="cls-3" d="M138.33,68.35c0,3.3-1.59,5-4.75,5a6.6,6.6,0,0,1-2.92-.62V71.24a6,6,0,0,0,2.89.84q3.33,0,3.33-3.53v-1h0a3.37,3.37,0,0,1-3.1,1.73,3.45,3.45,0,0,1-3.26-2.1,6.36,6.36,0,0,1,.66-6,3.69,3.69,0,0,1,3-1.36,3,3,0,0,1,2.7,1.46h0V60.07h1.45ZM136.88,65V63.68a2.57,2.57,0,0,0-.74-1.85,2.45,2.45,0,0,0-1.79-.75,2.5,2.5,0,0,0-2.09,1,4.38,4.38,0,0,0-.76,2.72,3.73,3.73,0,0,0,.73,2.38,2.33,2.33,0,0,0,1.92.9,2.52,2.52,0,0,0,2-.85A3.21,3.21,0,0,0,136.88,65Z"/><path class="cls-3" d="M147.62,69.07h-1.45v-1.4h0a3,3,0,0,1-2.77,1.62,2.94,2.94,0,0,1-2.08-.71,2.44,2.44,0,0,1-.79-1.9c0-1.67,1-2.65,3-2.93l2.69-.38c0-1.52-.61-2.29-1.85-2.29a4.5,4.5,0,0,0-2.94,1.1V60.71a4.61,4.61,0,0,1,1.36-.58,6.39,6.39,0,0,1,1.7-.28c2.12,0,3.18,1.13,3.18,3.37Zm-1.45-4.55-2.18.31a3.16,3.16,0,0,0-1.56.53,1.49,1.49,0,0,0-.45,1.21,1.34,1.34,0,0,0,.48,1.08,1.84,1.84,0,0,0,1.24.41,2.33,2.33,0,0,0,1.78-.75,2.72,2.72,0,0,0,.69-1.89Z"/><path class="cls-3" d="M157.94,68.35q0,5-4.74,5a6.57,6.57,0,0,1-2.92-.62V71.24a6,6,0,0,0,2.89.84q3.33,0,3.33-3.53v-1h0a3.37,3.37,0,0,1-3.1,1.73,3.45,3.45,0,0,1-3.26-2.1,6.36,6.36,0,0,1,.66-6,3.66,3.66,0,0,1,3-1.36,3,3,0,0,1,2.7,1.46h0V60.07h1.44ZM156.5,65V63.68a2.54,2.54,0,0,0-.75-1.85,2.41,2.41,0,0,0-1.78-.75,2.51,2.51,0,0,0-2.1,1,4.38,4.38,0,0,0-.75,2.72,3.73,3.73,0,0,0,.72,2.38,2.34,2.34,0,0,0,1.93.9,2.52,2.52,0,0,0,2-.85A3.21,3.21,0,0,0,156.5,65Z"/><path class="cls-3" d="M168,64.93h-6.35a3.36,3.36,0,0,0,.8,2.33,2.85,2.85,0,0,0,2.13.8,4.46,4.46,0,0,0,2.79-1v1.34a5.14,5.14,0,0,1-3.13.87,3.76,3.76,0,0,1-3-1.24,5.09,5.09,0,0,1-1.09-3.44,5.5,5.5,0,0,1,.55-2.44,4,4,0,0,1,1.49-1.71,3.85,3.85,0,0,1,2.1-.61A3.4,3.4,0,0,1,167,61a4.7,4.7,0,0,1,1,3.19Zm-1.47-1.22a3,3,0,0,0-.6-1.94,2,2,0,0,0-1.65-.69,2.34,2.34,0,0,0-1.72.72,3.41,3.41,0,0,0-.89,1.91Z"/><path class="cls-3" d="M185.66,60.07l-2.7,9h-1.49l-1.85-6.44a3.48,3.48,0,0,1-.14-.83h0a4.35,4.35,0,0,1-.18.81l-2,6.46H175.8l-2.71-9h1.51l1.85,6.77a5.5,5.5,0,0,1,.13.81h.07a3.5,3.5,0,0,1,.16-.83l2.07-6.75h1.32l1.87,6.79a4.35,4.35,0,0,1,.12.81h.07a3.13,3.13,0,0,1,.14-.81l1.84-6.79Z"/><path class="cls-3" d="M189,56.85a.88.88,0,0,1-.28.67.94.94,0,0,1-.67.27,1,1,0,0,1-.67-.26.9.9,0,0,1-.27-.68.93.93,0,0,1,.27-.66.9.9,0,0,1,.67-.27.93.93,0,0,1,.68.27A.9.9,0,0,1,189,56.85Zm-.25,12.22h-1.44v-9h1.44Z"/><path class="cls-3" d="M195.88,69a2.83,2.83,0,0,1-1.36.29c-1.57,0-2.35-.89-2.35-2.66V61.29h-1.55V60.07h1.55V57.88l1.44-.47v2.66h2.27v1.22h-2.27v5.09a2,2,0,0,0,.31,1.28,1.21,1.21,0,0,0,1,.38,1.52,1.52,0,0,0,.94-.29Z"/><path class="cls-3" d="M205.27,69.07h-1.44V63.89c0-1.87-.7-2.81-2.09-2.81a2.26,2.26,0,0,0-1.79.83,3,3,0,0,0-.71,2.07v5.09H197.8V55.75h1.44v5.82h0a3.25,3.25,0,0,1,2.95-1.72q3,0,3,3.68Z"/><path class="cls-3" d="M225.23,69.07h-1.48V60.61c0-.67.05-1.48.13-2.44h0a7.23,7.23,0,0,1-.38,1.22l-4.29,9.68h-.72l-4.31-9.61a7.59,7.59,0,0,1-.38-1.29h0c0,.5.07,1.32.07,2.46v8.44h-1.43V56.47h1.95l3.87,8.79a11.94,11.94,0,0,1,.57,1.51h.06c.3-.81.5-1.32.61-1.55l3.95-8.75h1.85Z"/><path class="cls-3" d="M230,56.85a.88.88,0,0,1-.28.67.94.94,0,0,1-.67.27,1,1,0,0,1-.67-.26.9.9,0,0,1-.27-.68.93.93,0,0,1,.27-.66.9.9,0,0,1,.67-.27.93.93,0,0,1,.68.27A.9.9,0,0,1,230,56.85Zm-.25,12.22h-1.44v-9h1.44Z"/><path class="cls-3" d="M238.77,68.66a4.7,4.7,0,0,1-2.47.63,4.4,4.4,0,0,1-2.21-.56,3.9,3.9,0,0,1-1.53-1.61,5.51,5.51,0,0,1,.74-5.91,4.42,4.42,0,0,1,3.4-1.36,4.58,4.58,0,0,1,2.08.46v1.48a3.66,3.66,0,0,0-2.14-.71,2.89,2.89,0,0,0-2.27,1,3.81,3.81,0,0,0-.88,2.58,3.58,3.58,0,0,0,.83,2.49,2.87,2.87,0,0,0,2.23.91,3.67,3.67,0,0,0,2.22-.77Z"/><path class="cls-3" d="M245.64,61.53a1.82,1.82,0,0,0-1.1-.29,1.78,1.78,0,0,0-1.55.9,4.16,4.16,0,0,0-.6,2.35v4.58H241v-9h1.44v1.86h0a3.16,3.16,0,0,1,.93-1.47,2.06,2.06,0,0,1,1.43-.54,2.42,2.42,0,0,1,.86.12Z"/><path class="cls-3" d="M255.15,64.54A4.86,4.86,0,0,1,253.93,68a4.24,4.24,0,0,1-3.26,1.3A4.17,4.17,0,0,1,247.48,68a4.69,4.69,0,0,1-1.19-3.34,5,5,0,0,1,1.22-3.53,4.44,4.44,0,0,1,3.37-1.3A4,4,0,0,1,254,61.11,4.93,4.93,0,0,1,255.15,64.54Zm-1.48,0a4,4,0,0,0-.75-2.6,2.65,2.65,0,0,0-2.15-.91,2.74,2.74,0,0,0-2.19.93,3.86,3.86,0,0,0-.81,2.62,3.65,3.65,0,0,0,.81,2.52,2.77,2.77,0,0,0,2.19.91,2.68,2.68,0,0,0,2.16-.89A4,4,0,0,0,253.67,64.59Z"/><path class="cls-3" d="M262.29,66.67a2.29,2.29,0,0,1-.9,1.89,3.65,3.65,0,0,1-2.39.73,4.46,4.46,0,0,1-2.23-.54V67.2a3.58,3.58,0,0,0,2.33.86c1.15,0,1.72-.42,1.72-1.25a1.07,1.07,0,0,0-.34-.83,6,6,0,0,0-1.52-.87,4.35,4.35,0,0,1-1.68-1.1,2.29,2.29,0,0,1-.5-1.55,2.33,2.33,0,0,1,.9-1.86,3.44,3.44,0,0,1,2.28-.75,4.17,4.17,0,0,1,1.92.43v1.45a3.34,3.34,0,0,0-2-.65,1.73,1.73,0,0,0-1.14.36,1.1,1.1,0,0,0-.44.9,1.22,1.22,0,0,0,.33.92A5.24,5.24,0,0,0,260,64a5,5,0,0,1,1.81,1.14A2.24,2.24,0,0,1,262.29,66.67Z"/><path class="cls-3" d="M272.58,64.54A4.86,4.86,0,0,1,271.36,68a4.24,4.24,0,0,1-3.26,1.3A4.15,4.15,0,0,1,264.91,68a4.69,4.69,0,0,1-1.19-3.34,5,5,0,0,1,1.22-3.53,4.42,4.42,0,0,1,3.37-1.3,4,4,0,0,1,3.13,1.26A4.88,4.88,0,0,1,272.58,64.54Zm-1.48,0a4,4,0,0,0-.75-2.6,2.65,2.65,0,0,0-2.15-.91A2.78,2.78,0,0,0,266,62a3.86,3.86,0,0,0-.8,2.62,3.65,3.65,0,0,0,.81,2.52,2.77,2.77,0,0,0,2.19.91,2.64,2.64,0,0,0,2.15-.89A3.93,3.93,0,0,0,271.1,64.59Z"/><path class="cls-3" d="M278.93,57a2,2,0,0,0-1-.23c-1,0-1.51.63-1.51,1.9v1.39h2.11v1.22h-2.11v7.78H275V61.29h-1.53V60.07H275V58.61a3.06,3.06,0,0,1,.81-2.21,2.73,2.73,0,0,1,2.06-.84,2.94,2.94,0,0,1,1,.15Z"/><path class="cls-3" d="M284.62,69a2.81,2.81,0,0,1-1.35.29c-1.57,0-2.36-.89-2.36-2.66V61.29h-1.55V60.07h1.55V57.88l1.44-.47v2.66h2.27v1.22h-2.27v5.09a2,2,0,0,0,.31,1.28,1.23,1.23,0,0,0,1,.38,1.49,1.49,0,0,0,.93-.29Z"/></g></svg>