<svg xmlns="http://www.w3.org/2000/svg" viewBox="0 0 400 140"><defs><style>.cls-1{fill:#c2c2c2;}.cls-2{fill:#fff;}.cls-3,.cls-7{fill:#2f2f2f;}.cls-4{fill:none;stroke:#c2c2c2;stroke-linecap:round;stroke-miterlimit:10;}.cls-5{fill:#939393;}.cls-6{fill:#d83b01;}.cls-7{font-size:18px;font-family:SegoePro, Segoe Pro;}.cls-8{letter-spacing:-0.01em;}.cls-9{letter-spacing:-0.02em;}.cls-10{letter-spacing:0.02em;}</style></defs><title>o365roadmapengage</title><g id="Road"><path class="cls-1" d="M0,81.41v1l0-1Zm13.83.72V83.2l11.08.68,0-1.12Zm24.91,1.4v1.2l11.07.67,0-1.24Zm24.92,1.4,0,1.26v.06l11.06.68,0-1.37Zm24.91,1.4,0,1.38v.06l11,.68,0-1.5Zm24.92,1.4,0,1.5v.07l11.05.67,0-1.62Zm37.37,2.1,0,1.68v.07l11,.68,0-1.81Zm24.91,1.4,0,1.81v.07l11,.67,0-1.93Zm24.92,1.4-.05,1.93v.07l11,.68V93.25Zm37.37,2.1L238,96.84v.08l11,.67V95.35ZM263,96.13l-.06,2.23v.08l11,.68V96.75Zm24.92,1.4-.08,2.35V100l11,.67V98.15Zm24.91,1.4-.08,2.47v.09l11,.67V99.54Zm24.91,1.4-.08,2.59V103l11,.68v-2.75Zm24.92,1.4-.09,2.71v.1l11,.67v-2.87Zm24.91,1.4-.09,2.84v.09l11,.67v-3Zm-12.45-.7-.1,2.78v.09l11,.67V103ZM350.17,101l-.09,2.65v.1l11,.67v-2.81Zm-24.91-1.4-.08,2.53v.09l11,.67v-2.68Zm-24.92-1.4-.07,2.41v.09l11,.67V98.84Zm-24.91-1.4-.07,2.29v.08l11,.68V97.45Zm-24.92-1.4-.06,2.17v.08l11,.67v-2.3ZM225.6,94l-.06,2v.08l11,.67V94.65Zm-12.46-.7,0,2v.07l11,.68V94Zm-24.91-1.4,0,1.87v.07l11,.67v-2Zm-24.92-1.4,0,1.75v.07l11,.67,0-1.87Zm-24.91-1.4,0,1.62v.07l11,.68,0-1.75Zm-12.46-.7,0,1.56v.07l11.05.68,0-1.69ZM101,87l0,1.44v.07l11.06.67,0-1.56Zm-24.92-1.4V87l11.06.68,0-1.44ZM51.2,84.23v1.26l11.06.68,0-1.31Zm-24.91-1.4V84l11.07.68,0-1.18ZM1.37,81.43v1l11.08.68,0-1.06Z"/><path class="cls-1" d="M1.43,102.74l-.07,1,11,1.41.1-1ZM26.2,105.8l-.08,1.08v.05l11,1.41.11-1.17ZM51,108.86l-.09,1.2v.06l11,1.41.11-1.3Zm24.76,3.06-.1,1.32v.05l11,1.42.13-1.43ZM100.49,115l-.12,1.43v.07l11,1.41.13-1.55ZM125.25,118l-.13,1.55v.07l11,1.42.14-1.68Zm12.39,1.53-.14,1.61v.07l11,1.42.13-1.75Zm24.76,3.06-.16,1.74v.07l11,1.41.14-1.87Zm24.77,3.06-.17,1.86v.07L198,129l.15-2Zm24.76,3.06-.18,2v.07l10.95,1.42.16-2.12Zm12.39,1.53-.2,2v.08l10.95,1.41.15-2.18Zm24.76,3.06-.21,2.16v.08L259.81,137l.16-2.3Zm24.77,3.06-.22,2.28v.08l9.55,1.24h1.4l.15-2.25Zm24.76,3.06-.05.54H303Zm-12.38-1.53L286,140h11l.05-.72Zm-24.77-3.06-.21,2.22v.08l10.94,1.42.17-2.37Zm-24.76-3.06-.2,2.1V134l10.95,1.41.16-2.24Zm-37.14-4.59-.18,1.92,0,.07,11,1.42.15-2.06Zm-24.77-3.06-.17,1.8V126l11,1.41.15-1.93ZM150,121.1l-.15,1.67v.07l11,1.42.14-1.81Zm-37.14-4.59-.13,1.49v.07l11,1.41.13-1.61Zm-24.77-3.06L88,114.82v.06l11,1.42.13-1.49Zm-24.76-3.06-.11,1.25v.06l11,1.42.12-1.36Zm-24.77-3.06-.09,1.13v.06l11,1.41.11-1.23Zm-24.77-3.06-.06,1,0,0,11,1.41.11-1.11Z"/><path class="cls-2" d="M.06,82.36H0l1.37.08h0Z"/><polygon points="400 108.83 400 140 316.43 140 0 101.56 0 83.27 400 108.83"/><path class="cls-3" d="M33.78,95.58l-3,9.72L0,101.57l2.45-8.9L0,83.27l30.89,2Z"/><path class="cls-3" d="M73.5,99.26,69.67,110l-37.58-4.57,3.06-9.76-2.9-10.36,37.81,2.42Z"/><path class="cls-3" d="M123.28,103.88l-5,12.05-47-5.71,3.88-10.8L71.68,87.86l47.36,3Z"/><path class="cls-3" d="M187.52,109.85l-6.69,13.68-60.49-7.35,5.06-12.1-4.3-13,61,3.91Z"/><path class="cls-3" d="M273.65,117.84l-9.37,15.83-80.75-9.81,6.81-13.75-5.47-15,81.66,5.23Z"/><path class="cls-3" d="M400,108.83l-129.78-8.24,7.25,17.61-9.55,15.91,48.5,5.89H400"/></g><g id="Layer_2" data-name="Layer 2"><g id="pedestrian"><path class="cls-1" d="M378.22,78.74l-4.18-1m10.87,6.89-4.47-1.89-2.35-4-4.18-1h0c-1.29.45-2.59.89-3.87,1.32l-3.89,1.31.42,6.49,2.16-.13-.28-4.34,4.26-1.36L371,87.74l1.22,2.1-3.7,10,2.23,1,3.78-9L376.87,95l1.5,6.43,2.17-.14L379,93.75l-3.6-5.21,1.75-6.63,1.29,3.17L384,86.9Z"/><circle class="cls-1" cx="376.99" cy="74.3" r="2.53"/></g><rect class="cls-1" x="360.67" y="95.85" width="5.06" height="1.45" transform="translate(-5.46 23.54) rotate(-3.68)"/><rect class="cls-1" x="361.92" y="92.85" width="5.79" height="1.45" transform="translate(-5.26 23.64) rotate(-3.68)"/><polyline class="cls-4" points="336.39 82.73 330.85 73.07 103.88 73.07"/><path class="cls-5" d="M331.41,104.6a12.51,12.51,0,0,1-2.67-4,12.13,12.13,0,0,1-.95-4.72,12.51,12.51,0,0,1,.44-3.27,12.84,12.84,0,0,1,1.25-2.95,11.89,11.89,0,0,1,1.92-2.5,12.85,12.85,0,0,1,2.51-1.93A11.61,11.61,0,0,1,336.85,84a12.3,12.3,0,0,1,3.28-.44,12.66,12.66,0,0,1,3.28.43,12,12,0,0,1,3,1.26,11.68,11.68,0,0,1,2.49,1.92,12,12,0,0,1,1.93,2.5A12.61,12.61,0,0,1,352,92.59a12.23,12.23,0,0,1,.44,3.28,12.2,12.2,0,0,1-3.62,8.73l-8.72,8.72Zm8.72-15.26a6.16,6.16,0,0,0-2.47.5,6.32,6.32,0,0,0-2,1.36,6.55,6.55,0,0,0-1.37,2,6.19,6.19,0,0,0,0,4.92,6.66,6.66,0,0,0,1.37,2,6.32,6.32,0,0,0,2,1.36,6.16,6.16,0,0,0,2.47.5,6.08,6.08,0,0,0,2.46-.5,6.35,6.35,0,0,0,2-1.36,6.66,6.66,0,0,0,1.37-2,6.35,6.35,0,0,0,.49-2.46,6.23,6.23,0,0,0-.5-2.47,6.53,6.53,0,0,0-1.36-2,6.35,6.35,0,0,0-2-1.36A6.08,6.08,0,0,0,340.13,89.34Z"/><path class="cls-2" d="M340.13,84.38a11.47,11.47,0,0,1,3.06.41A10.61,10.61,0,0,1,345.93,86a11.05,11.05,0,0,1,2.34,1.8,11.54,11.54,0,0,1,1.8,2.32,12.38,12.38,0,0,1,1.15,2.75,11.45,11.45,0,0,1,.41,3.05,11.38,11.38,0,0,1-3.37,8.13l-8.13,8.13-2.05-2.06-2.78-2.78L332,104a11.36,11.36,0,0,1-2.49-3.73,11.2,11.2,0,0,1-.89-4.4,11.87,11.87,0,0,1,.41-3.05,11.56,11.56,0,0,1,1.17-2.75A11.15,11.15,0,0,1,332,87.75a11.52,11.52,0,0,1,2.33-1.8,10.83,10.83,0,0,1,2.75-1.16,11.4,11.4,0,0,1,3.05-.41m0,18.5a6.94,6.94,0,0,0,2.8-.57,7.11,7.11,0,0,0,2.28-1.54,7.37,7.37,0,0,0,1.55-2.28,7.28,7.28,0,0,0,0-5.6,7.36,7.36,0,0,0-3.83-3.83,6.93,6.93,0,0,0-2.8-.56,7,7,0,0,0-2.81.56,7.5,7.5,0,0,0-2.27,1.55,7.34,7.34,0,0,0-1.54,2.28,7,7,0,0,0,0,5.6,7.26,7.26,0,0,0,3.81,3.82,7,7,0,0,0,2.81.57m0-20.18a13.55,13.55,0,0,0-3.5.46,13.21,13.21,0,0,0-5.81,3.39,12.65,12.65,0,0,0-2.07,2.68,13.51,13.51,0,0,0-1.32,3.13,13.14,13.14,0,0,0-.48,3.51,12.91,12.91,0,0,0,1,5,13.13,13.13,0,0,0,2.84,4.27l3.3,3.29,2.78,2.78,2.05,2.06,1.19,1.19,1.19-1.19,8.13-8.13a13.14,13.14,0,0,0,3.87-9.32,12.89,12.89,0,0,0-.48-3.49,13.83,13.83,0,0,0-1.31-3.15,13.53,13.53,0,0,0-2.07-2.67,13.11,13.11,0,0,0-5.82-3.39,13.21,13.21,0,0,0-3.51-.47Zm0,18.5a5.13,5.13,0,0,1-2.13-.43,5.47,5.47,0,0,1-1.76-1.19,5.69,5.69,0,0,1-1.19-1.76,5.27,5.27,0,0,1-.43-2.13,5.19,5.19,0,0,1,.43-2.12,5.62,5.62,0,0,1,1.19-1.77A5.47,5.47,0,0,1,338,90.61a5.13,5.13,0,0,1,2.13-.43,5.37,5.37,0,0,1,2.13.43A5.69,5.69,0,0,1,344,91.8a5.37,5.37,0,0,1,1.19,1.76,5.49,5.49,0,0,1,0,4.26A5.37,5.37,0,0,1,344,99.58a5.69,5.69,0,0,1-1.76,1.19,5.37,5.37,0,0,1-2.13.43Z"/><path class="cls-6" d="M343.77,92.05a5.43,5.43,0,0,0-1.64-1.1,5.2,5.2,0,0,0-4,0,5.11,5.11,0,0,0-2.74,2.74,5.2,5.2,0,0,0,0,4,5.43,5.43,0,0,0,1.1,1.64,5.31,5.31,0,0,0,1.64,1.1,5.2,5.2,0,0,0,4,0,5.11,5.11,0,0,0,2.74-2.74,5.2,5.2,0,0,0,0-4,5.31,5.31,0,0,0-1.1-1.64"/><path class="cls-6" d="M316.38,54.4V50.7a1.69,1.69,0,0,0-.2-.76,2.43,2.43,0,0,0-.5-.7,2.67,2.67,0,0,0-.7-.51,1.67,1.67,0,0,0-.76-.19h-6.49a1.71,1.71,0,0,0-.77.19,2.65,2.65,0,0,0-.69.5,2.44,2.44,0,0,0-.5.69,1.74,1.74,0,0,0-.2.78v3.75a56.31,56.31,0,0,1,5.66-.29C313,54.16,314.68,54.24,316.38,54.4Z"/><circle class="cls-6" cx="310.98" cy="43.79" r="3.09"/><path class="cls-3" d="M302.49,53.78a1.73,1.73,0,0,0-.2-.76,3.09,3.09,0,0,0-.5-.7,2.94,2.94,0,0,0-.71-.5,1.65,1.65,0,0,0-.75-.2h-6.49a1.74,1.74,0,0,0-.78.2,3,3,0,0,0-.69.49,2.88,2.88,0,0,0-.5.7,1.82,1.82,0,0,0-.19.77v5.07s0,0,0,.07c2.48-2,6.4-3.31,10.8-4.05Z"/><circle class="cls-3" cx="297.08" cy="46.88" r="3.09"/><path class="cls-3" d="M330.27,53.78a1.71,1.71,0,0,0-.19-.76,2.85,2.85,0,0,0-.51-.7,2.88,2.88,0,0,0-.7-.5,1.69,1.69,0,0,0-.76-.2h-6.48a1.74,1.74,0,0,0-.78.2,2.62,2.62,0,0,0-.69.49,2.88,2.88,0,0,0-.5.7,1.68,1.68,0,0,0-.19.77v1c4.31.68,8.21,1.92,10.8,3.76Z"/><circle class="cls-3" cx="324.87" cy="46.88" r="3.09"/><path class="cls-1" d="M328.16,60.8a23.84,23.84,0,0,0-8.69-2.9,49.41,49.41,0,0,0-5.16-.56c-1-.06-2-.09-3.08-.09s-2.36,0-3.5.11a47.6,47.6,0,0,0-5.24.63c-3.79.68-6.84,1.79-8.65,3.14A3.77,3.77,0,0,0,292,64c0,3.71,8.6,6.72,19.2,6.72s19.21-3,19.21-6.72C330.44,62.83,329.61,61.75,328.16,60.8Z"/></g><g id="Text"><text class="cls-7" transform="translate(109.96 69.07)">Engage with Mic<tspan class="cls-8" x="129.52" y="0">r</tspan><tspan x="135.55" y="0">os</tspan><tspan class="cls-9" x="152.98" y="0">o</tspan><tspan class="cls-10" x="163.06" y="0">f</tspan><tspan x="169.02" y="0">t</tspan></text></g></svg>