<svg xmlns="http://www.w3.org/2000/svg" viewBox="0 0 400 140"><defs><style>.cls-1{fill:#c2c2c2;}.cls-2{fill:#fff;}.cls-3{fill:#2f2f2f;}.cls-4,.cls-7{fill:none;}.cls-4{stroke:#c2c2c2;stroke-linecap:round;stroke-miterlimit:10;}.cls-5{fill:#939393;}.cls-6{fill:#d83b01;}.cls-8{fill:#d63f27;}</style></defs><title>o365roadmaponboard</title><g id="Road"><path class="cls-1" d="M0,81.41v1l0-1Zm13.83.72V83.2l11.08.68,0-1.12Zm24.91,1.4v1.2l11.07.67,0-1.24Zm24.92,1.4,0,1.26v.06l11.06.68,0-1.37Zm24.91,1.4,0,1.38v.06l11,.68,0-1.5Zm24.92,1.4,0,1.5v.07l11.05.67,0-1.62Zm37.37,2.1,0,1.68v.07l11,.68,0-1.81Zm24.91,1.4,0,1.81v.07l11,.67,0-1.93Zm24.92,1.4-.05,1.93v.07l11,.68V93.25Zm37.37,2.1L238,96.84v.08l11,.67V95.35ZM263,96.13l-.06,2.23v.08l11,.68V96.75Zm24.92,1.4-.08,2.35V100l11,.67V98.15Zm24.91,1.4-.08,2.47v.09l11,.67V99.54Zm24.91,1.4-.08,2.59V103l11,.68v-2.75Zm24.92,1.4-.09,2.71v.1l11,.67v-2.87Zm24.91,1.4-.09,2.84v.09l11,.67v-3Zm-12.45-.7-.1,2.78v.09l11,.67V103ZM350.17,101l-.09,2.65v.1l11,.67v-2.81Zm-24.91-1.4-.08,2.53v.09l11,.67v-2.68Zm-24.92-1.4-.07,2.41v.09l11,.67V98.84Zm-24.91-1.4-.07,2.29v.08l11,.68V97.45Zm-24.92-1.4-.06,2.17v.08l11,.67v-2.3ZM225.6,94l-.06,2v.08l11,.67V94.65Zm-12.46-.7,0,2v.07l11,.68V94Zm-24.91-1.4,0,1.87v.07l11,.67v-2Zm-24.92-1.4,0,1.75v.07l11,.67,0-1.87Zm-24.91-1.4,0,1.62v.07l11,.68,0-1.75Zm-12.46-.7,0,1.56v.07l11.05.68,0-1.69ZM101,87l0,1.44v.07l11.06.67,0-1.56Zm-24.92-1.4V87l11.06.68,0-1.44ZM51.2,84.23v1.26l11.06.68,0-1.31Zm-24.91-1.4V84l11.07.68,0-1.18ZM1.37,81.43v1l11.08.68,0-1.06Z"/><path class="cls-1" d="M1.43,102.74l-.07,1,11,1.41.1-1ZM26.2,105.8l-.08,1.08v.05l11,1.41.11-1.17ZM51,108.86l-.09,1.2v.06l11,1.41.11-1.3Zm24.76,3.06-.1,1.32v.05l11,1.42.13-1.43ZM100.49,115l-.12,1.43v.07l11,1.41.13-1.55ZM125.25,118l-.13,1.55v.07l11,1.42.14-1.68Zm12.39,1.53-.14,1.61v.07l11,1.42.13-1.75Zm24.76,3.06-.16,1.74v.07l11,1.41.14-1.87Zm24.77,3.06-.17,1.86v.07L198,129l.15-2Zm24.76,3.06-.18,2v.07l10.95,1.42.16-2.12Zm12.39,1.53-.2,2v.08l10.95,1.41.15-2.18Zm24.76,3.06-.21,2.16v.08L259.81,137l.16-2.3Zm24.77,3.06-.22,2.28v.08l9.55,1.24h1.4l.15-2.25Zm24.76,3.06-.05.54H303Zm-12.38-1.53L286,140h11l.05-.72Zm-24.77-3.06-.21,2.22v.08l10.94,1.42.17-2.37Zm-24.76-3.06-.2,2.1V134l10.95,1.41.16-2.24Zm-37.14-4.59-.18,1.92,0,.07,11,1.42.15-2.06Zm-24.77-3.06-.17,1.8V126l11,1.41.15-1.93ZM150,121.1l-.15,1.67v.07l11,1.42.14-1.81Zm-37.14-4.59-.13,1.49v.07l11,1.41.13-1.61Zm-24.77-3.06L88,114.82v.06l11,1.42.13-1.49Zm-24.76-3.06-.11,1.25v.06l11,1.42.12-1.36Zm-24.77-3.06-.09,1.13v.06l11,1.41.11-1.23Zm-24.77-3.06-.06,1,0,0,11,1.41.11-1.11Z"/><path class="cls-2" d="M.06,82.36H0l1.37.08h0Z"/><polygon points="400 108.83 400 140 316.43 140 0 101.56 0 83.27 400 108.83"/><path class="cls-3" d="M33.78,95.58l-3,9.72L0,101.57l2.45-8.9L0,83.27l30.89,2Z"/><path class="cls-3" d="M73.5,99.26,69.67,110l-37.58-4.57,3.06-9.76-2.9-10.36,37.81,2.42Z"/><path class="cls-3" d="M123.28,103.88l-5,12.05-47-5.71,3.88-10.8L71.68,87.86l47.36,3Z"/><path d="M187.52,109.85l-6.69,13.68-60.49-7.35,5.06-12.1-4.3-13,61,3.91Z"/><path d="M273.65,117.84l-9.37,15.83-80.75-9.81,6.81-13.75-5.47-15,81.66,5.23Z"/><path d="M400,108.83l-129.78-8.24,7.25,17.61-9.55,15.91,48.5,5.89H400"/></g><g id="Pins"><polyline class="cls-4" points="104.01 69.46 109.55 59.8 333.52 59.8"/><path class="cls-5" d="M92,87.15a10.28,10.28,0,0,1-2.21-3.31A10,10,0,0,1,89,80a10.4,10.4,0,0,1,.36-2.71,10.25,10.25,0,0,1,1-2.44A10.08,10.08,0,0,1,92,72.74,10.5,10.5,0,0,1,94,71.15a9.66,9.66,0,0,1,2.43-1,10.18,10.18,0,0,1,2.71-.36,10.07,10.07,0,0,1,2.71.36,10,10,0,0,1,2.44,1,10.47,10.47,0,0,1,2.07,1.59A10.1,10.1,0,0,1,109,77.23a10.16,10.16,0,0,1-.41,6.62,10.24,10.24,0,0,1-2.21,3.3l-7.21,7.21Zm7.2-12.6a5.13,5.13,0,0,0-2,.41,5.31,5.31,0,0,0-1.66,1.13,5.41,5.41,0,0,0-1.13,1.67,5.14,5.14,0,0,0,0,4.07,5.41,5.41,0,0,0,1.13,1.67,5.31,5.31,0,0,0,1.66,1.13,5.28,5.28,0,0,0,4.08,0,5.32,5.32,0,0,0,2.8-2.8,5.26,5.26,0,0,0,0-4.07,5.32,5.32,0,0,0-2.8-2.8A5.13,5.13,0,0,0,99.16,74.55Z"/><path class="cls-2" d="M99.16,70.46a9.59,9.59,0,0,1,2.53.33,9.34,9.34,0,0,1,2.27,1,9.57,9.57,0,0,1,1.93,1.49,9.27,9.27,0,0,1,1.48,1.92,9.83,9.83,0,0,1,.95,2.26,9.6,9.6,0,0,1,.34,2.53,9.42,9.42,0,0,1-2.78,6.71l-6.72,6.71-1.7-1.7-2.29-2.29-2.72-2.72a9.63,9.63,0,0,1-2.06-3.08A9.41,9.41,0,0,1,89.66,80,9.6,9.6,0,0,1,90,77.42a9.85,9.85,0,0,1,1-2.26,8.94,8.94,0,0,1,1.48-1.92,9.86,9.86,0,0,1,1.93-1.49,9.17,9.17,0,0,1,2.27-1,9.57,9.57,0,0,1,2.52-.33m0,15.27a5.86,5.86,0,0,0,2.32-.46,6.1,6.1,0,0,0,3.16-3.16,6.06,6.06,0,0,0,0-4.63,6.1,6.1,0,0,0-3.16-3.16,6.08,6.08,0,0,0-4.64,0,6.13,6.13,0,0,0-3.15,3.16,5.94,5.94,0,0,0,0,4.63,6.13,6.13,0,0,0,3.15,3.16,5.86,5.86,0,0,0,2.32.46m0-16.66a10.71,10.71,0,0,0-2.89.38,10.76,10.76,0,0,0-4.8,2.8,10.31,10.31,0,0,0-1.71,2.21A10.94,10.94,0,0,0,88.27,80a11,11,0,0,0,3.19,7.69l2.73,2.72,2.29,2.3,1.7,1.7,1,1,1-1,6.71-6.72a10.9,10.9,0,0,0,2.36-3.52,10.9,10.9,0,0,0,.44-7.06,11.38,11.38,0,0,0-1.08-2.6,11.55,11.55,0,0,0-1.71-2.21,10.91,10.91,0,0,0-4.81-2.8,10.73,10.73,0,0,0-2.9-.38Zm0,15.27A4.26,4.26,0,0,1,97.4,84,4.53,4.53,0,0,1,96,83a4.47,4.47,0,0,1-1-1.46,4.28,4.28,0,0,1-.36-1.75A4.46,4.46,0,0,1,95,78a4.65,4.65,0,0,1,1-1.46,4.53,4.53,0,0,1,1.45-1,4.6,4.6,0,0,1,3.52,0,4.63,4.63,0,0,1,1.46,1,4.8,4.8,0,0,1,1,1.46,4.46,4.46,0,0,1,.35,1.76,4.53,4.53,0,0,1-.35,1.76,4.88,4.88,0,0,1-1,1.45,4.63,4.63,0,0,1-1.46,1,4.29,4.29,0,0,1-1.76.35Z"/><path class="cls-6" d="M102.17,76.79a4.39,4.39,0,0,0-1.36-.91,4.29,4.29,0,0,0-3.3,0,4.23,4.23,0,0,0-1.35.91,4.29,4.29,0,0,0-.91,1.35,4.32,4.32,0,0,0,0,3.31,4.29,4.29,0,0,0,.91,1.35,4.21,4.21,0,0,0,3,1.24,4.16,4.16,0,0,0,1.65-.33,4.39,4.39,0,0,0,1.36-.91,4.43,4.43,0,0,0,.9-1.35,4.2,4.2,0,0,0,0-3.31,4.43,4.43,0,0,0-.9-1.35"/><g id="cloud_devices"><path class="cls-1" d="M115.54,47.94a8.06,8.06,0,0,0,2.34.62l0-9.18h24l0,7.59c.77,0,.62,0,.91-.24a5.19,5.19,0,0,0,1.39-2,6.52,6.52,0,0,0,0-5,6.34,6.34,0,0,0-1.4-2,6.53,6.53,0,0,0-2.07-1.36,6.32,6.32,0,0,0-2.53-.51,9.94,9.94,0,0,0-1.07-3.4,9.58,9.58,0,0,0-5-4.52,9.61,9.61,0,0,0-3.52-.65,9.72,9.72,0,0,0-2.42.3A9.41,9.41,0,0,0,122,29.75a9.75,9.75,0,0,0-1.56,1.87A8.62,8.62,0,0,0,112.8,34,8.73,8.73,0,0,0,111,36.7a8.66,8.66,0,0,0,0,6.68,8.73,8.73,0,0,0,1.85,2.73A7.42,7.42,0,0,0,115.54,47.94Z"/><rect class="cls-7" x="139.24" y="53.62" width="1.78" height="1.78"/><rect class="cls-7" x="124.11" y="53.62" width="0.89" height="0.89"/><path class="cls-8" d="M133,54.51h-2.67V52.73h1.78V47.9c.56-.21.61-.41.7-.59a1.41,1.41,0,0,1,.35-.46,1.54,1.54,0,0,1,.49-.3,2,2,0,0,1,.59,0h5.88V41.16H119.66V52.73h8.9v1.78h-3.33c0,.12-.07,1.85-.07,1.85s7.57,0,7.57,0"/><path class="cls-3" d="M147.21,48.6a.42.42,0,0,0-.11-.16.45.45,0,0,0-.19-.11.6.6,0,0,0-.24,0H134.48a.6.6,0,0,0-.24,0,.4.4,0,0,0-.19.11.61.61,0,0,0-.12.16.41.41,0,0,0,0,.16v8a.4.4,0,0,0,0,.15.61.61,0,0,0,.12.16.52.52,0,0,0,.19.12.61.61,0,0,0,.24,0h12.19a.61.61,0,0,0,.24,0,.62.62,0,0,0,.19-.12.42.42,0,0,0,.11-.16.28.28,0,0,0,0-.15v-8A.29.29,0,0,0,147.21,48.6Zm-5.3,6.8h-2.67V53.62h2.67Z"/></g></g><g id="Text"><path class="cls-3" d="M162.39,47.34a8,8,0,0,1-.73,3.53,5.31,5.31,0,0,1-2.11,2.33,6,6,0,0,1-3.17.82,6,6,0,0,1-3.08-.8A5.42,5.42,0,0,1,151.21,51a7.33,7.33,0,0,1-.73-3.32,8,8,0,0,1,.74-3.52,5.4,5.4,0,0,1,2.15-2.33A6.32,6.32,0,0,1,156.6,41a5.67,5.67,0,0,1,3,.8A5.29,5.29,0,0,1,161.67,44,7.28,7.28,0,0,1,162.39,47.34Zm-1.54.19a5.86,5.86,0,0,0-1.15-3.84,4,4,0,0,0-3.21-1.38,4.18,4.18,0,0,0-3.9,2.52,6.2,6.2,0,0,0-.57,2.69,6.43,6.43,0,0,0,.54,2.69A4.17,4.17,0,0,0,154.11,52a4.5,4.5,0,0,0,5.55-.73A5.58,5.58,0,0,0,160.85,47.53Z"/><path class="cls-3" d="M172.15,53.8h-1.44V48.67c0-1.91-.7-2.86-2.09-2.86a2.29,2.29,0,0,0-1.78.8,3,3,0,0,0-.72,2.06V53.8h-1.44v-9h1.44v1.49h0a3.22,3.22,0,0,1,3-1.71,2.72,2.72,0,0,1,2.26,1,4.26,4.26,0,0,1,.78,2.74Z"/><path class="cls-3" d="M183.15,49A5.59,5.59,0,0,1,182,52.65,3.67,3.67,0,0,1,179,54a3,3,0,0,1-2.7-1.51h0V53.8h-1.44V40.48h1.44v5.9h0a3.41,3.41,0,0,1,3.11-1.8,3.31,3.31,0,0,1,2.69,1.2A4.88,4.88,0,0,1,183.15,49Zm-1.48,0a3.65,3.65,0,0,0-.69-2.33,2.26,2.26,0,0,0-1.89-.87,2.6,2.6,0,0,0-2,.86,3.21,3.21,0,0,0-.77,2.2v1.26a2.59,2.59,0,0,0,.74,1.89,2.45,2.45,0,0,0,1.83.77,2.41,2.41,0,0,0,2.05-1A4.64,4.64,0,0,0,181.67,49Z"/><path class="cls-3" d="M193.55,49.26a4.82,4.82,0,0,1-1.22,3.45A4.25,4.25,0,0,1,189.07,54a4.17,4.17,0,0,1-3.19-1.27,4.71,4.71,0,0,1-1.19-3.34,5,5,0,0,1,1.22-3.53,4.4,4.4,0,0,1,3.37-1.3,4,4,0,0,1,3.14,1.25A5,5,0,0,1,193.55,49.26Zm-1.47.06a3.92,3.92,0,0,0-.76-2.6,2.61,2.61,0,0,0-2.15-.91,2.76,2.76,0,0,0-2.19.93,3.85,3.85,0,0,0-.81,2.61,3.68,3.68,0,0,0,.81,2.53,2.77,2.77,0,0,0,2.19.91,2.65,2.65,0,0,0,2.16-.9A3.9,3.9,0,0,0,192.08,49.32Z"/><path class="cls-3" d="M202.16,53.8h-1.45V52.39h0A3,3,0,0,1,197.91,54a3,3,0,0,1-2.08-.71,2.43,2.43,0,0,1-.78-1.9q0-2.52,3-2.94l2.69-.37c0-1.53-.61-2.29-1.85-2.29a4.5,4.5,0,0,0-2.94,1.1V45.43a4.39,4.39,0,0,1,1.36-.57,6.06,6.06,0,0,1,1.7-.28q3.18,0,3.18,3.37Zm-1.45-4.55-2.17.3a3.25,3.25,0,0,0-1.57.54,1.48,1.48,0,0,0-.45,1.2,1.33,1.33,0,0,0,.49,1.09,1.85,1.85,0,0,0,1.24.41A2.3,2.3,0,0,0,200,52a2.68,2.68,0,0,0,.69-1.89Z"/><path class="cls-3" d="M209.57,46.26a1.84,1.84,0,0,0-1.1-.29,1.81,1.81,0,0,0-1.56.9,4.15,4.15,0,0,0-.6,2.34V53.8h-1.44v-9h1.44v1.85h0a3.23,3.23,0,0,1,.92-1.47,2.14,2.14,0,0,1,1.43-.54,2.45,2.45,0,0,1,.87.12Z"/><path class="cls-3" d="M218.51,53.8h-1.44V52.27h0a3.61,3.61,0,0,1-5.81.52,4.94,4.94,0,0,1-1-3.27,5.45,5.45,0,0,1,1.12-3.59,3.68,3.68,0,0,1,3-1.35A2.91,2.91,0,0,1,217,46h0V40.48h1.44Zm-1.44-4.07V48.4a2.52,2.52,0,0,0-.74-1.85,2.64,2.64,0,0,0-3.87.22,4.18,4.18,0,0,0-.77,2.67,3.82,3.82,0,0,0,.72,2.45,2.37,2.37,0,0,0,2,.9,2.5,2.5,0,0,0,1.95-.86A3.2,3.2,0,0,0,217.07,49.73Z"/><path class="cls-3" d="M229.8,53.71a2.72,2.72,0,0,1-1.36.29c-1.57,0-2.35-.88-2.35-2.65V46h-1.55V44.8h1.55V42.6l1.44-.46V44.8h2.27V46h-2.27V51.1a2.05,2.05,0,0,0,.31,1.29,1.26,1.26,0,0,0,1,.38,1.58,1.58,0,0,0,.93-.29Z"/><path class="cls-3" d="M239.9,49.26a4.86,4.86,0,0,1-1.22,3.45A4.26,4.26,0,0,1,235.41,54a4.13,4.13,0,0,1-3.18-1.27A4.66,4.66,0,0,1,231,49.41a4.91,4.91,0,0,1,1.22-3.53,4.38,4.38,0,0,1,3.37-1.3,4,4,0,0,1,3.13,1.25A4.92,4.92,0,0,1,239.9,49.26Zm-1.48.06a4,4,0,0,0-.75-2.6,2.62,2.62,0,0,0-2.15-.91,2.76,2.76,0,0,0-2.2.93,3.85,3.85,0,0,0-.81,2.61,3.63,3.63,0,0,0,.82,2.53,2.77,2.77,0,0,0,2.19.91,2.63,2.63,0,0,0,2.15-.9A3.9,3.9,0,0,0,238.42,49.32Z"/><path class="cls-3" d="M257.61,47.34a8,8,0,0,1-.74,3.53,5.31,5.31,0,0,1-2.11,2.33,6.43,6.43,0,0,1-6.25,0A5.33,5.33,0,0,1,246.43,51a7.21,7.21,0,0,1-.74-3.32,7.89,7.89,0,0,1,.75-3.52,5.32,5.32,0,0,1,2.14-2.33,6.32,6.32,0,0,1,3.23-.81,5.71,5.71,0,0,1,3,.8,5.33,5.33,0,0,1,2,2.25A7.29,7.29,0,0,1,257.61,47.34Zm-1.55.19a5.81,5.81,0,0,0-1.15-3.84,4,4,0,0,0-3.21-1.38,4.18,4.18,0,0,0-3.9,2.52,6.2,6.2,0,0,0-.56,2.69,6.43,6.43,0,0,0,.54,2.69,4,4,0,0,0,3.81,2.47,4.08,4.08,0,0,0,3.28-1.37A5.58,5.58,0,0,0,256.06,47.53Z"/><path class="cls-3" d="M264.34,41.74a1.9,1.9,0,0,0-1-.24c-1,0-1.51.64-1.51,1.91V44.8H264V46h-2.11V53.8h-1.44V46H258.9V44.8h1.53V43.34a3.06,3.06,0,0,1,.81-2.21,2.69,2.69,0,0,1,2.05-.85,2.76,2.76,0,0,1,1,.16Z"/><path class="cls-3" d="M270,41.74a1.9,1.9,0,0,0-1-.24c-1,0-1.51.64-1.51,1.91V44.8h2.11V46H267.5V53.8h-1.44V46h-1.53V44.8h1.53V43.34a3.06,3.06,0,0,1,.81-2.21,3.07,3.07,0,0,1,3.1-.69Z"/><path class="cls-3" d="M272.85,41.57a1,1,0,0,1-1.62.69.92.92,0,0,1-.27-.69.89.89,0,0,1,.27-.65.86.86,0,0,1,.67-.28.88.88,0,0,1,.67.28A.86.86,0,0,1,272.85,41.57ZM272.6,53.8h-1.44v-9h1.44Z"/><path class="cls-3" d="M281.58,53.39a4.68,4.68,0,0,1-2.47.63,4.33,4.33,0,0,1-2.21-.57,3.91,3.91,0,0,1-1.52-1.6,4.86,4.86,0,0,1-.55-2.33,5,5,0,0,1,1.28-3.59A5,5,0,0,1,281.6,45v1.47a3.67,3.67,0,0,0-2.14-.7,2.88,2.88,0,0,0-2.28,1,3.77,3.77,0,0,0-.87,2.58,3.58,3.58,0,0,0,.83,2.49,2.89,2.89,0,0,0,2.23.91,3.66,3.66,0,0,0,2.21-.77Z"/><path class="cls-3" d="M290.93,49.66h-6.36a3.29,3.29,0,0,0,.81,2.32,2.79,2.79,0,0,0,2.13.81,4.36,4.36,0,0,0,2.78-1v1.35a5.14,5.14,0,0,1-3.13.87,3.79,3.79,0,0,1-3-1.24,5.09,5.09,0,0,1-1.08-3.45,5.42,5.42,0,0,1,.54-2.43,4,4,0,0,1,1.49-1.71,3.77,3.77,0,0,1,2.11-.61A3.43,3.43,0,0,1,290,45.72a4.74,4.74,0,0,1,1,3.18Zm-1.48-1.22a3,3,0,0,0-.6-1.94,2,2,0,0,0-1.65-.69,2.3,2.3,0,0,0-1.71.72,3.33,3.33,0,0,0-.9,1.91Z"/><path class="cls-3" d="M304.21,50.23A3.42,3.42,0,0,1,303,53a4.77,4.77,0,0,1-3.2,1,5.21,5.21,0,0,1-2.87-.69V51.79a4.58,4.58,0,0,0,2.92,1,3.17,3.17,0,0,0,2.11-.66,2.15,2.15,0,0,0,.79-1.77c0-1.64-1.17-2.47-3.52-2.47h-1V46.67h1c2.07,0,3.11-.77,3.11-2.32s-.79-2.14-2.37-2.14a4.1,4.1,0,0,0-2.51.89V41.71a5.51,5.51,0,0,1,2.87-.72,3.73,3.73,0,0,1,2.53.83,2.72,2.72,0,0,1,1,2.17,3.07,3.07,0,0,1-2.52,3.2v0a3.54,3.54,0,0,1,2.16,1A2.8,2.8,0,0,1,304.21,50.23Z"/><path class="cls-3" d="M314.45,49.8a4.6,4.6,0,0,1-.51,2.17,3.7,3.7,0,0,1-1.42,1.51,3.88,3.88,0,0,1-2,.54,3.45,3.45,0,0,1-3-1.52,7.31,7.31,0,0,1-1.07-4.25,10.64,10.64,0,0,1,.63-3.81,5.74,5.74,0,0,1,1.81-2.56,4.3,4.3,0,0,1,2.7-.89,5.1,5.1,0,0,1,2.09.36v1.36a4.38,4.38,0,0,0-2.06-.5,3.08,3.08,0,0,0-2.67,1.5,7,7,0,0,0-1,4h0a3,3,0,0,1,2.87-1.78A3.4,3.4,0,0,1,313.47,47,4,4,0,0,1,314.45,49.8ZM313,50a3.15,3.15,0,0,0-.65-2.09,2.22,2.22,0,0,0-1.8-.76,2.39,2.39,0,0,0-1.78.74,2.49,2.49,0,0,0-.72,1.8,3.44,3.44,0,0,0,.72,2.22,2.32,2.32,0,0,0,3.56.11A3,3,0,0,0,313,50Z"/><path class="cls-3" d="M323.69,50a3.78,3.78,0,0,1-1.22,2.95A4.58,4.58,0,0,1,319.23,54a5,5,0,0,1-2.61-.53V52a4.79,4.79,0,0,0,2.62.83A3.09,3.09,0,0,0,321.4,52a2.59,2.59,0,0,0,.81-2,2.38,2.38,0,0,0-.82-1.93,3.6,3.6,0,0,0-2.4-.7,18.38,18.38,0,0,0-2.14.11l.43-6.32h5.83v1.3h-4.58l-.25,3.7,1.16-.05a4.54,4.54,0,0,1,3.11,1A3.5,3.5,0,0,1,323.69,50Z"/></g></svg>