<svg xmlns="http://www.w3.org/2000/svg" viewBox="0 0 400 140"><defs><style>.cls-1{fill:#c2c2c2;}.cls-2{fill:#fff;}.cls-3{fill:#2f2f2f;}.cls-4{fill:#d63f27;}.cls-5{fill:#939393;}.cls-6{fill:#d83b01;}</style></defs><title>o365roadmap</title><g id="Road"><path class="cls-1" d="M0,81.41v1l0-1Zm13.83.72V83.2l11.08.68,0-1.12Zm24.91,1.4v1.2l11.07.67,0-1.24Zm24.92,1.4,0,1.26v.06l11.06.68,0-1.37Zm24.91,1.4,0,1.38v.06l11,.68,0-1.5Zm24.92,1.4,0,1.5v.07l11.05.67,0-1.62Zm37.37,2.1,0,1.68v.07l11,.68,0-1.81Zm24.91,1.4,0,1.81v.07l11,.67,0-1.93Zm24.92,1.4-.05,1.93v.07l11,.68V93.25Zm37.37,2.1L238,96.84v.08l11,.67V95.35ZM263,96.13l-.06,2.23v.08l11,.68V96.75Zm24.92,1.4-.08,2.35V100l11,.67V98.15Zm24.91,1.4-.08,2.47v.09l11,.67V99.54Zm24.91,1.4-.08,2.59V103l11,.68v-2.75Zm24.92,1.4-.09,2.71v.1l11,.67v-2.87Zm24.91,1.4-.09,2.84v.09l11,.67v-3Zm-12.45-.7-.1,2.78v.09l11,.67V103ZM350.17,101l-.09,2.65v.1l11,.67v-2.81Zm-24.91-1.4-.08,2.53v.09l11,.67v-2.68Zm-24.92-1.4-.07,2.41v.09l11,.67V98.84Zm-24.91-1.4-.07,2.29v.08l11,.68V97.45Zm-24.92-1.4-.06,2.17v.08l11,.67v-2.3ZM225.6,94l-.06,2v.08l11,.67V94.65Zm-12.46-.7,0,2v.07l11,.68V94Zm-24.91-1.4,0,1.87v.07l11,.67v-2Zm-24.92-1.4,0,1.75v.07l11,.67,0-1.87Zm-24.91-1.4,0,1.62v.07l11,.68,0-1.75Zm-12.46-.7,0,1.56v.07l11.05.68,0-1.69ZM101,87l0,1.44v.07l11.06.67,0-1.56Zm-24.92-1.4V87l11.06.68,0-1.44ZM51.2,84.23v1.26l11.06.68,0-1.31Zm-24.91-1.4V84l11.07.68,0-1.18ZM1.37,81.43v1l11.08.68,0-1.06Z"/><path class="cls-1" d="M1.43,102.74l-.07,1,11,1.41.1-1ZM26.2,105.8l-.08,1.08v.05l11,1.41.11-1.17ZM51,108.86l-.09,1.2v.06l11,1.41.11-1.3Zm24.76,3.06-.1,1.32v.05l11,1.42.13-1.43ZM100.49,115l-.12,1.43v.07l11,1.41.13-1.55ZM125.25,118l-.13,1.55v.07l11,1.42.14-1.68Zm12.39,1.53-.14,1.61v.07l11,1.42.13-1.75Zm24.76,3.06-.16,1.74v.07l11,1.41.14-1.87Zm24.77,3.06-.17,1.86v.07L198,129l.15-2Zm24.76,3.06-.18,2v.07l10.95,1.42.16-2.12Zm12.39,1.53-.2,2v.08l10.95,1.41.15-2.18Zm24.76,3.06-.21,2.16v.08L259.81,137l.16-2.3Zm24.77,3.06-.22,2.28v.08l9.55,1.24h1.4l.15-2.25Zm24.76,3.06-.05.54H303Zm-12.38-1.53L286,140h11l.05-.72Zm-24.77-3.06-.21,2.22v.08l10.94,1.42.17-2.37Zm-24.76-3.06-.2,2.1V134l10.95,1.41.16-2.24Zm-37.14-4.59-.18,1.92,0,.07,11,1.42.15-2.06Zm-24.77-3.06-.17,1.8V126l11,1.41.15-1.93ZM150,121.1l-.15,1.67v.07l11,1.42.14-1.81Zm-37.14-4.59-.13,1.49v.07l11,1.41.13-1.61Zm-24.77-3.06L88,114.82v.06l11,1.42.13-1.49Zm-24.76-3.06-.11,1.25v.06l11,1.42.12-1.36Zm-24.77-3.06-.09,1.13v.06l11,1.41.11-1.23Zm-24.77-3.06-.06,1,0,0,11,1.41.11-1.11Z"/><path class="cls-2" d="M.06,82.36H0l1.37.08h0Z"/><polygon points="400 108.83 400 140 316.43 140 0 101.56 0 83.27 400 108.83"/><path class="cls-3" d="M33.78,95.58l-3,9.72L0,101.57l2.45-8.9L0,83.27l30.89,2Z"/><path d="M73.5,99.26,69.67,110l-37.58-4.57,3.06-9.76-2.9-10.36,37.81,2.42Z"/><path d="M123.28,103.88l-5,12.05-47-5.71,3.88-10.8L71.68,87.86l47.36,3Z"/><path d="M187.52,109.85l-6.69,13.68-60.49-7.35,5.06-12.1-4.3-13,61,3.91Z"/><path d="M273.65,117.84l-9.37,15.83-80.75-9.81,6.81-13.75-5.47-15,81.66,5.23Z"/><path d="M400,108.83l-129.78-8.24,7.25,17.61-9.55,15.91,48.5,5.89H400"/></g><g id="Pins"><rect class="cls-1" x="8.78" y="70.87" width="1.48" height="11.11"/><rect class="cls-1" x="8.78" y="61.98" width="1.48" height="1.48"/><polygon class="cls-4" points="16.93 67.17 13.96 70.87 2.11 70.87 2.11 63.46 13.96 63.46 16.93 67.17"/><g id="pedestrian"><path class="cls-1" d="M381.89,78.62l-4.18-1m10.86,6.88-4.47-1.88-2.35-4-4.17-1h0L373.71,79l-3.9,1.3.42,6.5,2.17-.14-.28-4.33L376.38,81l-1.75,6.64,1.23,2.09-3.71,10,2.24.94,3.77-8.94,2.38,3.11,1.5,6.43,2.16-.14-1.57-7.51L379,88.43l1.74-6.64,1.3,3.18,5.55,1.82Z"/><circle class="cls-1" cx="380.66" cy="74.19" r="2.53"/></g><rect class="cls-1" x="364.33" y="95.74" width="5.06" height="1.45" transform="translate(-5.44 23.78) rotate(-3.68)"/><rect class="cls-1" x="365.59" y="92.74" width="5.79" height="1.45" transform="translate(-5.24 23.88) rotate(-3.68)"/><path class="cls-5" d="M158,89.32a11.29,11.29,0,0,1-2.44-3.66,11.15,11.15,0,0,1-.86-4.3,11.29,11.29,0,0,1,.4-3,11.58,11.58,0,0,1,1.14-2.69A10.9,10.9,0,0,1,158,73.39a11.67,11.67,0,0,1,2.29-1.76,11.23,11.23,0,0,1,2.69-1.14,11.27,11.27,0,0,1,8.69,1.14,11.89,11.89,0,0,1,2.28,1.76,11.47,11.47,0,0,1,1.76,2.28,11.68,11.68,0,0,1,1.13,2.69,11.39,11.39,0,0,1-.45,7.31,11.44,11.44,0,0,1-2.45,3.65l-8,8Zm8-13.93a5.62,5.62,0,0,0-2.25.45,5.88,5.88,0,0,0-1.84,1.25,6,6,0,0,0-1.25,1.85,5.71,5.71,0,0,0,0,4.49,6,6,0,0,0,1.25,1.85,5.71,5.71,0,0,0,1.84,1.25,5.85,5.85,0,0,0,4.5,0A6,6,0,0,0,170,85.28a6.05,6.05,0,0,0,1.25-1.84,5.85,5.85,0,0,0,0-4.5,5.87,5.87,0,0,0-3.1-3.1A5.58,5.58,0,0,0,165.92,75.39Z"/><path class="cls-2" d="M165.92,70.87a10.67,10.67,0,0,1,2.79.36,10.41,10.41,0,0,1,2.51,1.06,10,10,0,0,1,2.13,1.65A10.32,10.32,0,0,1,175,76.06a10.64,10.64,0,0,1,1.43,5.3,10.41,10.41,0,0,1-3.09,7.42l-7.42,7.41-1.87-1.87-2.54-2.54-3-3a10.63,10.63,0,0,1-2.28-3.41,10.36,10.36,0,0,1-.8-4,10.67,10.67,0,0,1,.37-2.79,10.35,10.35,0,0,1,1.06-2.51,9.94,9.94,0,0,1,1.64-2.12,10.3,10.3,0,0,1,2.13-1.65,10.41,10.41,0,0,1,2.51-1.06,10.65,10.65,0,0,1,2.78-.36m0,16.88a6.3,6.3,0,0,0,2.56-.52A6.57,6.57,0,0,0,172,83.74a6.53,6.53,0,0,0-1.41-7.19,6.71,6.71,0,0,0-2.08-1.41,6.56,6.56,0,0,0-5.12,0,6.66,6.66,0,0,0-2.07,1.41,6.38,6.38,0,0,0-1.41,2.08,6.42,6.42,0,0,0,0,5.11,6.6,6.6,0,0,0,3.48,3.49,6.3,6.3,0,0,0,2.56.52m0-18.42A11.87,11.87,0,0,0,159.84,71a12.28,12.28,0,0,0-2.42,1.87,11.63,11.63,0,0,0-1.89,2.45,12.68,12.68,0,0,0-1.21,2.86,12.05,12.05,0,0,0-.43,3.21,11.78,11.78,0,0,0,.93,4.6,12.14,12.14,0,0,0,2.59,3.9l3,3L163,95.4l1.88,1.88,1.08,1.09L167,97.28l7.42-7.42a12,12,0,0,0,3.53-8.5,11.93,11.93,0,0,0-.43-3.2,12.67,12.67,0,0,0-1.2-2.87,12.24,12.24,0,0,0-1.89-2.44A11.71,11.71,0,0,0,172,71a11.78,11.78,0,0,0-6.07-1.63Zm0,16.88a4.85,4.85,0,0,1-1.95-.38,5.34,5.34,0,0,1-1.6-1.09,5.12,5.12,0,0,1-1.08-1.61,4.71,4.71,0,0,1-.4-1.94,4.84,4.84,0,0,1,.39-1.94,5.25,5.25,0,0,1,1.09-1.62,5.31,5.31,0,0,1,1.6-1.08,5.07,5.07,0,0,1,3.9,0,5.29,5.29,0,0,1,1.61,1.08,5.05,5.05,0,0,1,1.08,1.62,4.8,4.8,0,0,1,.39,1.94,5,5,0,0,1-.39,2,5.19,5.19,0,0,1-1.08,1.6,5.32,5.32,0,0,1-1.61,1.09,5,5,0,0,1-2,.38Z"/><path class="cls-6" d="M169.24,77.87a4.69,4.69,0,0,0-7.64,1.49,4.69,4.69,0,0,0,0,3.65,4.81,4.81,0,0,0,1,1.5,4.69,4.69,0,0,0,1.5,1,4.69,4.69,0,0,0,3.65,0,4.65,4.65,0,0,0,1.49-1,4.83,4.83,0,0,0,1-1.5,4.67,4.67,0,0,0-1-5.14"/></g></svg>