<svg xmlns="http://www.w3.org/2000/svg" viewBox="0 0 400 140"><defs><style>.cls-1{fill:#c2c2c2;}.cls-2{fill:#fff;}.cls-3{fill:#2f2f2f;}.cls-4{fill:#d63f27;}.cls-5{fill:none;stroke:#c2c2c2;stroke-linecap:round;stroke-miterlimit:10;}.cls-6{fill:#939393;}</style></defs><title>o365roadmapunderstandoffice365</title><g id="Road"><path class="cls-1" d="M0,81.41v1l0-1Zm13.83.72V83.2l11.08.68,0-1.12Zm24.91,1.4v1.2l11.07.67,0-1.24Zm24.92,1.4,0,1.26v.06l11.06.68,0-1.37Zm24.91,1.4,0,1.38v.06l11,.68,0-1.5Zm24.92,1.4,0,1.5v.07l11.05.67,0-1.62Zm37.37,2.1,0,1.68v.07l11,.68,0-1.81Zm24.91,1.4,0,1.81v.07l11,.67,0-1.93Zm24.92,1.4-.05,1.93v.07l11,.68V93.25Zm37.37,2.1L238,96.84v.08l11,.67V95.35ZM263,96.13l-.06,2.23v.08l11,.68V96.75Zm24.92,1.4-.08,2.35V100l11,.67V98.15Zm24.91,1.4-.08,2.47v.09l11,.67V99.54Zm24.91,1.4-.08,2.59V103l11,.68v-2.75Zm24.92,1.4-.09,2.71v.1l11,.67v-2.87Zm24.91,1.4-.09,2.84v.09l11,.67v-3Zm-12.45-.7-.1,2.78v.09l11,.67V103ZM350.17,101l-.09,2.65v.1l11,.67v-2.81Zm-24.91-1.4-.08,2.53v.09l11,.67v-2.68Zm-24.92-1.4-.07,2.41v.09l11,.67V98.84Zm-24.91-1.4-.07,2.29v.08l11,.68V97.45Zm-24.92-1.4-.06,2.17v.08l11,.67v-2.3ZM225.6,94l-.06,2v.08l11,.67V94.65Zm-12.46-.7,0,2v.07l11,.68V94Zm-24.91-1.4,0,1.87v.07l11,.67v-2Zm-24.92-1.4,0,1.75v.07l11,.67,0-1.87Zm-24.91-1.4,0,1.62v.07l11,.68,0-1.75Zm-12.46-.7,0,1.56v.07l11.05.68,0-1.69ZM101,87l0,1.44v.07l11.06.67,0-1.56Zm-24.92-1.4V87l11.06.68,0-1.44ZM51.2,84.23v1.26l11.06.68,0-1.31Zm-24.91-1.4V84l11.07.68,0-1.18ZM1.37,81.43v1l11.08.68,0-1.06Z"/><path class="cls-1" d="M1.43,102.74l-.07,1,11,1.41.1-1ZM26.2,105.8l-.08,1.08v.05l11,1.41.11-1.17ZM51,108.86l-.09,1.2v.06l11,1.41.11-1.3Zm24.76,3.06-.1,1.32v.05l11,1.42.13-1.43ZM100.49,115l-.12,1.43v.07l11,1.41.13-1.55ZM125.25,118l-.13,1.55v.07l11,1.42.14-1.68Zm12.39,1.53-.14,1.61v.07l11,1.42.13-1.75Zm24.76,3.06-.16,1.74v.07l11,1.41.14-1.87Zm24.77,3.06-.17,1.86v.07L198,129l.15-2Zm24.76,3.06-.18,2v.07l10.95,1.42.16-2.12Zm12.39,1.53-.2,2v.08l10.95,1.41.15-2.18Zm24.76,3.06-.21,2.16v.08L259.81,137l.16-2.3Zm24.77,3.06-.22,2.28v.08l9.55,1.24h1.4l.15-2.25Zm24.76,3.06-.05.54H303Zm-12.38-1.53L286,140h11l.05-.72Zm-24.77-3.06-.21,2.22v.08l10.94,1.42.17-2.37Zm-24.76-3.06-.2,2.1V134l10.95,1.41.16-2.24Zm-37.14-4.59-.18,1.92,0,.07,11,1.42.15-2.06Zm-24.77-3.06-.17,1.8V126l11,1.41.15-1.93ZM150,121.1l-.15,1.67v.07l11,1.42.14-1.81Zm-37.14-4.59-.13,1.49v.07l11,1.41.13-1.61Zm-24.77-3.06L88,114.82v.06l11,1.42.13-1.49Zm-24.76-3.06-.11,1.25v.06l11,1.42.12-1.36Zm-24.77-3.06-.09,1.13v.06l11,1.41.11-1.23Zm-24.77-3.06-.06,1,0,0,11,1.41.11-1.11Z"/><path class="cls-2" d="M.06,82.36H0l1.37.08h0Z"/><polygon points="400 108.83 400 140 316.43 140 0 101.56 0 83.27 400 108.83"/><path class="cls-3" d="M33.78,95.58l-3,9.72L0,101.57l2.45-8.9L0,83.27l30.89,2Z"/><path d="M73.5,99.26,69.67,110l-37.58-4.57,3.06-9.76-2.9-10.36,37.81,2.42Z"/><path d="M123.28,103.88l-5,12.05-47-5.71,3.88-10.8L71.68,87.86l47.36,3Z"/><path d="M187.52,109.85l-6.69,13.68-60.49-7.35,5.06-12.1-4.3-13,61,3.91Z"/><path d="M273.65,117.84l-9.37,15.83-80.75-9.81,6.81-13.75-5.47-15,81.66,5.23Z"/><path d="M400,108.83l-129.78-8.24,7.25,17.61-9.55,15.91,48.5,5.89H400"/></g><g id="Pins"><rect class="cls-1" x="8.78" y="70.87" width="1.48" height="11.11"/><rect class="cls-1" x="8.78" y="61.98" width="1.48" height="1.48"/><polygon class="cls-4" points="16.93 67.17 13.96 70.87 2.11 70.87 2.11 63.46 13.96 63.46 16.93 67.17"/><polyline class="cls-5" points="28.07 68.59 33.61 58.93 237.58 58.93"/><path class="cls-6" d="M16.05,82.52a8.27,8.27,0,0,1-1.74-2.62,7.91,7.91,0,0,1-.62-3.07A8.18,8.18,0,0,1,14,74.69a7.72,7.72,0,0,1,.82-1.92,7.52,7.52,0,0,1,1.25-1.63,7.93,7.93,0,0,1,1.63-1.26,7.7,7.7,0,0,1,1.92-.81,8.06,8.06,0,0,1,2.14-.28,8,8,0,0,1,4.07,1.09,8.09,8.09,0,0,1,1.63,1.26,7.87,7.87,0,0,1,1.25,1.62,8,8,0,0,1,.81,1.92,8.31,8.31,0,0,1,.29,2.15,8,8,0,0,1-2.36,5.69L21.74,88.2Zm5.69-10a4.06,4.06,0,0,0-1.61.32,4.22,4.22,0,0,0-1.31.89,4.18,4.18,0,0,0-.9,1.32,4.07,4.07,0,0,0,0,3.21,4.07,4.07,0,0,0,.9,1.32,4.22,4.22,0,0,0,1.31.89,4.09,4.09,0,0,0,3.22,0,4.32,4.32,0,0,0,1.32-.89,4.21,4.21,0,0,0,.89-1.32,4.19,4.19,0,0,0,0-3.21,4.17,4.17,0,0,0-2.21-2.21A4.13,4.13,0,0,0,21.74,72.57Z"/><path class="cls-2" d="M21.74,69.33a7.24,7.24,0,0,1,2,.27,7.36,7.36,0,0,1,1.8.75A7.64,7.64,0,0,1,28.22,73,8.07,8.07,0,0,1,29,74.83a7.52,7.52,0,0,1-.3,4.87A7.48,7.48,0,0,1,27,82.13l-5.3,5.3L20.4,86.08l-1.81-1.81-2.15-2.14a7.49,7.49,0,0,1-1.62-2.44,7.35,7.35,0,0,1-.58-2.86,7.78,7.78,0,0,1,.27-2A7.65,7.65,0,0,1,15.27,73a7.11,7.11,0,0,1,1.17-1.51A7.56,7.56,0,0,1,18,70.35a7.56,7.56,0,0,1,3.78-1m0,12.07A4.67,4.67,0,0,0,23.57,81a5,5,0,0,0,1.49-1,4.82,4.82,0,0,0,1-1.49,4.59,4.59,0,0,0,.37-1.82,4.67,4.67,0,0,0-.37-1.83,4.94,4.94,0,0,0-1-1.49,4.76,4.76,0,0,0-1.49-1,4.71,4.71,0,0,0-3.66,0,4.61,4.61,0,0,0-1.48,1,5,5,0,0,0-1,1.49,4.5,4.5,0,0,0-.37,1.83,4.42,4.42,0,0,0,.37,1.82A4.8,4.8,0,0,0,19.91,81a4.67,4.67,0,0,0,1.83.37m0-13.16a8.64,8.64,0,0,0-2.28.3,8.36,8.36,0,0,0-2.07.87,9.16,9.16,0,0,0-1.73,1.34,8.25,8.25,0,0,0-1.34,1.74,8.46,8.46,0,0,0-1.18,4.34,8.72,8.72,0,0,0,2.52,6.07l2.15,2.15,1.81,1.81L21,88.2l.77.78.78-.78,5.3-5.3A8.56,8.56,0,0,0,30,74.55a9.22,9.22,0,0,0-.86-2.06,8.81,8.81,0,0,0-1.35-1.74,8.44,8.44,0,0,0-1.75-1.35,8.35,8.35,0,0,0-2-.86,8.66,8.66,0,0,0-2.29-.3Zm0,12.06A3.35,3.35,0,0,1,20.35,80a3.5,3.5,0,0,1-1.15-.78,3.57,3.57,0,0,1-.77-1.15,3.45,3.45,0,0,1,0-2.77,3.63,3.63,0,0,1,1.92-1.93,3.71,3.71,0,0,1,2.78,0,3.69,3.69,0,0,1,1.93,1.93,3.59,3.59,0,0,1,.27,1.39,3.56,3.56,0,0,1-1,2.53,3.56,3.56,0,0,1-2.54,1.06Z"/><path class="cls-4" d="M24.11,74.33A3.28,3.28,0,0,0,23,73.62a3.18,3.18,0,0,0-1.3-.26,3.15,3.15,0,0,0-1.3.26,3.3,3.3,0,0,0-1.79,1.78,3.4,3.4,0,0,0-.26,1.31,3.35,3.35,0,0,0,.26,1.3,3.26,3.26,0,0,0,.72,1.07,3.47,3.47,0,0,0,1.07.72,3.32,3.32,0,0,0,1.3.26A3.35,3.35,0,0,0,23,79.8a3.47,3.47,0,0,0,1.07-.72A3.6,3.6,0,0,0,24.83,78a3.35,3.35,0,0,0,.26-1.3,3.4,3.4,0,0,0-.26-1.31,3.6,3.6,0,0,0-.72-1.07"/><path class="cls-1" d="M45.43,44.23l-8.68-8.67L41.33,31l4.1,4.1L51,29.52h0a9.87,9.87,0,0,0-3.37-2.38,9.66,9.66,0,0,0-7.56,0A9.86,9.86,0,0,0,37,29.22a9.68,9.68,0,0,0-2.08,3.08,9.43,9.43,0,0,0-.77,3.78,9,9,0,0,0,.75,3.69A10.62,10.62,0,0,0,37,42.87a13.2,13.2,0,0,1,2.42,3.3,11.38,11.38,0,0,1,1.11,3.95h6.58a11.38,11.38,0,0,1,1.11-3.95,13,13,0,0,1,2.42-3.3,10.62,10.62,0,0,0,2.15-3.1,8.86,8.86,0,0,0,.75-3.67Z"/><path class="cls-3" d="M40.94,55.44c-.34.29-.23.54,0,.76s.47.32.76-.3H46c.29.62.54.51.76.3a2.37,2.37,0,0,1,.92-.76V52.05H40.94Z"/><polygon class="cls-4" points="56.55 26.93 52.28 31.2 45.43 38.05 41.33 33.95 39.81 35.47 45.43 41.09 53.18 33.33 58.07 28.45 56.55 26.93"/></g><g id="Text"><path class="cls-3" d="M68.24,47.83q0,5.33-4.79,5.32-4.59,0-4.59-5.12v-7.7h1.48V48q0,3.86,3.27,3.86t3.15-3.74V40.33h1.48Z"/><path class="cls-3" d="M78.66,52.93H77.22V47.8c0-1.91-.7-2.86-2.09-2.86a2.31,2.31,0,0,0-1.78.8,3,3,0,0,0-.72,2.06v5.13H71.19v-9h1.44v1.49h0a3.22,3.22,0,0,1,3-1.71,2.72,2.72,0,0,1,2.26,1,4.24,4.24,0,0,1,.78,2.74Z"/><path class="cls-3" d="M89,52.93H87.55V51.4h0a3.61,3.61,0,0,1-5.81.52,5,5,0,0,1-1-3.27,5.45,5.45,0,0,1,1.12-3.59,3.71,3.71,0,0,1,3-1.35,2.91,2.91,0,0,1,2.7,1.46h0V39.6H89Zm-1.44-4.07V47.53a2.49,2.49,0,0,0-.75-1.85,2.45,2.45,0,0,0-1.8-.74,2.51,2.51,0,0,0-2.07,1,4.18,4.18,0,0,0-.76,2.67A3.82,3.82,0,0,0,82.89,51a2.36,2.36,0,0,0,1.94.9,2.5,2.5,0,0,0,2-.86A3.21,3.21,0,0,0,87.55,48.86Z"/><path class="cls-3" d="M99.07,48.79H92.71a3.38,3.38,0,0,0,.81,2.32,2.79,2.79,0,0,0,2.13.81,4.41,4.41,0,0,0,2.79-1v1.35a5.16,5.16,0,0,1-3.13.87,3.8,3.8,0,0,1-3-1.24,5.09,5.09,0,0,1-1.08-3.45A5.42,5.42,0,0,1,91.76,46a4.09,4.09,0,0,1,1.49-1.71,3.8,3.8,0,0,1,2.11-.61,3.4,3.4,0,0,1,2.73,1.14,4.74,4.74,0,0,1,1,3.18Zm-1.48-1.22a3,3,0,0,0-.6-1.94,2,2,0,0,0-1.65-.69,2.3,2.3,0,0,0-1.71.72,3.33,3.33,0,0,0-.9,1.91Z"/><path class="cls-3" d="M105.87,45.39a1.76,1.76,0,0,0-1.1-.29,1.79,1.79,0,0,0-1.55.9,4.15,4.15,0,0,0-.6,2.34v4.59h-1.44v-9h1.44v1.85h0a3.16,3.16,0,0,1,.93-1.47,2.11,2.11,0,0,1,1.43-.54,2.38,2.38,0,0,1,.86.12Z"/><path class="cls-3" d="M112.48,50.52a2.34,2.34,0,0,1-.9,1.9,3.67,3.67,0,0,1-2.39.73A4.4,4.4,0,0,1,107,52.6V51.06a3.66,3.66,0,0,0,2.34.86q1.71,0,1.71-1.26a1.1,1.1,0,0,0-.33-.83,6.4,6.4,0,0,0-1.52-.86,4.52,4.52,0,0,1-1.69-1.1,2.5,2.5,0,0,1,.41-3.41,3.4,3.4,0,0,1,2.27-.75,4.37,4.37,0,0,1,1.93.42v1.45a3.37,3.37,0,0,0-2-.64,1.79,1.79,0,0,0-1.15.35,1.12,1.12,0,0,0-.43.91,1.23,1.23,0,0,0,.33.92,5.18,5.18,0,0,0,1.38.76A4.81,4.81,0,0,1,112,49,2.19,2.19,0,0,1,112.48,50.52Z"/><path class="cls-3" d="M118.77,52.84a2.83,2.83,0,0,1-1.36.29c-1.57,0-2.35-.88-2.35-2.65V45.15h-1.55V43.93h1.55v-2.2l1.44-.46v2.66h2.27v1.22H116.5v5.08a2.07,2.07,0,0,0,.31,1.29,1.24,1.24,0,0,0,1,.38,1.59,1.59,0,0,0,.94-.29Z"/><path class="cls-3" d="M127.06,52.93h-1.44V51.52h0a3.27,3.27,0,0,1-4.86.92,2.43,2.43,0,0,1-.78-1.9q0-2.52,3-2.94l2.7-.37c0-1.53-.62-2.29-1.85-2.29a4.46,4.46,0,0,0-2.94,1.1V44.56a4.31,4.31,0,0,1,1.35-.57,6.07,6.07,0,0,1,1.71-.28q3.17,0,3.17,3.37Zm-1.44-4.55-2.18.3a3.25,3.25,0,0,0-1.56.54,1.46,1.46,0,0,0-.45,1.2,1.35,1.35,0,0,0,.48,1.09,1.87,1.87,0,0,0,1.24.41,2.27,2.27,0,0,0,1.77-.76,2.65,2.65,0,0,0,.7-1.89Z"/><path class="cls-3" d="M137.25,52.93h-1.44V47.8c0-1.91-.7-2.86-2.09-2.86a2.29,2.29,0,0,0-1.78.8,3,3,0,0,0-.72,2.06v5.13h-1.44v-9h1.44v1.49h0a3.25,3.25,0,0,1,3-1.71,2.72,2.72,0,0,1,2.26,1,4.24,4.24,0,0,1,.78,2.74Z"/><path class="cls-3" d="M147.58,52.93h-1.45V51.4h0a3.61,3.61,0,0,1-5.81.52,5,5,0,0,1-1-3.27,5.45,5.45,0,0,1,1.12-3.59,3.71,3.71,0,0,1,3-1.35,2.91,2.91,0,0,1,2.7,1.46h0V39.6h1.45Zm-1.45-4.07V47.53a2.53,2.53,0,0,0-2.54-2.59,2.51,2.51,0,0,0-2.07,1,4.18,4.18,0,0,0-.76,2.67,3.82,3.82,0,0,0,.72,2.45,2.35,2.35,0,0,0,1.94.9,2.5,2.5,0,0,0,2-.86A3.2,3.2,0,0,0,146.13,48.86Z"/><path class="cls-3" d="M166,46.47a8,8,0,0,1-.73,3.53,5.37,5.37,0,0,1-2.11,2.33,6.06,6.06,0,0,1-3.17.82,6,6,0,0,1-3.08-.8,5.32,5.32,0,0,1-2.09-2.26,7.26,7.26,0,0,1-.74-3.31,7.86,7.86,0,0,1,.75-3.52,5.38,5.38,0,0,1,2.14-2.33,6.37,6.37,0,0,1,3.24-.82,5.76,5.76,0,0,1,3,.8,5.47,5.47,0,0,1,2.06,2.25A7.36,7.36,0,0,1,166,46.47Zm-1.55.19a5.81,5.81,0,0,0-1.15-3.84,3.93,3.93,0,0,0-3.21-1.38,4.16,4.16,0,0,0-2.31.66A4.29,4.29,0,0,0,156.16,44a6.31,6.31,0,0,0-.56,2.69,6.43,6.43,0,0,0,.54,2.69,4.22,4.22,0,0,0,1.54,1.83,4.52,4.52,0,0,0,5.56-.73A5.58,5.58,0,0,0,164.42,46.66Z"/><path class="cls-3" d="M172.7,40.87a1.89,1.89,0,0,0-.95-.24c-1,0-1.52.64-1.52,1.91v1.39h2.11v1.22h-2.11v7.78h-1.44V45.15h-1.53V43.93h1.53V42.47a3.06,3.06,0,0,1,.81-2.21,2.72,2.72,0,0,1,2.06-.85,2.67,2.67,0,0,1,1,.16Z"/><path class="cls-3" d="M178.34,40.87a1.9,1.9,0,0,0-1-.24c-1,0-1.51.64-1.51,1.91v1.39H178v1.22h-2.11v7.78h-1.44V45.15H172.9V43.93h1.53V42.47a3.09,3.09,0,0,1,.8-2.21,2.72,2.72,0,0,1,2.06-.85,2.76,2.76,0,0,1,1.05.16Z"/><path class="cls-3" d="M181.21,40.7a.9.9,0,0,1-.28.68,1,1,0,0,1-.67.26.93.93,0,0,1-.67-.26,1,1,0,0,1,0-1.33.88.88,0,0,1,.67-.28.92.92,0,0,1,1,.93ZM181,52.93h-1.45v-9H181Z"/><path class="cls-3" d="M190,52.52a4.7,4.7,0,0,1-2.47.63,4.31,4.31,0,0,1-2.21-.57,3.93,3.93,0,0,1-1.53-1.6,5.53,5.53,0,0,1,.74-5.92,4.45,4.45,0,0,1,3.4-1.35,4.53,4.53,0,0,1,2.09.46v1.47a3.7,3.7,0,0,0-2.15-.7,2.86,2.86,0,0,0-2.27,1,3.77,3.77,0,0,0-.88,2.58A3.54,3.54,0,0,0,185.5,51a2.88,2.88,0,0,0,2.23.92,3.67,3.67,0,0,0,2.22-.77Z"/><path class="cls-3" d="M199.29,48.79h-6.35a3.33,3.33,0,0,0,.8,2.32,2.79,2.79,0,0,0,2.13.81,4.41,4.41,0,0,0,2.79-1v1.35a5.16,5.16,0,0,1-3.13.87,3.81,3.81,0,0,1-3-1.24,5.09,5.09,0,0,1-1.08-3.45A5.42,5.42,0,0,1,192,46a4.09,4.09,0,0,1,1.49-1.71,3.8,3.8,0,0,1,2.11-.61,3.4,3.4,0,0,1,2.73,1.14,4.74,4.74,0,0,1,1,3.18Zm-1.48-1.22a3,3,0,0,0-.6-1.94,2,2,0,0,0-1.65-.69,2.32,2.32,0,0,0-1.71.72,3.45,3.45,0,0,0-.9,1.91Z"/><path class="cls-3" d="M212.58,49.36a3.45,3.45,0,0,1-1.22,2.75,4.82,4.82,0,0,1-3.21,1,5.23,5.23,0,0,1-2.87-.69V50.92a4.65,4.65,0,0,0,2.92,1,3.2,3.2,0,0,0,2.12-.66,2.17,2.17,0,0,0,.78-1.77c0-1.64-1.17-2.47-3.51-2.47h-1.05V45.8h1c2.08,0,3.12-.77,3.12-2.32s-.8-2.14-2.38-2.14a4.07,4.07,0,0,0-2.5.89V40.84a5.38,5.38,0,0,1,2.86-.73,3.7,3.7,0,0,1,2.53.84,2.72,2.72,0,0,1,1,2.17,3.07,3.07,0,0,1-2.51,3.2v0a3.5,3.5,0,0,1,2.15,1A2.77,2.77,0,0,1,212.58,49.36Z"/><path class="cls-3" d="M222.82,48.93a4.49,4.49,0,0,1-.52,2.17,3.68,3.68,0,0,1-1.41,1.51,3.94,3.94,0,0,1-2,.54,3.45,3.45,0,0,1-3-1.52,7.26,7.26,0,0,1-1.08-4.25,10.51,10.51,0,0,1,.64-3.82A5.69,5.69,0,0,1,217.26,41a4.26,4.26,0,0,1,2.69-.9,5,5,0,0,1,2.1.37v1.36a4.38,4.38,0,0,0-2.06-.5,3.11,3.11,0,0,0-2.68,1.49,7.1,7.1,0,0,0-1,4h0a3,3,0,0,1,2.88-1.78,3.36,3.36,0,0,1,2.61,1.06A4,4,0,0,1,222.82,48.93Zm-1.48.18A3.14,3.14,0,0,0,220.7,47a2.24,2.24,0,0,0-1.81-.76,2.39,2.39,0,0,0-1.78.74,2.47,2.47,0,0,0-.72,1.8,3.44,3.44,0,0,0,.72,2.22,2.24,2.24,0,0,0,1.81.89,2.2,2.2,0,0,0,1.75-.78A3,3,0,0,0,221.34,49.11Z"/><path class="cls-3" d="M232.06,49.08a3.82,3.82,0,0,1-1.22,3,4.6,4.6,0,0,1-3.25,1.12,5.09,5.09,0,0,1-2.61-.53V51.09a4.82,4.82,0,0,0,2.63.83,3,3,0,0,0,2.15-.75,2.56,2.56,0,0,0,.82-2,2.39,2.39,0,0,0-.83-1.93,3.6,3.6,0,0,0-2.4-.7,16.24,16.24,0,0,0-2.13.11l.43-6.32h5.83v1.3H226.9l-.26,3.7,1.16,0a4.54,4.54,0,0,1,3.11,1A3.48,3.48,0,0,1,232.06,49.08Z"/></g></svg>