<svg xmlns="http://www.w3.org/2000/svg" viewBox="0 0 400 140"><defs><style>.cls-1,.cls-8{fill:#2f2f2f;}.cls-1{stroke:#fff;}.cls-1,.cls-2,.cls-3,.cls-7{stroke-miterlimit:10;}.cls-1,.cls-2,.cls-3{stroke-width:2px;}.cls-2,.cls-3,.cls-7{fill:none;}.cls-2,.cls-3{stroke:#d8d8d8;}.cls-3{stroke-dasharray:7.9 7.9;}.cls-4{fill:#939393;}.cls-5{fill:#fff;}.cls-6{fill:#d63f27;}.cls-7{stroke:#c2c2c2;stroke-linecap:round;}.cls-9{fill:#d83b01;}.cls-10{fill:#c2c2c2;}</style></defs><title>o365roadmaplearn</title><g id="Road"><rect class="cls-1" x="8.32" y="110.82" width="379.33" height="20.5"/><line class="cls-2" x1="8.32" y1="105.32" x2="12.32" y2="105.32"/><line class="cls-3" x1="20.22" y1="105.32" x2="379.7" y2="105.32"/><line class="cls-2" x1="383.65" y1="105.32" x2="387.65" y2="105.32"/><line class="cls-2" x1="8.32" y1="136.82" x2="12.32" y2="136.82"/><line class="cls-3" x1="20.22" y1="136.82" x2="379.7" y2="136.82"/><line class="cls-2" x1="383.65" y1="136.82" x2="387.65" y2="136.82"/></g><g id="Layer_2" data-name="Layer 2"><path class="cls-4" d="M229.46,104.78a10.54,10.54,0,0,1-2.24-3.35,10.31,10.31,0,0,1-.79-4,10.21,10.21,0,0,1,1.42-5.21,10,10,0,0,1,1.6-2.09,10.46,10.46,0,0,1,2.1-1.62,10.29,10.29,0,0,1,2.46-1,10.42,10.42,0,0,1,2.75-.36,10.29,10.29,0,0,1,2.74.36,10.06,10.06,0,0,1,2.48,1,10.39,10.39,0,0,1,3.71,3.7,11,11,0,0,1,1,2.46,10.43,10.43,0,0,1-.41,6.71,10.52,10.52,0,0,1-2.25,3.34l-7.3,7.3Zm7.3-13.3a5.77,5.77,0,0,0-2.28.46,5.85,5.85,0,0,0-3.1,3.11,5.72,5.72,0,0,0,0,4.54,5.85,5.85,0,0,0,3.1,3.11,5.86,5.86,0,0,0,4.55,0,5.82,5.82,0,0,0,3.11-3.11,5.83,5.83,0,0,0,0-4.54A5.82,5.82,0,0,0,239,91.94,5.72,5.72,0,0,0,236.76,91.48Z"/><path class="cls-5" d="M236.76,87.54a9.89,9.89,0,0,1,5,1.35,10.19,10.19,0,0,1,2,1.56,10.51,10.51,0,0,1,1.56,2,10.66,10.66,0,0,1,1,2.38,9.56,9.56,0,0,1,.36,2.64,9.89,9.89,0,0,1-.76,3.81,9.71,9.71,0,0,1-2.16,3.22l-7,7L235,109.76l-2.4-2.4-2.85-2.85a10,10,0,0,1-2.15-3.23,9.67,9.67,0,0,1-.77-3.8,10,10,0,0,1,.36-2.64,10.24,10.24,0,0,1,1-2.38,10.07,10.07,0,0,1,1.55-2,10.48,10.48,0,0,1,2-1.56,9.89,9.89,0,0,1,5-1.35m0,16a6,6,0,0,0,2.42-.49,6.19,6.19,0,0,0,3.31-3.31,6.22,6.22,0,0,0,0-4.84,6.44,6.44,0,0,0-1.33-2,6.33,6.33,0,0,0-2-1.33,6,6,0,0,0-2.42-.49,6,6,0,0,0-2.43.49,6.52,6.52,0,0,0-2,1.33,6.44,6.44,0,0,0-1.33,2,6.11,6.11,0,0,0,0,4.84,6.33,6.33,0,0,0,1.33,2,6.52,6.52,0,0,0,2,1.33,6,6,0,0,0,2.43.49m0-16.76a10.63,10.63,0,0,0-2.84.37,10.77,10.77,0,0,0-4.73,2.76,10.34,10.34,0,0,0-1.68,2.17,11.44,11.44,0,0,0-1.08,2.55,11,11,0,0,0-.38,2.85,10.73,10.73,0,0,0,3.14,7.57L232,107.9l2.4,2.4,1.78,1.78.54.54.54-.54,7-7a10.62,10.62,0,0,0,3.14-7.57,10.92,10.92,0,0,0-.38-2.84,10.53,10.53,0,0,0-2.75-4.73,10.66,10.66,0,0,0-2.18-1.68,10.87,10.87,0,0,0-2.55-1.08,10.76,10.76,0,0,0-2.85-.37Zm0,16a5.32,5.32,0,0,1-2.12-.43,5.61,5.61,0,0,1-1.74-1.17,5.67,5.67,0,0,1-1.17-1.74,5.22,5.22,0,0,1-.43-2.12,5.14,5.14,0,0,1,.43-2.11,5.43,5.43,0,0,1,2.91-2.92,5.44,5.44,0,0,1,4.24,0,5.67,5.67,0,0,1,1.74,1.17,5.6,5.6,0,0,1,1.17,1.75,5.42,5.42,0,0,1,0,4.23,5.45,5.45,0,0,1-2.91,2.91,5.32,5.32,0,0,1-2.12.43Z"/><path class="cls-6" d="M239.9,94.17a4.44,4.44,0,0,0-1.41-1,4.57,4.57,0,0,0-3.46,0,4.48,4.48,0,0,0-1.42,1,4.6,4.6,0,0,0-1,1.42,4.45,4.45,0,0,0,0,3.46,4.6,4.6,0,0,0,1,1.42,4.48,4.48,0,0,0,1.42,1,4.45,4.45,0,0,0,3.46,0,4.44,4.44,0,0,0,1.41-1,4.62,4.62,0,0,0,1-1.42,4.57,4.57,0,0,0,0-3.46,4.62,4.62,0,0,0-1-1.42"/><polyline class="cls-7" points="236.76 79.82 233.62 60.72 117.84 60.72"/><g id="education_tutorial"><path class="cls-8" d="M141.45,40l-1.29-.65-12.42-6.21A13.92,13.92,0,0,0,127.3,35a18.94,18.94,0,0,0-.2,2.28q0,1.17,0,2.52L141.45,47l14.39-7.22V37.48a14.13,14.13,0,0,0-.46-3.61c-.07-.25-.17-.48-.24-.72l-12.39,6.19Z"/><path class="cls-9" d="M124,40.68a3.38,3.38,0,0,0-.69-.52,2.87,2.87,0,0,0-1.42-.38,2.83,2.83,0,0,0-1.41.38,3.43,3.43,0,0,0-.7.52,3,3,0,0,0-.89,2.15V52h6V42.83A3,3,0,0,0,124,40.68Z"/><path class="cls-10" d="M141.84,13.17l-24,12,3,1.5h0V41a3,3,0,0,1,3,0V28.17h0l4.92,2.46,13.08,6.54,13.08-6.54,10.92-5.46Z"/></g></g><g id="Text"><path class="cls-8" d="M186.63,51.08h-7.26v-14H181V49.59h5.62Z"/><path class="cls-8" d="M196.54,46.48h-7.06a3.67,3.67,0,0,0,.89,2.58,3.11,3.11,0,0,0,2.37.9,4.89,4.89,0,0,0,3.09-1.1v1.5a5.73,5.73,0,0,1-3.47,1A4.19,4.19,0,0,1,189,49.94a5.63,5.63,0,0,1-1.21-3.82,6.06,6.06,0,0,1,.61-2.71,4.58,4.58,0,0,1,1.65-1.9,4.26,4.26,0,0,1,2.34-.68,3.82,3.82,0,0,1,3,1.27,5.28,5.28,0,0,1,1.09,3.54Zm-1.64-1.36a3.36,3.36,0,0,0-.67-2.15,2.29,2.29,0,0,0-1.83-.77,2.6,2.6,0,0,0-1.91.8,3.77,3.77,0,0,0-1,2.12Z"/><path class="cls-8" d="M206,51.08h-1.6V49.52h0a3.64,3.64,0,0,1-5.39,1,2.72,2.72,0,0,1-.87-2.12q0-2.79,3.3-3.26l3-.42c0-1.69-.69-2.54-2.06-2.54A5,5,0,0,0,199,43.42V41.78a5,5,0,0,1,1.5-.64,7.12,7.12,0,0,1,1.89-.31q3.52,0,3.53,3.75ZM204.36,46l-2.42.34a3.67,3.67,0,0,0-1.74.59,1.68,1.68,0,0,0-.5,1.35,1.48,1.48,0,0,0,.54,1.2,2,2,0,0,0,1.37.46,2.56,2.56,0,0,0,2-.84,3,3,0,0,0,.78-2.1Z"/><path class="cls-8" d="M214.19,42.7a2.15,2.15,0,0,0-2.95.68,4.64,4.64,0,0,0-.66,2.6v5.1H209v-10h1.6v2.06h0a3.54,3.54,0,0,1,1-1.64,2.39,2.39,0,0,1,1.59-.6,2.63,2.63,0,0,1,1,.14Z"/><path class="cls-8" d="M224.2,51.08h-1.6v-5.7c0-2.12-.77-3.18-2.32-3.18a2.53,2.53,0,0,0-2,.9,3.29,3.29,0,0,0-.8,2.28v5.7h-1.6v-10h1.6v1.66h0a3.59,3.59,0,0,1,3.28-1.91,3,3,0,0,1,2.52,1.08A4.79,4.79,0,0,1,224.2,45Z"/></g></svg>