<svg xmlns="http://www.w3.org/2000/svg" viewBox="0 0 400 140"><defs><style>.cls-1{fill:#c2c2c2;}.cls-2{fill:#fff;}.cls-3{fill:#2f2f2f;}.cls-4{fill:none;stroke:#c2c2c2;stroke-linecap:round;stroke-miterlimit:10;}.cls-5{fill:#939393;}.cls-6{fill:#d83b01;}.cls-7{fill:#d63f27;}</style></defs><title>o365roadmapgethelp</title><g id="Road"><path class="cls-1" d="M0,81.41v1l0-1Zm13.83.72V83.2l11.08.68,0-1.12Zm24.91,1.4v1.2l11.07.67,0-1.24Zm24.92,1.4,0,1.26v.06l11.06.68,0-1.37Zm24.91,1.4,0,1.38v.06l11,.68,0-1.5Zm24.92,1.4,0,1.5v.07l11.05.67,0-1.62Zm37.37,2.1,0,1.68v.07l11,.68,0-1.81Zm24.91,1.4,0,1.81v.07l11,.67,0-1.93Zm24.92,1.4-.05,1.93v.07l11,.68V93.25Zm37.37,2.1L238,96.84v.08l11,.67V95.35ZM263,96.13l-.06,2.23v.08l11,.68V96.75Zm24.92,1.4-.08,2.35V100l11,.67V98.15Zm24.91,1.4-.08,2.47v.09l11,.67V99.54Zm24.91,1.4-.08,2.59V103l11,.68v-2.75Zm24.92,1.4-.09,2.71v.1l11,.67v-2.87Zm24.91,1.4-.09,2.84v.09l11,.67v-3Zm-12.45-.7-.1,2.78v.09l11,.67V103ZM350.17,101l-.09,2.65v.1l11,.67v-2.81Zm-24.91-1.4-.08,2.53v.09l11,.67v-2.68Zm-24.92-1.4-.07,2.41v.09l11,.67V98.84Zm-24.91-1.4-.07,2.29v.08l11,.68V97.45Zm-24.92-1.4-.06,2.17v.08l11,.67v-2.3ZM225.6,94l-.06,2v.08l11,.67V94.65Zm-12.46-.7,0,2v.07l11,.68V94Zm-24.91-1.4,0,1.87v.07l11,.67v-2Zm-24.92-1.4,0,1.75v.07l11,.67,0-1.87Zm-24.91-1.4,0,1.62v.07l11,.68,0-1.75Zm-12.46-.7,0,1.56v.07l11.05.68,0-1.69ZM101,87l0,1.44v.07l11.06.67,0-1.56Zm-24.92-1.4V87l11.06.68,0-1.44ZM51.2,84.23v1.26l11.06.68,0-1.31Zm-24.91-1.4V84l11.07.68,0-1.18ZM1.37,81.43v1l11.08.68,0-1.06Z"/><path class="cls-1" d="M1.43,102.74l-.07,1,11,1.41.1-1ZM26.2,105.8l-.08,1.08v.05l11,1.41.11-1.17ZM51,108.86l-.09,1.2v.06l11,1.41.11-1.3Zm24.76,3.06-.1,1.32v.05l11,1.42.13-1.43ZM100.49,115l-.12,1.43v.07l11,1.41.13-1.55ZM125.25,118l-.13,1.55v.07l11,1.42.14-1.68Zm12.39,1.53-.14,1.61v.07l11,1.42.13-1.75Zm24.76,3.06-.16,1.74v.07l11,1.41.14-1.87Zm24.77,3.06-.17,1.86v.07L198,129l.15-2Zm24.76,3.06-.18,2v.07l10.95,1.42.16-2.12Zm12.39,1.53-.2,2v.08l10.95,1.41.15-2.18Zm24.76,3.06-.21,2.16v.08L259.81,137l.16-2.3Zm24.77,3.06-.22,2.28v.08l9.55,1.24h1.4l.15-2.25Zm24.76,3.06-.05.54H303Zm-12.38-1.53L286,140h11l.05-.72Zm-24.77-3.06-.21,2.22v.08l10.94,1.42.17-2.37Zm-24.76-3.06-.2,2.1V134l10.95,1.41.16-2.24Zm-37.14-4.59-.18,1.92,0,.07,11,1.42.15-2.06Zm-24.77-3.06-.17,1.8V126l11,1.41.15-1.93ZM150,121.1l-.15,1.67v.07l11,1.42.14-1.81Zm-37.14-4.59-.13,1.49v.07l11,1.41.13-1.61Zm-24.77-3.06L88,114.82v.06l11,1.42.13-1.49Zm-24.76-3.06-.11,1.25v.06l11,1.42.12-1.36Zm-24.77-3.06-.09,1.13v.06l11,1.41.11-1.23Zm-24.77-3.06-.06,1,0,0,11,1.41.11-1.11Z"/><path class="cls-2" d="M.06,82.36H0l1.37.08h0Z"/><polygon points="400 108.83 400 140 316.43 140 0 101.56 0 83.27 400 108.83"/><path class="cls-3" d="M33.78,95.58l-3,9.72L0,101.57l2.45-8.9L0,83.27l30.89,2Z"/><path class="cls-3" d="M73.5,99.26,69.67,110l-37.58-4.57,3.06-9.76-2.9-10.36,37.81,2.42Z"/><path class="cls-3" d="M123.28,103.88l-5,12.05-47-5.71,3.88-10.8L71.68,87.86l47.36,3Z"/><path class="cls-3" d="M187.52,109.85l-6.69,13.68-60.49-7.35,5.06-12.1-4.3-13,61,3.91Z"/><path class="cls-3" d="M273.65,117.84l-9.37,15.83-80.75-9.81,6.81-13.75-5.47-15,81.66,5.23Z"/><path d="M400,108.83l-129.78-8.24,7.25,17.61-9.55,15.91,48.5,5.89H400"/></g><g id="Pins"><polyline class="cls-4" points="231.18 74.24 225.64 64.58 110.67 64.58"/><path class="cls-5" d="M226.2,96.1a12.3,12.3,0,0,1-2.67-4,12.12,12.12,0,0,1-.95-4.71A12.53,12.53,0,0,1,223,84.1a12.43,12.43,0,0,1,3.17-5.44,12.53,12.53,0,0,1,2.51-1.94,12.52,12.52,0,0,1,9.5-1.24,12.43,12.43,0,0,1,5.45,3.18,12.67,12.67,0,0,1,1.93,2.49,13,13,0,0,1,1.24,2.94,12.66,12.66,0,0,1,.44,3.29,12.31,12.31,0,0,1-3.62,8.72l-8.72,8.72Zm8.72-15.26a6.09,6.09,0,0,0-2.47.5,6.51,6.51,0,0,0-2,1.37,6.42,6.42,0,0,0-1.36,2,6.19,6.19,0,0,0,0,4.92,6.35,6.35,0,0,0,1.36,2,6.68,6.68,0,0,0,2,1.37,6.45,6.45,0,0,0,4.93,0,6.66,6.66,0,0,0,2-1.37,6.35,6.35,0,0,0,1.36-2,6.15,6.15,0,0,0,.5-2.46,6.22,6.22,0,0,0-.5-2.46,6.42,6.42,0,0,0-1.36-2,6.55,6.55,0,0,0-2-1.37A6.08,6.08,0,0,0,234.92,80.84Z"/><path class="cls-2" d="M234.92,75.89a11.5,11.5,0,0,1,8.14,3.36,11.69,11.69,0,0,1,1.8,2.33A12.3,12.3,0,0,1,246,84.32a11.44,11.44,0,0,1-3,11.18l-8.13,8.13-2.06-2.06-2.77-2.77-3.3-3.3a11.51,11.51,0,0,1-2.49-3.73,11.48,11.48,0,0,1-.47-7.45A11.88,11.88,0,0,1,225,81.58a11.29,11.29,0,0,1,1.79-2.33,12,12,0,0,1,2.34-1.8,11.31,11.31,0,0,1,5.8-1.56m0,18.49a7,7,0,0,0,2.8-.56A7.37,7.37,0,0,0,240,92.27,7.22,7.22,0,0,0,241.54,90a7.16,7.16,0,0,0,0-5.6,7.23,7.23,0,0,0-3.82-3.82,7.19,7.19,0,0,0-5.61,0,7.26,7.26,0,0,0-3.81,3.82,7,7,0,0,0,0,5.6,7.22,7.22,0,0,0,1.54,2.28,7.32,7.32,0,0,0,2.27,1.55,7,7,0,0,0,2.81.56m0-20.18a13.14,13.14,0,0,0-3.5.47A12.48,12.48,0,0,0,228.26,76a12.92,12.92,0,0,0-4.72,4.72,13.11,13.11,0,0,0-1.33,3.13,13.62,13.62,0,0,0-.47,3.52,13.23,13.23,0,0,0,3.86,9.31l3.3,3.3,2.77,2.77,2.06,2.06,1.19,1.19,1.19-1.19,8.13-8.13a13.18,13.18,0,0,0,3.39-12.81,13.07,13.07,0,0,0-3.38-5.82A13,13,0,0,0,241.56,76a12.81,12.81,0,0,0-3.13-1.32,13.26,13.26,0,0,0-3.51-.47Zm0,18.5a5.21,5.21,0,0,1-2.14-.43A5.54,5.54,0,0,1,231,91.08a5.69,5.69,0,0,1-1.19-1.76,5.35,5.35,0,0,1,0-4.25A5.62,5.62,0,0,1,231,83.3a5.54,5.54,0,0,1,1.75-1.19,5.21,5.21,0,0,1,2.14-.42,5.36,5.36,0,0,1,2.13.42,5.69,5.69,0,0,1,1.76,1.19A5.62,5.62,0,0,1,240,85.07a5.35,5.35,0,0,1,.43,2.12,5.53,5.53,0,0,1-.43,2.14,5.77,5.77,0,0,1-1.19,1.75,5.37,5.37,0,0,1-1.76,1.19,5.2,5.2,0,0,1-2.13.43Z"/><path class="cls-6" d="M238.55,83.56a4.94,4.94,0,0,0-1.63-1.1,5,5,0,0,0-2-.41,5.2,5.2,0,0,0-3.64,1.51,5.1,5.1,0,0,0-1.1,1.63,5,5,0,0,0-.4,2,5,5,0,0,0,.4,2,5.14,5.14,0,0,0,1.1,1.64,5.31,5.31,0,0,0,1.64,1.1,5,5,0,0,0,2,.4,5,5,0,0,0,2-.4,5.26,5.26,0,0,0,1.63-1.1,5.14,5.14,0,0,0,0-7.27"/><path class="cls-1" d="M205,54.23a4.37,4.37,0,1,0-4.38-4.38A4.38,4.38,0,0,0,205,54.23Z"/><path class="cls-1" d="M205,54.94a6.57,6.57,0,0,0-6.57,6.57h13.14A6.57,6.57,0,0,0,205,54.94Z"/><path class="cls-1" d="M191.11,62.21h5.15v0a8.69,8.69,0,0,1,1-4,4.38,4.38,0,0,0-6.12,4Z"/><path class="cls-1" d="M195.64,49.87a3.27,3.27,0,0,0-2.1,5.79,3.22,3.22,0,0,0,1.91.76l.19,0,.19,0a3.28,3.28,0,0,0-.19-6.55Z"/><polygon class="cls-3" points="194.86 35.7 206.72 35.7 206.72 44.07 198.84 44.07 196.25 46.89 196.25 44.07 194.86 44.07 194.86 35.7"/><polygon class="cls-7" points="208.81 32.21 226.25 32.21 226.25 44.07 214.79 44.07 210.91 48.07 210.91 44.07 208.81 44.07 208.81 32.21"/></g><g id="Text"><path class="cls-3" d="M125.11,59.71a8.27,8.27,0,0,1-4.22,1.09,6.2,6.2,0,0,1-3.15-.8,5.47,5.47,0,0,1-2.13-2.26,7.13,7.13,0,0,1-.75-3.3,6.62,6.62,0,0,1,1.84-4.79,6.26,6.26,0,0,1,4.7-1.89,8,8,0,0,1,3.46.67v1.63a6.61,6.61,0,0,0-3.63-1,4.74,4.74,0,0,0-2.48.66A4.61,4.61,0,0,0,117,51.63a5.9,5.9,0,0,0-.62,2.7,5.36,5.36,0,0,0,1.25,3.75,4.4,4.4,0,0,0,3.42,1.38,5.17,5.17,0,0,0,2.55-.6V55.34h-2.76V54h4.24Z"/><path class="cls-3" d="M135,56.44h-6.36a3.35,3.35,0,0,0,.81,2.32,2.79,2.79,0,0,0,2.13.81,4.36,4.36,0,0,0,2.78-1v1.35a5.11,5.11,0,0,1-3.12.87,3.77,3.77,0,0,1-3-1.25,5.07,5.07,0,0,1-1.08-3.44,5.49,5.49,0,0,1,.54-2.44A4.22,4.22,0,0,1,129.19,52a3.85,3.85,0,0,1,2.11-.6A3.45,3.45,0,0,1,134,52.49a4.77,4.77,0,0,1,1,3.19Zm-1.48-1.23a3,3,0,0,0-.6-1.93,2,2,0,0,0-1.65-.69,2.3,2.3,0,0,0-1.71.72,3.3,3.3,0,0,0-.9,1.9Z"/><path class="cls-3" d="M141.29,60.49a2.79,2.79,0,0,1-1.35.29c-1.57,0-2.36-.89-2.36-2.66V52.8H136V51.58h1.54v-2.2l1.44-.47v2.67h2.27V52.8H139v5.08a2.14,2.14,0,0,0,.31,1.29,1.27,1.27,0,0,0,1,.38,1.54,1.54,0,0,0,.93-.29Z"/><path class="cls-3" d="M157.08,60.58H155.6V54.84h-6.52v5.74H147.6V48h1.48V53.5h6.52V48h1.48Z"/><path class="cls-3" d="M167.35,56.44H161a3.35,3.35,0,0,0,.8,2.32,2.79,2.79,0,0,0,2.13.81,4.41,4.41,0,0,0,2.79-1v1.35a5.16,5.16,0,0,1-3.13.87,3.79,3.79,0,0,1-3-1.25,5.07,5.07,0,0,1-1.08-3.44,5.49,5.49,0,0,1,.54-2.44A4.22,4.22,0,0,1,161.53,52a3.9,3.9,0,0,1,2.11-.6,3.42,3.42,0,0,1,2.73,1.13,4.77,4.77,0,0,1,1,3.19Zm-1.48-1.23a3,3,0,0,0-.6-1.93,2,2,0,0,0-1.65-.69,2.34,2.34,0,0,0-1.71.72,3.42,3.42,0,0,0-.9,1.9Z"/><path class="cls-3" d="M170.9,60.58h-1.44V47.25h1.44Z"/><path class="cls-3" d="M182.1,55.8A5.5,5.5,0,0,1,181,59.44a3.68,3.68,0,0,1-3,1.36,3,3,0,0,1-2.69-1.52h0v5.44h-1.44V51.58h1.44v1.58h0a3.4,3.4,0,0,1,3.11-1.8,3.33,3.33,0,0,1,2.69,1.19A4.9,4.9,0,0,1,182.1,55.8Zm-1.48,0a3.69,3.69,0,0,0-.68-2.33,2.28,2.28,0,0,0-1.89-.87,2.57,2.57,0,0,0-2,.86,3.17,3.17,0,0,0-.77,2.2V56.9a2.63,2.63,0,0,0,.74,1.9,2.48,2.48,0,0,0,1.84.77,2.41,2.41,0,0,0,2-1A4.51,4.51,0,0,0,180.62,55.79Z"/></g></svg>