<svg xmlns="http://www.w3.org/2000/svg" viewBox="0 0 400 140"><defs><style>.cls-1,.cls-8{fill:#2f2f2f;}.cls-1{stroke:#fff;}.cls-1,.cls-10,.cls-2,.cls-3{stroke-miterlimit:10;}.cls-1,.cls-2,.cls-3{stroke-width:2px;}.cls-10,.cls-2,.cls-3{fill:none;}.cls-2,.cls-3{stroke:#d8d8d8;}.cls-3{stroke-dasharray:7.9 7.9;}.cls-4{fill:#c2c2c2;}.cls-5{fill:#d63f27;}.cls-6{fill:#939393;}.cls-7{fill:#fff;}.cls-9{fill:#d83b01;}.cls-10{stroke:#c2c2c2;stroke-linecap:round;}</style></defs><title>o365roadmapunderstandoffice365</title><g id="Road"><rect class="cls-1" x="13.15" y="109.04" width="379.33" height="20.5"/><line class="cls-2" x1="13.15" y1="103.54" x2="17.15" y2="103.54"/><line class="cls-3" x1="25.05" y1="103.54" x2="384.53" y2="103.54"/><line class="cls-2" x1="388.48" y1="103.54" x2="392.48" y2="103.54"/><line class="cls-2" x1="13.15" y1="135.04" x2="17.15" y2="135.04"/><line class="cls-3" x1="25.05" y1="135.04" x2="384.53" y2="135.04"/><line class="cls-2" x1="388.48" y1="135.04" x2="392.48" y2="135.04"/></g><g id="Layer_2" data-name="Layer 2"><rect class="cls-4" x="23.81" y="88.72" width="2.37" height="17.78"/><rect class="cls-4" x="23.81" y="74.5" width="2.37" height="2.37"/><polygon class="cls-5" points="36.85 82.8 32.1 88.72 13.15 88.72 13.15 76.87 32.1 76.87 36.85 82.8"/><path class="cls-6" d="M59.51,104.78a10.37,10.37,0,0,1-2.24-3.35,10.31,10.31,0,0,1,.62-9.16,10.41,10.41,0,0,1,1.61-2.09,10.38,10.38,0,0,1,4.56-2.66,10.65,10.65,0,0,1,5.49,0,9.83,9.83,0,0,1,2.47,1,10.11,10.11,0,0,1,2.1,1.61,10.3,10.3,0,0,1,1.61,2.09,10.58,10.58,0,0,1,1,2.46,10.72,10.72,0,0,1,.37,2.75,10.3,10.3,0,0,1-3,7.3l-7.3,7.3Zm7.3-13.3a5.73,5.73,0,0,0-2.28.46,6,6,0,0,0-1.85,1.25,6.14,6.14,0,0,0-1.25,1.86,5.72,5.72,0,0,0,0,4.54,6.14,6.14,0,0,0,1.25,1.86,6,6,0,0,0,1.85,1.25,5.86,5.86,0,0,0,4.55,0,5.91,5.91,0,0,0,3.11-3.11,5.83,5.83,0,0,0,0-4.54,5.91,5.91,0,0,0-3.11-3.11A5.72,5.72,0,0,0,66.81,91.48Z"/><path class="cls-7" d="M66.81,87.54a10,10,0,0,1,2.64.35,9.89,9.89,0,0,1,2.38,1,10.19,10.19,0,0,1,2,1.56,10.07,10.07,0,0,1,1.55,2,10.24,10.24,0,0,1,1,2.38,9.91,9.91,0,0,1-2.56,9.67l-7,7L65,109.76l-2.4-2.4-2.85-2.85a10,10,0,0,1-2.92-7,9.56,9.56,0,0,1,.36-2.64,9.83,9.83,0,0,1,1-2.38,9.72,9.72,0,0,1,1.55-2,10.19,10.19,0,0,1,2-1.56,9.89,9.89,0,0,1,5-1.35m0,16a6,6,0,0,0,2.42-.49,6.28,6.28,0,0,0,2-1.33,6.35,6.35,0,0,0,1.34-2,6.22,6.22,0,0,0,0-4.84,6.47,6.47,0,0,0-1.34-2,6.28,6.28,0,0,0-2-1.33,6.25,6.25,0,0,0-4.85,0,6.28,6.28,0,0,0-2,1.33,6.44,6.44,0,0,0-1.33,2,6.11,6.11,0,0,0,0,4.84,6.22,6.22,0,0,0,3.3,3.31,6,6,0,0,0,2.43.49m0-16.76a10.76,10.76,0,0,0-2.85.37,10.92,10.92,0,0,0-4.73,2.76,10.29,10.29,0,0,0-1.67,2.17,11,11,0,0,0-1.08,2.55,10.75,10.75,0,0,0,.44,7,10.79,10.79,0,0,0,2.32,3.47l2.85,2.85,2.4,2.4,1.78,1.78.54.54.54-.54,7-7a10.73,10.73,0,0,0,3.14-7.57,10.92,10.92,0,0,0-.38-2.84,10.53,10.53,0,0,0-2.75-4.73,10.94,10.94,0,0,0-2.18-1.68,11.05,11.05,0,0,0-2.55-1.08,10.76,10.76,0,0,0-2.85-.37Zm0,16a5.37,5.37,0,0,1-2.13-.43A5.57,5.57,0,0,1,63,101.18a5.67,5.67,0,0,1-1.17-1.74,5.23,5.23,0,0,1-.44-2.12,5.14,5.14,0,0,1,.44-2.11,5.45,5.45,0,0,1,2.9-2.92,5.37,5.37,0,0,1,2.13-.43,5.31,5.31,0,0,1,2.11.43,5.55,5.55,0,0,1,1.74,1.17,5.62,5.62,0,0,1,1.18,1.75,5.42,5.42,0,0,1,0,4.23,5.69,5.69,0,0,1-1.18,1.74,5.55,5.55,0,0,1-1.74,1.17,5.31,5.31,0,0,1-2.11.43Z"/><path class="cls-5" d="M70,94.17a4.46,4.46,0,0,0-6.29,0,4.6,4.6,0,0,0-.95,1.42,4.45,4.45,0,0,0,0,3.46,4.6,4.6,0,0,0,.95,1.42,4.46,4.46,0,0,0,6.29,0,4.6,4.6,0,0,0,1-1.42,4.45,4.45,0,0,0,0-3.46,4.6,4.6,0,0,0-1-1.42"/><g id="SYMBOLS"><g id="light_bulb_idea_capture" data-name="light bulb idea capture"><path class="cls-4" d="M81.3,43,67.47,29.22,74.73,22l6.57,6.51,8.82-8.82-.51-.51a15.73,15.73,0,0,0-4.9-3.28,15.36,15.36,0,0,0-12,0,15.33,15.33,0,0,0-8.19,8.2,14.94,14.94,0,0,0-1.22,6,14.13,14.13,0,0,0,1.19,5.84,16.61,16.61,0,0,0,3.42,4.92,20.51,20.51,0,0,1,3.82,5.23,17.82,17.82,0,0,1,1.77,6.27H84a17.82,17.82,0,0,1,1.77-6.27,20.31,20.31,0,0,1,3.83-5.23A16.61,16.61,0,0,0,93,35.9a14.39,14.39,0,0,0,1.18-5.82Z"/><path class="cls-8" d="M73.58,60.89a1.59,1.59,0,0,0,.51,1.19,1.56,1.56,0,0,0,1.21.56h6.86a1.61,1.61,0,0,0,1.2-.51,1.65,1.65,0,0,0,.51-1.2V55.74H73.58Z"/><polygon class="cls-9" points="98.87 15.68 92.1 22.45 81.23 33.31 74.73 26.8 72.32 29.22 81.23 38.13 93.53 25.83 101.28 18.09 98.87 15.68"/></g></g><polyline class="cls-10" points="67.32 82.56 73.51 69.58 301.61 69.58"/></g><g id="Text"><path class="cls-8" d="M113.36,50q0,5.91-5.32,5.91-5.1,0-5.1-5.69V41.65h1.64v8.47c0,2.86,1.22,4.29,3.64,4.29s3.5-1.38,3.5-4.16v-8.6h1.64Z"/><path class="cls-8" d="M124.94,55.65h-1.6V50c0-2.12-.77-3.17-2.32-3.17a2.53,2.53,0,0,0-2,.89,3.32,3.32,0,0,0-.8,2.28v5.7h-1.6v-10h1.6v1.66h0a3.6,3.6,0,0,1,3.28-1.9,3.07,3.07,0,0,1,2.52,1.07,4.81,4.81,0,0,1,.86,3.05Z"/><path class="cls-8" d="M136.42,55.65h-1.6V54h0a3.7,3.7,0,0,1-3.44,1.95,3.74,3.74,0,0,1-3-1.36,5.54,5.54,0,0,1-1.12-3.64,6.06,6.06,0,0,1,1.24-4,4.13,4.13,0,0,1,3.34-1.5,3.22,3.22,0,0,1,3,1.62h0V40.85h1.6Zm-1.6-4.52V49.66A2.77,2.77,0,0,0,134,47.6a2.93,2.93,0,0,0-4.3.25,4.61,4.61,0,0,0-.85,3,4.26,4.26,0,0,0,.8,2.72,2.6,2.6,0,0,0,2.16,1,2.77,2.77,0,0,0,2.17-1A3.55,3.55,0,0,0,134.82,51.13Z"/><path class="cls-8" d="M147.62,51.05h-7.06a3.71,3.71,0,0,0,.89,2.59,3.14,3.14,0,0,0,2.37.89,4.93,4.93,0,0,0,3.1-1.09v1.49a5.72,5.72,0,0,1-3.48,1,4.19,4.19,0,0,1-3.34-1.38,5.67,5.67,0,0,1-1.2-3.83,6.09,6.09,0,0,1,.6-2.71,4.65,4.65,0,0,1,1.65-1.9,4.29,4.29,0,0,1,2.35-.67,3.8,3.8,0,0,1,3,1.26,5.26,5.26,0,0,1,1.09,3.54ZM146,49.7a3.37,3.37,0,0,0-.67-2.16,2.26,2.26,0,0,0-1.83-.76,2.58,2.58,0,0,0-1.91.8,3.72,3.72,0,0,0-1,2.12Z"/><path class="cls-8" d="M155.18,47.27A2.06,2.06,0,0,0,154,47a2,2,0,0,0-1.73,1,4.68,4.68,0,0,0-.67,2.61v5.09H150v-10h1.6v2.06h0a3.52,3.52,0,0,1,1-1.63,2.35,2.35,0,0,1,1.59-.6,2.66,2.66,0,0,1,1,.13Z"/><path class="cls-8" d="M162.52,53a2.59,2.59,0,0,1-1,2.11,4.1,4.1,0,0,1-2.66.81,4.88,4.88,0,0,1-2.48-.61V53.57a4,4,0,0,0,2.6,1c1.27,0,1.9-.46,1.9-1.4a1.22,1.22,0,0,0-.37-.92,6.93,6.93,0,0,0-1.69-1A5,5,0,0,1,156.94,50a2.8,2.8,0,0,1,.45-3.79,3.85,3.85,0,0,1,2.53-.83,4.84,4.84,0,0,1,2.14.47v1.61a3.69,3.69,0,0,0-2.26-.71,2,2,0,0,0-1.28.39,1.23,1.23,0,0,0-.48,1,1.32,1.32,0,0,0,.37,1,5.64,5.64,0,0,0,1.53.85,5.46,5.46,0,0,1,2,1.27A2.43,2.43,0,0,1,162.52,53Z"/><path class="cls-8" d="M169.5,55.56a3.09,3.09,0,0,1-1.5.32c-1.75,0-2.62-1-2.62-3V47h-1.72V45.65h1.72V43.21l1.6-.52v3h2.52V47H167v5.65a2.31,2.31,0,0,0,.35,1.43,1.37,1.37,0,0,0,1.14.42,1.71,1.71,0,0,0,1-.32Z"/><path class="cls-8" d="M178.72,55.65h-1.6V54.09h0A3.34,3.34,0,0,1,174,55.9a3.3,3.3,0,0,1-2.32-.79,2.7,2.7,0,0,1-.87-2.11q0-2.79,3.3-3.26l3-.42c0-1.7-.69-2.54-2.06-2.54A4.92,4.92,0,0,0,171.8,48V46.36a4.73,4.73,0,0,1,1.5-.64,6.75,6.75,0,0,1,1.9-.31q3.53,0,3.52,3.74Zm-1.6-5-2.42.34a3.46,3.46,0,0,0-1.74.59,1.64,1.64,0,0,0-.5,1.34,1.52,1.52,0,0,0,.54,1.21,2.08,2.08,0,0,0,1.38.45,2.54,2.54,0,0,0,2-.84,3,3,0,0,0,.78-2.1Z"/><path class="cls-8" d="M190,55.65h-1.6V50c0-2.12-.78-3.17-2.33-3.17a2.52,2.52,0,0,0-2,.89,3.32,3.32,0,0,0-.8,2.28v5.7h-1.6v-10h1.6v1.66h0a3.59,3.59,0,0,1,3.28-1.9,3.07,3.07,0,0,1,2.52,1.07,4.81,4.81,0,0,1,.86,3.05Z"/><path class="cls-8" d="M201.52,55.65h-1.61V54h0a3.68,3.68,0,0,1-3.43,1.95,3.73,3.73,0,0,1-3-1.36,5.54,5.54,0,0,1-1.12-3.64,6.06,6.06,0,0,1,1.24-4,4.11,4.11,0,0,1,3.34-1.5,3.21,3.21,0,0,1,3,1.62h0V40.85h1.61Zm-1.61-4.52V49.66a2.77,2.77,0,0,0-.82-2.06,2.93,2.93,0,0,0-4.3.25,4.61,4.61,0,0,0-.85,3,4.2,4.2,0,0,0,.8,2.72,2.6,2.6,0,0,0,2.16,1,2.75,2.75,0,0,0,2.16-1A3.51,3.51,0,0,0,199.91,51.13Z"/><path class="cls-8" d="M222,48.48a9,9,0,0,1-.81,3.92A6,6,0,0,1,218.8,55a6.75,6.75,0,0,1-3.53.91,6.61,6.61,0,0,1-3.42-.89,5.94,5.94,0,0,1-2.32-2.51,8.13,8.13,0,0,1-.82-3.68,8.82,8.82,0,0,1,.83-3.91,6,6,0,0,1,2.39-2.59,7,7,0,0,1,3.59-.9,6.36,6.36,0,0,1,3.34.88,6,6,0,0,1,2.29,2.5A8.09,8.09,0,0,1,222,48.48Zm-1.71.21A6.51,6.51,0,0,0,219,44.42a4.4,4.4,0,0,0-3.57-1.53,4.64,4.64,0,0,0-2.57.73,4.69,4.69,0,0,0-1.76,2.06,7,7,0,0,0-.63,3,7.09,7.09,0,0,0,.6,3,4.5,4.5,0,0,0,4.24,2.75,4.56,4.56,0,0,0,3.65-1.52A6.22,6.22,0,0,0,220.24,48.69Z"/><path class="cls-8" d="M229.44,42.26a2.13,2.13,0,0,0-1.07-.27c-1.12,0-1.68.71-1.68,2.12v1.54H229V47h-2.34v8.64h-1.6V47h-1.7V45.65h1.7V44a3.42,3.42,0,0,1,.9-2.46,3,3,0,0,1,2.28-.94,3.12,3.12,0,0,1,1.17.18Z"/><path class="cls-8" d="M235.69,42.26a2.06,2.06,0,0,0-1.06-.27c-1.12,0-1.68.71-1.68,2.12v1.54h2.34V47H233v8.64h-1.6V47h-1.7V45.65h1.7V44a3.42,3.42,0,0,1,.9-2.46,3.4,3.4,0,0,1,3.44-.76Z"/><path class="cls-8" d="M238.89,42.07a1,1,0,0,1-.31.75,1.12,1.12,0,0,1-1.49,0,1.07,1.07,0,0,1,0-1.49,1,1,0,0,1,.74-.31,1.07,1.07,0,0,1,.76.31A1,1,0,0,1,238.89,42.07Zm-.28,13.58H237v-10h1.6Z"/><path class="cls-8" d="M248.6,55.19a5.21,5.21,0,0,1-2.75.71,4.78,4.78,0,0,1-2.45-.63,4.35,4.35,0,0,1-1.7-1.78,6.15,6.15,0,0,1,.82-6.58,4.94,4.94,0,0,1,3.78-1.5,5,5,0,0,1,2.31.51v1.64a4.08,4.08,0,0,0-2.38-.78,3.2,3.2,0,0,0-2.52,1.11,4.15,4.15,0,0,0-1,2.86,4,4,0,0,0,.92,2.77,3.19,3.19,0,0,0,2.47,1,4.07,4.07,0,0,0,2.47-.86Z"/><path class="cls-8" d="M259,51.05h-7.06a3.71,3.71,0,0,0,.89,2.59,3.14,3.14,0,0,0,2.37.89,4.88,4.88,0,0,0,3.09-1.09v1.49a5.67,5.67,0,0,1-3.47,1,4.19,4.19,0,0,1-3.34-1.38,5.67,5.67,0,0,1-1.2-3.83,6.09,6.09,0,0,1,.6-2.71,4.65,4.65,0,0,1,1.65-1.9,4.26,4.26,0,0,1,2.34-.67,3.81,3.81,0,0,1,3,1.26A5.31,5.31,0,0,1,259,50.21Zm-1.64-1.35a3.37,3.37,0,0,0-.67-2.16,2.29,2.29,0,0,0-1.83-.76,2.56,2.56,0,0,0-1.91.8,3.66,3.66,0,0,0-1,2.12Z"/><path class="cls-8" d="M273.74,51.69a3.8,3.8,0,0,1-1.36,3.05,5.3,5.3,0,0,1-3.56,1.16,5.87,5.87,0,0,1-3.18-.76V53.42a5.09,5.09,0,0,0,3.24,1.11,3.55,3.55,0,0,0,2.35-.73,2.42,2.42,0,0,0,.87-2q0-2.75-3.91-2.75H267V47.73h1.11q3.45,0,3.45-2.57c0-1.59-.88-2.39-2.63-2.39a4.48,4.48,0,0,0-2.79,1V42.22a6.07,6.07,0,0,1,3.19-.8,4.09,4.09,0,0,1,2.8.92,3,3,0,0,1,1.07,2.42,3.42,3.42,0,0,1-2.79,3.55v0a3.87,3.87,0,0,1,2.39,1.07A3.07,3.07,0,0,1,273.74,51.69Z"/><path class="cls-8" d="M285.12,51.21a5.07,5.07,0,0,1-.57,2.41A4.07,4.07,0,0,1,283,55.3a4.32,4.32,0,0,1-2.26.6,3.83,3.83,0,0,1-3.29-1.69,8.06,8.06,0,0,1-1.2-4.72,11.81,11.81,0,0,1,.71-4.24,6.32,6.32,0,0,1,2-2.84,4.79,4.79,0,0,1,3-1,5.62,5.62,0,0,1,2.32.4v1.51a5,5,0,0,0-2.29-.56,3.44,3.44,0,0,0-3,1.67,7.81,7.81,0,0,0-1.12,4.44h0a3.3,3.3,0,0,1,3.19-2A3.75,3.75,0,0,1,284,48.08,4.44,4.44,0,0,1,285.12,51.21Zm-1.64.21a3.48,3.48,0,0,0-.72-2.32,2.48,2.48,0,0,0-2-.85,2.64,2.64,0,0,0-2,.83,2.76,2.76,0,0,0-.8,2,3.82,3.82,0,0,0,.8,2.47,2.57,2.57,0,0,0,4,.13A3.32,3.32,0,0,0,283.48,51.42Z"/><path class="cls-8" d="M295.38,51.38A4.25,4.25,0,0,1,294,54.66a5.15,5.15,0,0,1-3.61,1.24,5.64,5.64,0,0,1-2.9-.59v-1.7a5.34,5.34,0,0,0,2.92.92,3.41,3.41,0,0,0,2.39-.83,2.84,2.84,0,0,0,.91-2.23,2.63,2.63,0,0,0-.92-2.14,4,4,0,0,0-2.66-.78,20.12,20.12,0,0,0-2.38.12l.48-7h6.48V43.1h-5.09l-.28,4.11,1.29-.05a5.1,5.1,0,0,1,3.45,1.1A3.91,3.91,0,0,1,295.38,51.38Z"/></g></svg>