<svg xmlns="http://www.w3.org/2000/svg" viewBox="0 0 400 140"><defs><style>.cls-1,.cls-12{fill:#2f2f2f;}.cls-1{stroke:#fff;}.cls-1,.cls-2,.cls-3,.cls-7{stroke-miterlimit:10;}.cls-1,.cls-2,.cls-3{stroke-width:2px;}.cls-2,.cls-3,.cls-7,.cls-8{fill:none;}.cls-2,.cls-3{stroke:#d8d8d8;}.cls-3{stroke-dasharray:7.9 7.9;}.cls-4{fill:#939393;}.cls-5{fill:#fff;}.cls-6{fill:#d63f27;}.cls-7{stroke:#c2c2c2;stroke-linecap:round;}.cls-9{fill:#c2c2c2;}.cls-10{fill:#d2d2d2;}.cls-11{fill:#d83b01;}</style></defs><title>o365roadmapevaluate</title><g id="Road"><rect class="cls-1" x="6.91" y="109.04" width="379.33" height="20.5"/><line class="cls-2" x1="6.91" y1="103.54" x2="10.91" y2="103.54"/><line class="cls-3" x1="18.81" y1="103.54" x2="378.3" y2="103.54"/><line class="cls-2" x1="382.25" y1="103.54" x2="386.25" y2="103.54"/><line class="cls-2" x1="6.91" y1="135.04" x2="10.91" y2="135.04"/><line class="cls-3" x1="18.81" y1="135.04" x2="378.3" y2="135.04"/><line class="cls-2" x1="382.25" y1="135.04" x2="386.25" y2="135.04"/></g><g id="Layer_2" data-name="Layer 2"><path class="cls-4" d="M92.93,104.78a10.34,10.34,0,0,1-2.23-3.35,10.14,10.14,0,0,1-.8-4,10.21,10.21,0,0,1,1.42-5.21,10,10,0,0,1,1.6-2.09A10.46,10.46,0,0,1,95,88.56a10.19,10.19,0,0,1,2.47-1,10.65,10.65,0,0,1,5.49,0,10.49,10.49,0,0,1,4.56,2.66,10.34,10.34,0,0,1,1.62,2.09,10.56,10.56,0,0,1,1,2.46,10.25,10.25,0,0,1-2.66,10l-7.3,7.3Zm7.3-13.3a5.68,5.68,0,0,0-2.27.46,5.92,5.92,0,0,0-1.85,1.25,6,6,0,0,0-1.26,1.86,5.83,5.83,0,0,0,0,4.54,6,6,0,0,0,1.26,1.86A5.92,5.92,0,0,0,98,102.7a5.83,5.83,0,0,0,4.54,0,5.82,5.82,0,0,0,3.11-3.11,5.83,5.83,0,0,0,0-4.54,5.82,5.82,0,0,0-3.11-3.11A5.72,5.72,0,0,0,100.23,91.48Z"/><path class="cls-5" d="M100.23,87.54a9.82,9.82,0,0,1,5,1.35,9.91,9.91,0,0,1,2,1.56,10.12,10.12,0,0,1,1.56,2,10.24,10.24,0,0,1,1,2.38,10,10,0,0,1,.35,2.64,10.07,10.07,0,0,1-.75,3.81,9.89,9.89,0,0,1-2.17,3.22l-7,7-1.78-1.78-2.4-2.4-2.85-2.85a10,10,0,0,1-2.15-3.23,9.67,9.67,0,0,1-.77-3.8,10,10,0,0,1,.36-2.64,9.85,9.85,0,0,1,1-2.38,9.67,9.67,0,0,1,1.54-2,10.8,10.8,0,0,1,2-1.56,9.89,9.89,0,0,1,5-1.35m0,16a6,6,0,0,0,2.42-.49A6.19,6.19,0,0,0,106,99.74a6.22,6.22,0,0,0,0-4.84,6.44,6.44,0,0,0-1.33-2,6.33,6.33,0,0,0-2-1.33,6,6,0,0,0-2.42-.49,6,6,0,0,0-2.43.49,6.35,6.35,0,0,0-2,1.33,6.47,6.47,0,0,0-1.34,2,6.11,6.11,0,0,0,0,4.84,6.31,6.31,0,0,0,3.3,3.31,6,6,0,0,0,2.43.49m0-16.76a10.69,10.69,0,0,0-2.84.37,10.77,10.77,0,0,0-4.73,2.76A10.34,10.34,0,0,0,91,92.08a11,11,0,0,0-1.07,2.55,10.57,10.57,0,0,0,.44,7,10.92,10.92,0,0,0,2.31,3.47l2.85,2.85,2.4,2.4,1.78,1.78.54.54.54-.54,7-7A10.68,10.68,0,0,0,111,97.48a10.52,10.52,0,0,0-.39-2.84,11.23,11.23,0,0,0-1.07-2.56,10.62,10.62,0,0,0-9.26-5.3Zm0,16a5.32,5.32,0,0,1-2.12-.43,5.45,5.45,0,0,1-1.73-1.17,5.69,5.69,0,0,1-1.18-1.74,5.22,5.22,0,0,1-.43-2.12,5.14,5.14,0,0,1,.43-2.11,5.62,5.62,0,0,1,1.18-1.75,5.45,5.45,0,0,1,1.73-1.17,5.44,5.44,0,0,1,4.24,0,5.67,5.67,0,0,1,1.74,1.17,5.6,5.6,0,0,1,1.17,1.75,5.42,5.42,0,0,1,0,4.23,5.45,5.45,0,0,1-2.91,2.91,5.32,5.32,0,0,1-2.12.43Z"/><path class="cls-6" d="M103.38,94.17a4.6,4.6,0,0,0-1.42-1,4.57,4.57,0,0,0-3.46,0,4.39,4.39,0,0,0-2.37,2.37,4.45,4.45,0,0,0,0,3.46,4.39,4.39,0,0,0,2.37,2.37,4.45,4.45,0,0,0,3.46,0,4.39,4.39,0,0,0,2.37-2.37,4.57,4.57,0,0,0,0-3.46,4.6,4.6,0,0,0-1-1.42"/><polyline class="cls-7" points="100.23 82.31 105.32 65.87 292.93 65.87"/><g id="shopping_cart"><path class="cls-8" d="M104.56,52.41a1.52,1.52,0,0,0-1.48,1.49,1.5,1.5,0,0,0,1.48,1.49,1.45,1.45,0,0,0,1-.44,1.47,1.47,0,0,0,.44-1.05,1.52,1.52,0,0,0-1.49-1.49Z"/><path class="cls-8" d="M125.38,52.41a1.41,1.41,0,0,0-1,.45,1.43,1.43,0,0,0-.44,1,1.47,1.47,0,0,0,.44,1.05,1.46,1.46,0,0,0,2.09,0,1.47,1.47,0,0,0,.44-1.05,1.43,1.43,0,0,0-.44-1A1.4,1.4,0,0,0,125.38,52.41Z"/><path class="cls-9" d="M128.53,50.74a4.44,4.44,0,0,0-1.41-1,3.51,3.51,0,0,0-1.74.16H105.69l-2.09-6.31H129l6.72-20.21h-39l9.6,28.86-9.6-28.86h0l-2.1-6.31H87.68v2.53h4.41l10.07,30.29a4.34,4.34,0,0,0-1.85,1.65,4.49,4.49,0,0,0-.34,4.13,4.52,4.52,0,0,0,2.38,2.38,4.48,4.48,0,0,0,4.92-1,4.56,4.56,0,0,0,1-1.42,4.41,4.41,0,0,0,.35-1.75,4.72,4.72,0,0,0-.26-1.49h12.85a7.84,7.84,0,0,0-.25,1.42,4.37,4.37,0,0,0,1.3,3.16,4.47,4.47,0,0,0,7.27-4.9A4.62,4.62,0,0,0,128.53,50.74ZM105.61,55a1.45,1.45,0,0,1-1,.44,1.5,1.5,0,0,1-1.48-1.49,1.52,1.52,0,0,1,1.48-1.49,1.52,1.52,0,0,1,1.49,1.49A1.47,1.47,0,0,1,105.61,55Zm20.81,0a1.46,1.46,0,0,1-2.09,0,1.47,1.47,0,0,1-.44-1.05,1.43,1.43,0,0,1,.44-1,1.44,1.44,0,0,1,2.09,0,1.43,1.43,0,0,1,.44,1A1.47,1.47,0,0,1,126.42,55Z"/><path class="cls-10" d="M96.52,22.17h0m7.58,21.47h24.39l6.72-20.21H97.78"/><path class="cls-11" d="M96.52,22.17h0M104,43.64h24.47l6.72-20.21H97.28Z"/><path class="cls-12" d="M104.56,49.57A4.46,4.46,0,1,0,109,54,4.46,4.46,0,0,0,104.56,49.57Zm0,6A1.49,1.49,0,1,1,106.05,54,1.49,1.49,0,0,1,104.56,55.52Z"/><path class="cls-12" d="M125.38,49.57A4.46,4.46,0,1,0,129.84,54,4.46,4.46,0,0,0,125.38,49.57Zm0,6A1.49,1.49,0,1,1,126.86,54,1.49,1.49,0,0,1,125.38,55.52Z"/></g></g><g id="Text"><path class="cls-12" d="M147.12,53.86H139.7v-14h7.1v1.48h-5.46V46h5.06v1.48h-5.06v4.9h5.78Z"/><path class="cls-12" d="M157.46,43.86l-4,10H151.9l-3.78-10h1.76l2.54,7.26a7.77,7.77,0,0,1,.34,1.4h0a6.34,6.34,0,0,1,.32-1.35l2.66-7.31Z"/><path class="cls-12" d="M166.26,53.86h-1.6V52.3h0a3.64,3.64,0,0,1-5.39,1,2.72,2.72,0,0,1-.87-2.12q0-2.79,3.3-3.26l3-.42c0-1.69-.69-2.54-2.06-2.54a5,5,0,0,0-3.26,1.22V44.56a5,5,0,0,1,1.5-.64,7.08,7.08,0,0,1,1.9-.3c2.35,0,3.52,1.24,3.52,3.74Zm-1.6-5.06-2.42.34a3.67,3.67,0,0,0-1.74.59,1.68,1.68,0,0,0-.5,1.35,1.48,1.48,0,0,0,.54,1.2,2,2,0,0,0,1.38.46,2.54,2.54,0,0,0,2-.84,3,3,0,0,0,.78-2.1Z"/><path class="cls-12" d="M170.88,53.86h-1.6V39.06h1.6Z"/><path class="cls-12" d="M182.2,53.86h-1.6V52.28h0a3.28,3.28,0,0,1-3.08,1.82q-3.58,0-3.58-4.26v-6h1.6v5.72c0,2.11.81,3.16,2.42,3.16a2.43,2.43,0,0,0,1.94-.87,3.33,3.33,0,0,0,.74-2.25V43.86h1.6Z"/><path class="cls-12" d="M192.52,53.86h-1.6V52.3h0a3.64,3.64,0,0,1-5.39,1,2.72,2.72,0,0,1-.87-2.12q0-2.79,3.3-3.26l3-.42c0-1.69-.69-2.54-2.06-2.54a5,5,0,0,0-3.26,1.22V44.56a5,5,0,0,1,1.5-.64,7.08,7.08,0,0,1,1.9-.3c2.35,0,3.52,1.24,3.52,3.74Zm-1.6-5.06-2.42.34a3.67,3.67,0,0,0-1.74.59,1.68,1.68,0,0,0-.5,1.35,1.48,1.48,0,0,0,.54,1.2,2,2,0,0,0,1.38.46,2.54,2.54,0,0,0,2-.84,3,3,0,0,0,.78-2.1Z"/><path class="cls-12" d="M200.18,53.76a3,3,0,0,1-1.51.32q-2.61,0-2.61-2.94V45.22h-1.72V43.86h1.72V41.42l1.6-.52v3h2.52v1.36h-2.52v5.64a2.29,2.29,0,0,0,.34,1.43,1.37,1.37,0,0,0,1.14.43,1.76,1.76,0,0,0,1-.32Z"/><path class="cls-12" d="M210.28,49.26h-7.07a3.72,3.72,0,0,0,.9,2.58,3.11,3.11,0,0,0,2.37.9,4.89,4.89,0,0,0,3.09-1.1v1.5a5.73,5.73,0,0,1-3.47,1,4.19,4.19,0,0,1-3.34-1.38,5.63,5.63,0,0,1-1.21-3.82,6,6,0,0,1,.61-2.71,4.58,4.58,0,0,1,1.65-1.9,4.23,4.23,0,0,1,2.34-.67,3.81,3.81,0,0,1,3,1.26,5.28,5.28,0,0,1,1.09,3.54Zm-1.65-1.36a3.3,3.3,0,0,0-.66-2.15,2.3,2.3,0,0,0-1.84-.77,2.59,2.59,0,0,0-1.9.8,3.77,3.77,0,0,0-1,2.12Z"/><path class="cls-12" d="M224.36,53.86h-1.6V52.3h0a3.64,3.64,0,0,1-5.39,1,2.72,2.72,0,0,1-.87-2.12q0-2.79,3.3-3.26l3-.42c0-1.69-.69-2.54-2.06-2.54a5,5,0,0,0-3.27,1.22V44.56a5.18,5.18,0,0,1,1.51-.64,7.07,7.07,0,0,1,1.89-.3c2.35,0,3.53,1.24,3.53,3.74Zm-1.6-5.06-2.43.34a3.66,3.66,0,0,0-1.73.59,1.65,1.65,0,0,0-.5,1.35,1.51,1.51,0,0,0,.53,1.2,2,2,0,0,0,1.38.46,2.56,2.56,0,0,0,2-.84,3,3,0,0,0,.78-2.1Z"/><path class="cls-12" d="M235.68,53.86h-1.61v-5.7c0-2.12-.77-3.18-2.32-3.18a2.53,2.53,0,0,0-2,.9,3.28,3.28,0,0,0-.79,2.28v5.7h-1.6v-10H229v1.66h0a3.58,3.58,0,0,1,3.28-1.9,3,3,0,0,1,2.51,1.07,4.73,4.73,0,0,1,.87,3.05Z"/><path class="cls-12" d="M247.15,53.86h-1.6v-1.7h0a4,4,0,0,1-6.46.58,5.59,5.59,0,0,1-1.12-3.64,6,6,0,0,1,1.25-4,4.11,4.11,0,0,1,3.33-1.5,3.22,3.22,0,0,1,3,1.62h0V39.06h1.6Zm-1.6-4.52V47.86a2.8,2.8,0,0,0-.83-2.06,2.76,2.76,0,0,0-2-.82,2.79,2.79,0,0,0-2.3,1.07,4.71,4.71,0,0,0-.85,3,4.27,4.27,0,0,0,.8,2.72,2.66,2.66,0,0,0,2.16,1,2.77,2.77,0,0,0,2.17-1A3.52,3.52,0,0,0,245.55,49.34Z"/><path class="cls-12" d="M264.25,48.56a6.2,6.2,0,0,1-1.23,4,4,4,0,0,1-3.33,1.52,3.32,3.32,0,0,1-3-1.68h0v1.44h-1.6V39.06h1.6v6.56h0a3.78,3.78,0,0,1,3.46-2,3.72,3.72,0,0,1,3,1.32A5.48,5.48,0,0,1,264.25,48.56Zm-1.64,0a4.05,4.05,0,0,0-.76-2.59,2.55,2.55,0,0,0-2.1-1,2.86,2.86,0,0,0-2.24,1,3.53,3.53,0,0,0-.86,2.44v1.4a2.92,2.92,0,0,0,.83,2.11,2.75,2.75,0,0,0,2,.85,2.65,2.65,0,0,0,2.27-1.12A5.08,5.08,0,0,0,262.61,48.54Z"/><path class="cls-12" d="M274.81,53.86h-1.6V52.28h0a3.28,3.28,0,0,1-3.08,1.82q-3.58,0-3.58-4.26v-6h1.6v5.72c0,2.11.81,3.16,2.42,3.16a2.41,2.41,0,0,0,1.93-.87,3.29,3.29,0,0,0,.75-2.25V43.86h1.6Z"/><path class="cls-12" d="M286,43.86l-4.6,11.6q-1.23,3.1-3.46,3.1a3.86,3.86,0,0,1-1-.12V57a2.82,2.82,0,0,0,.93.18,2,2,0,0,0,1.83-1.43l.8-1.91-3.91-10h1.79l2.7,7.7.2.76h.06a7.48,7.48,0,0,1,.2-.74l2.84-7.72Z"/></g></svg>