<svg xmlns="http://www.w3.org/2000/svg" viewBox="0 0 400 140"><defs><style>.cls-1{fill:#c2c2c2;}.cls-2{fill:#fff;}.cls-3,.cls-9{fill:#2f2f2f;}.cls-4,.cls-7{fill:none;}.cls-4{stroke:#c2c2c2;stroke-linecap:round;stroke-miterlimit:10;}.cls-5{fill:#939393;}.cls-6{fill:#d83b01;}.cls-8{fill:#d2d2d2;}.cls-9{font-size:18px;font-family:SegoePro, Segoe Pro;}</style></defs><title>o365roadmapevaluate</title><g id="Road"><path class="cls-1" d="M0,81.41v1l0-1Zm13.83.72V83.2l11.08.68,0-1.12Zm24.91,1.4v1.2l11.07.67,0-1.24Zm24.92,1.4,0,1.26v.06l11.06.68,0-1.37Zm24.91,1.4,0,1.38v.06l11,.68,0-1.5Zm24.92,1.4,0,1.5v.07l11.05.67,0-1.62Zm37.37,2.1,0,1.68v.07l11,.68,0-1.81Zm24.91,1.4,0,1.81v.07l11,.67,0-1.93Zm24.92,1.4-.05,1.93v.07l11,.68V93.25Zm37.37,2.1L238,96.84v.08l11,.67V95.35ZM263,96.13l-.06,2.23v.08l11,.68V96.75Zm24.92,1.4-.08,2.35V100l11,.67V98.15Zm24.91,1.4-.08,2.47v.09l11,.67V99.54Zm24.91,1.4-.08,2.59V103l11,.68v-2.75Zm24.92,1.4-.09,2.71v.1l11,.67v-2.87Zm24.91,1.4-.09,2.84v.09l11,.67v-3Zm-12.45-.7-.1,2.78v.09l11,.67V103ZM350.17,101l-.09,2.65v.1l11,.67v-2.81Zm-24.91-1.4-.08,2.53v.09l11,.67v-2.68Zm-24.92-1.4-.07,2.41v.09l11,.67V98.84Zm-24.91-1.4-.07,2.29v.08l11,.68V97.45Zm-24.92-1.4-.06,2.17v.08l11,.67v-2.3ZM225.6,94l-.06,2v.08l11,.67V94.65Zm-12.46-.7,0,2v.07l11,.68V94Zm-24.91-1.4,0,1.87v.07l11,.67v-2Zm-24.92-1.4,0,1.75v.07l11,.67,0-1.87Zm-24.91-1.4,0,1.62v.07l11,.68,0-1.75Zm-12.46-.7,0,1.56v.07l11.05.68,0-1.69ZM101,87l0,1.44v.07l11.06.67,0-1.56Zm-24.92-1.4V87l11.06.68,0-1.44ZM51.2,84.23v1.26l11.06.68,0-1.31Zm-24.91-1.4V84l11.07.68,0-1.18ZM1.37,81.43v1l11.08.68,0-1.06Z"/><path class="cls-1" d="M1.43,102.74l-.07,1,11,1.41.1-1ZM26.2,105.8l-.08,1.08v.05l11,1.41.11-1.17ZM51,108.86l-.09,1.2v.06l11,1.41.11-1.3Zm24.76,3.06-.1,1.32v.05l11,1.42.13-1.43ZM100.49,115l-.12,1.43v.07l11,1.41.13-1.55ZM125.25,118l-.13,1.55v.07l11,1.42.14-1.68Zm12.39,1.53-.14,1.61v.07l11,1.42.13-1.75Zm24.76,3.06-.16,1.74v.07l11,1.41.14-1.87Zm24.77,3.06-.17,1.86v.07L198,129l.15-2Zm24.76,3.06-.18,2v.07l10.95,1.42.16-2.12Zm12.39,1.53-.2,2v.08l10.95,1.41.15-2.18Zm24.76,3.06-.21,2.16v.08L259.81,137l.16-2.3Zm24.77,3.06-.22,2.28v.08l9.55,1.24h1.4l.15-2.25Zm24.76,3.06-.05.54H303Zm-12.38-1.53L286,140h11l.05-.72Zm-24.77-3.06-.21,2.22v.08l10.94,1.42.17-2.37Zm-24.76-3.06-.2,2.1V134l10.95,1.41.16-2.24Zm-37.14-4.59-.18,1.92,0,.07,11,1.42.15-2.06Zm-24.77-3.06-.17,1.8V126l11,1.41.15-1.93ZM150,121.1l-.15,1.67v.07l11,1.42.14-1.81Zm-37.14-4.59-.13,1.49v.07l11,1.41.13-1.61Zm-24.77-3.06L88,114.82v.06l11,1.42.13-1.49Zm-24.76-3.06-.11,1.25v.06l11,1.42.12-1.36Zm-24.77-3.06-.09,1.13v.06l11,1.41.11-1.23Zm-24.77-3.06-.06,1,0,0,11,1.41.11-1.11Z"/><path class="cls-2" d="M.06,82.36H0l1.37.08h0Z"/><polygon points="400 108.83 400 140 316.43 140 0 101.56 0 83.27 400 108.83"/><path class="cls-3" d="M33.78,95.58l-3,9.72L0,101.57l2.45-8.9L0,83.27l30.89,2Z"/><path class="cls-3" d="M73.5,99.26,69.67,110l-37.58-4.57,3.06-9.76-2.9-10.36,37.81,2.42Z"/><path d="M123.28,103.88l-5,12.05-47-5.71,3.88-10.8L71.68,87.86l47.36,3Z"/><path d="M187.52,109.85l-6.69,13.68-60.49-7.35,5.06-12.1-4.3-13,61,3.91Z"/><path d="M273.65,117.84l-9.37,15.83-80.75-9.81,6.81-13.75-5.47-15,81.66,5.23Z"/><path d="M400,108.83l-129.78-8.24,7.25,17.61-9.55,15.91,48.5,5.89H400"/></g><g id="Layer_2" data-name="Layer 2"><polyline class="cls-4" points="59.89 71.56 65.42 61.9 247.39 61.9"/><path class="cls-5" d="M47.75,87.44a9.12,9.12,0,0,1-2-3,8.87,8.87,0,0,1-.7-3.48,9.4,9.4,0,0,1,.32-2.42,9.12,9.12,0,0,1,.93-2.18,8.68,8.68,0,0,1,1.42-1.85,9.47,9.47,0,0,1,1.85-1.43,9,9,0,0,1,2.17-.91,8.9,8.9,0,0,1,2.43-.32,9.23,9.23,0,0,1,2.42.31,9,9,0,0,1,2.19.93,8.88,8.88,0,0,1,1.84,1.42,9.23,9.23,0,0,1,1.43,1.85,9.16,9.16,0,0,1,.55,8.09,9.27,9.27,0,0,1-2,3L54.2,93.88ZM54.2,76.16a4.44,4.44,0,0,0-1.83.37,4.79,4.79,0,0,0-1.49,1,4.84,4.84,0,0,0-1,1.49,4.49,4.49,0,0,0-.37,1.82,4.42,4.42,0,0,0,.37,1.82,4.89,4.89,0,0,0,1,1.5,4.79,4.79,0,0,0,1.49,1,4.81,4.81,0,0,0,3.65,0,4.84,4.84,0,0,0,1.49-1,4.56,4.56,0,0,0,1-1.5,4.66,4.66,0,0,0,0-3.64,4.52,4.52,0,0,0-1-1.49,4.84,4.84,0,0,0-1.49-1A4.42,4.42,0,0,0,54.2,76.16Z"/><path class="cls-2" d="M54.2,72.5a8.92,8.92,0,0,1,2.26.29,8.73,8.73,0,0,1,2,.86,8.57,8.57,0,0,1,3,3,8.49,8.49,0,0,1,.51,7.54A8.56,8.56,0,0,1,60.21,87l-6,6-1.52-1.52-2-2L48.19,87a8.61,8.61,0,0,1-1.84-2.76A8.42,8.42,0,0,1,45.7,81a8.37,8.37,0,0,1,1.16-4.29A8.51,8.51,0,0,1,48.19,75a8.88,8.88,0,0,1,1.72-1.33,8.55,8.55,0,0,1,2-.86,8.86,8.86,0,0,1,2.26-.29m0,13.67a5.18,5.18,0,0,0,2.07-.42A5.31,5.31,0,0,0,58,84.61a5.56,5.56,0,0,0,1.15-1.69,5.43,5.43,0,0,0,0-4.14A5.64,5.64,0,0,0,58,77.1,5.31,5.31,0,0,0,56.27,76a5.34,5.34,0,0,0-4.15,0,5.4,5.4,0,0,0-2.82,2.82,5.31,5.31,0,0,0,0,4.14,5.36,5.36,0,0,0,1.14,1.69,5.43,5.43,0,0,0,1.68,1.14,5.19,5.19,0,0,0,2.08.42m0-14.92a9.66,9.66,0,0,0-6.89,2.85,9.9,9.9,0,0,0-2.5,4.29,9.78,9.78,0,0,0,2.5,9.48l2.44,2.44,2,2,1.52,1.52.88.88.88-.88,6-6A9.69,9.69,0,0,0,63.94,81a9.51,9.51,0,0,0-.35-2.59,9.61,9.61,0,0,0-2.5-4.3,9.32,9.32,0,0,0-2-1.52,9.15,9.15,0,0,0-2.32-1,9.69,9.69,0,0,0-2.59-.35Zm0,13.67a3.91,3.91,0,0,1-1.58-.31,4.33,4.33,0,0,1-1.3-.88,4.13,4.13,0,0,1-.88-1.31,4,4,0,0,1,0-3.13,4.12,4.12,0,0,1,2.18-2.19,4,4,0,0,1,3.15,0,4.25,4.25,0,0,1,1.31.88,4.06,4.06,0,0,1,.87,1.3,4,4,0,0,1,0,3.15,4.18,4.18,0,0,1-.87,1.3,4.25,4.25,0,0,1-1.31.88,3.89,3.89,0,0,1-1.57.31Z"/><path class="cls-6" d="M56.88,78.16a3.78,3.78,0,0,0-1.21-.81,3.9,3.9,0,0,0-3,0,3.89,3.89,0,0,0-1.21.81,3.88,3.88,0,0,0-1.11,2.69,3.66,3.66,0,0,0,.3,1.48,3.58,3.58,0,0,0,.81,1.21,3.73,3.73,0,0,0,1.21.81,3.81,3.81,0,0,0,4.16-.81,3.75,3.75,0,0,0,.82-1.21,3.9,3.9,0,0,0,0-3,3.8,3.8,0,0,0-.82-1.22"/><g id="shopping_cart"><path class="cls-7" d="M78.38,54.84a1.09,1.09,0,0,0-1.08,1.08,1.07,1.07,0,0,0,.32.76,1.05,1.05,0,0,0,.76.32,1.09,1.09,0,0,0,1.08-1.08,1.05,1.05,0,0,0-.32-.76A1.07,1.07,0,0,0,78.38,54.84Z"/><path class="cls-7" d="M93.47,54.84a1.07,1.07,0,0,0-.76.32,1.05,1.05,0,0,0-.32.76A1.09,1.09,0,0,0,93.47,57a1.05,1.05,0,0,0,.76-.32,1.07,1.07,0,0,0,.32-.76,1.09,1.09,0,0,0-1.08-1.08Z"/><path class="cls-1" d="M95.76,53.63a3,3,0,0,0-1-.69,2.53,2.53,0,0,0-1.27.12H79.2l-1.52-4.58H96.07L101,33.82H72.69l7,20.93-7-20.93h0l-1.52-4.58h-5v1.84h3.19l7.31,22A3.22,3.22,0,0,0,74.8,56a3.2,3.2,0,0,0,.25,1.27,3.33,3.33,0,0,0,.69,1,3.45,3.45,0,0,0,1,.69,3.21,3.21,0,0,0,1.27.26A3.17,3.17,0,0,0,79.31,59a3.23,3.23,0,0,0,1.79-4.07h9.32a5.69,5.69,0,0,0-.18,1,3.12,3.12,0,0,0,.25,1.26,3.2,3.2,0,0,0,1.72,1.72,3.12,3.12,0,0,0,1.26.25,3.2,3.2,0,0,0,1.27-.25,3.28,3.28,0,0,0,1-.69,3,3,0,0,0,.69-1,3.12,3.12,0,0,0,.26-1.26,3.21,3.21,0,0,0-.26-1.27A3,3,0,0,0,95.76,53.63Zm-16.62,3a1.07,1.07,0,0,1-.76.32,1.05,1.05,0,0,1-.76-.32,1.07,1.07,0,0,1-.32-.76,1.09,1.09,0,0,1,1.08-1.08,1.07,1.07,0,0,1,.76.32,1.05,1.05,0,0,1,.32.76A1.07,1.07,0,0,1,79.14,56.68Zm15.09,0a1.05,1.05,0,0,1-.76.32,1.09,1.09,0,0,1-1.08-1.08,1.05,1.05,0,0,1,.32-.76,1.07,1.07,0,0,1,.76-.32,1.09,1.09,0,0,1,1.08,1.08A1.07,1.07,0,0,1,94.23,56.68Z"/><path class="cls-8" d="M72.55,32.91h0M78,48.48H95.73l4.88-14.66H73.46"/><path class="cls-6" d="M72.55,32.91h0M78,48.48H95.73l4.88-14.66H73.1Z"/><path class="cls-3" d="M78.38,52.78A3.23,3.23,0,1,0,81.61,56,3.22,3.22,0,0,0,78.38,52.78Zm0,4.31A1.08,1.08,0,1,1,79.46,56,1.08,1.08,0,0,1,78.38,57.09Z"/><path class="cls-3" d="M93.47,52.78A3.23,3.23,0,1,0,96.71,56,3.23,3.23,0,0,0,93.47,52.78Zm0,4.31A1.08,1.08,0,1,1,94.55,56,1.08,1.08,0,0,1,93.47,57.09Z"/></g></g><g id="Text"><text class="cls-9" transform="translate(108.72 55.9)">Evaluate and Buy</text></g></svg>