<svg xmlns="http://www.w3.org/2000/svg" viewBox="0 0 400 140"><defs><style>.cls-1{fill:#c2c2c2;}.cls-2{fill:#fff;}.cls-3{fill:#2f2f2f;}.cls-4{fill:none;stroke:#c2c2c2;stroke-linecap:round;stroke-miterlimit:10;}.cls-5{fill:#d83b01;}.cls-6{fill:#939393;}</style></defs><title>o365roadmaplearn</title><g id="Road"><path class="cls-1" d="M0,81.41v1l0-1Zm13.83.72V83.2l11.08.68,0-1.12Zm24.91,1.4v1.2l11.07.67,0-1.24Zm24.92,1.4,0,1.26v.06l11.06.68,0-1.37Zm24.91,1.4,0,1.38v.06l11,.68,0-1.5Zm24.92,1.4,0,1.5v.07l11.05.67,0-1.62Zm37.37,2.1,0,1.68v.07l11,.68,0-1.81Zm24.91,1.4,0,1.81v.07l11,.67,0-1.93Zm24.92,1.4-.05,1.93v.07l11,.68V93.25Zm37.37,2.1L238,96.84v.08l11,.67V95.35ZM263,96.13l-.06,2.23v.08l11,.68V96.75Zm24.92,1.4-.08,2.35V100l11,.67V98.15Zm24.91,1.4-.08,2.47v.09l11,.67V99.54Zm24.91,1.4-.08,2.59V103l11,.68v-2.75Zm24.92,1.4-.09,2.71v.1l11,.67v-2.87Zm24.91,1.4-.09,2.84v.09l11,.67v-3Zm-12.45-.7-.1,2.78v.09l11,.67V103ZM350.17,101l-.09,2.65v.1l11,.67v-2.81Zm-24.91-1.4-.08,2.53v.09l11,.67v-2.68Zm-24.92-1.4-.07,2.41v.09l11,.67V98.84Zm-24.91-1.4-.07,2.29v.08l11,.68V97.45Zm-24.92-1.4-.06,2.17v.08l11,.67v-2.3ZM225.6,94l-.06,2v.08l11,.67V94.65Zm-12.46-.7,0,2v.07l11,.68V94Zm-24.91-1.4,0,1.87v.07l11,.67v-2Zm-24.92-1.4,0,1.75v.07l11,.67,0-1.87Zm-24.91-1.4,0,1.62v.07l11,.68,0-1.75Zm-12.46-.7,0,1.56v.07l11.05.68,0-1.69ZM101,87l0,1.44v.07l11.06.67,0-1.56Zm-24.92-1.4V87l11.06.68,0-1.44ZM51.2,84.23v1.26l11.06.68,0-1.31Zm-24.91-1.4V84l11.07.68,0-1.18ZM1.37,81.43v1l11.08.68,0-1.06Z"/><path class="cls-1" d="M1.43,102.74l-.07,1,11,1.41.1-1ZM26.2,105.8l-.08,1.08v.05l11,1.41.11-1.17ZM51,108.86l-.09,1.2v.06l11,1.41.11-1.3Zm24.76,3.06-.1,1.32v.05l11,1.42.13-1.43ZM100.49,115l-.12,1.43v.07l11,1.41.13-1.55ZM125.25,118l-.13,1.55v.07l11,1.42.14-1.68Zm12.39,1.53-.14,1.61v.07l11,1.42.13-1.75Zm24.76,3.06-.16,1.74v.07l11,1.41.14-1.87Zm24.77,3.06-.17,1.86v.07L198,129l.15-2Zm24.76,3.06-.18,2v.07l10.95,1.42.16-2.12Zm12.39,1.53-.2,2v.08l10.95,1.41.15-2.18Zm24.76,3.06-.21,2.16v.08L259.81,137l.16-2.3Zm24.77,3.06-.22,2.28v.08l9.55,1.24h1.4l.15-2.25Zm24.76,3.06-.05.54H303Zm-12.38-1.53L286,140h11l.05-.72Zm-24.77-3.06-.21,2.22v.08l10.94,1.42.17-2.37Zm-24.76-3.06-.2,2.1V134l10.95,1.41.16-2.24Zm-37.14-4.59-.18,1.92,0,.07,11,1.42.15-2.06Zm-24.77-3.06-.17,1.8V126l11,1.41.15-1.93ZM150,121.1l-.15,1.67v.07l11,1.42.14-1.81Zm-37.14-4.59-.13,1.49v.07l11,1.41.13-1.61Zm-24.77-3.06L88,114.82v.06l11,1.42.13-1.49Zm-24.76-3.06-.11,1.25v.06l11,1.42.12-1.36Zm-24.77-3.06-.09,1.13v.06l11,1.41.11-1.23Zm-24.77-3.06-.06,1,0,0,11,1.41.11-1.11Z"/><path class="cls-2" d="M.06,82.36H0l1.37.08h0Z"/><polygon points="400 108.83 400 140 316.43 140 0 101.56 0 83.27 400 108.83"/><path class="cls-3" d="M33.78,95.58l-3,9.72L0,101.57l2.45-8.9L0,83.27l30.89,2Z"/><path class="cls-3" d="M73.5,99.26,69.67,110l-37.58-4.57,3.06-9.76-2.9-10.36,37.81,2.42Z"/><path class="cls-3" d="M123.28,103.88l-5,12.05-47-5.71,3.88-10.8L71.68,87.86l47.36,3Z"/><path class="cls-3" d="M187.52,109.85l-6.69,13.68-60.49-7.35,5.06-12.1-4.3-13,61,3.91Z"/><path d="M273.65,117.84l-9.37,15.83-80.75-9.81,6.81-13.75-5.47-15,81.66,5.23Z"/><path d="M400,108.83l-129.78-8.24,7.25,17.61-9.55,15.91,48.5,5.89H400"/></g><g id="Pins"><polyline class="cls-4" points="148.79 69.24 143.26 59.58 52.29 59.58"/><g id="education_tutorial"><path class="cls-3" d="M124,47.94l-1-.5-9.6-4.8a8.87,8.87,0,0,0-.34,1.44,14.39,14.39,0,0,0-.16,1.76c0,.6,0,1.25,0,1.95L124,53.36l11.12-5.57V46a10.89,10.89,0,0,0-.36-2.79c0-.19-.12-.37-.18-.56L125,47.44Z"/><path class="cls-5" d="M110.46,48.48a2.57,2.57,0,0,0-.54-.41,2.19,2.19,0,0,0-2.18,0,2.57,2.57,0,0,0-.54.41,2.27,2.27,0,0,0-.69,1.65v7.08h4.64V50.13A2.27,2.27,0,0,0,110.46,48.48Z"/><path class="cls-1" d="M124.29,27.21l-18.55,9.27,2.32,1.16h0v11a2.29,2.29,0,0,1,1.16-.31,2.34,2.34,0,0,1,1.16.31V38.8h0l3.8,1.91,10.11,5,10.11-5,8.44-4.23Z"/></g><path class="cls-6" d="M143.58,89.34a11.13,11.13,0,0,1-2.44-3.66,11,11,0,0,1-.87-4.3,11.19,11.19,0,0,1,1.54-5.69,11,11,0,0,1,1.76-2.27,11.17,11.17,0,0,1,2.29-1.77,11,11,0,0,1,2.68-1.14,11.48,11.48,0,0,1,3-.39,11.35,11.35,0,0,1,3,.39,10.93,10.93,0,0,1,2.7,1.15,10.62,10.62,0,0,1,2.28,1.76,11.13,11.13,0,0,1,1.76,2.27,11.49,11.49,0,0,1,1.13,2.69,11.22,11.22,0,0,1-2.9,11l-8,8Zm8-13.93a5.64,5.64,0,0,0-2.26.46,5.8,5.8,0,0,0-1.84,1.24A6.1,6.1,0,0,0,146.19,79a5.73,5.73,0,0,0,0,4.5,6.1,6.1,0,0,0,1.25,1.85,5.91,5.91,0,0,0,1.84,1.24,5.76,5.76,0,0,0,4.51,0,5.85,5.85,0,0,0,1.84-1.24,6.1,6.1,0,0,0,1.25-1.85,5.85,5.85,0,0,0,0-4.5,6.1,6.1,0,0,0-1.25-1.85,5.85,5.85,0,0,0-1.84-1.24A5.62,5.62,0,0,0,151.54,75.41Z"/><path class="cls-2" d="M151.54,70.89a10.67,10.67,0,0,1,2.79.36,10.78,10.78,0,0,1,2.51,1.07,10.51,10.51,0,0,1,3.77,3.76,10.91,10.91,0,0,1,1,2.51,10.27,10.27,0,0,1,.38,2.79,10.41,10.41,0,0,1-.8,4A10.7,10.7,0,0,1,159,88.8l-7.42,7.42-1.88-1.88-2.54-2.54-3-3a10.34,10.34,0,0,1-2.27-3.41,10.19,10.19,0,0,1-.81-4,10.67,10.67,0,0,1,.37-2.79,10.55,10.55,0,0,1,1.07-2.51A10.15,10.15,0,0,1,144.11,74a10.73,10.73,0,0,1,4.64-2.71,10.67,10.67,0,0,1,2.79-.36m0,16.88a6.28,6.28,0,0,0,2.55-.51,6.61,6.61,0,0,0,3.5-3.5,6.63,6.63,0,0,0,0-5.1,6.61,6.61,0,0,0-3.5-3.5,6.56,6.56,0,0,0-5.12,0,6.66,6.66,0,0,0-3.48,3.5,6.4,6.4,0,0,0,0,5.1,6.66,6.66,0,0,0,3.48,3.5,6.34,6.34,0,0,0,2.57.51m0-18.42A11.75,11.75,0,0,0,145.45,71,11.86,11.86,0,0,0,143,72.86a12.63,12.63,0,0,0-1.89,2.45,12.18,12.18,0,0,0-1.64,6.07,11.71,11.71,0,0,0,.93,4.6,11.9,11.9,0,0,0,2.6,3.9l3,3,2.53,2.54,1.88,1.87,1.09,1.09,1.08-1.09L160,89.88a12,12,0,0,0,3.1-11.7,12.41,12.41,0,0,0-1.2-2.87,12.16,12.16,0,0,0-1.89-2.44A11.66,11.66,0,0,0,157.6,71a11.35,11.35,0,0,0-2.86-1.21,11.77,11.77,0,0,0-3.2-.43Zm0,16.89a4.82,4.82,0,0,1-1.95-.39,4.94,4.94,0,0,1-1.6-1.09,5,5,0,0,1-1.09-1.61,4.9,4.9,0,0,1,0-3.88A5,5,0,0,1,148,77.66a4.94,4.94,0,0,1,1.6-1.09,5,5,0,0,1,3.89,0,5,5,0,0,1,1.61,1.09,5.2,5.2,0,0,1,1.09,1.61,5,5,0,0,1,.39,1.94,4.93,4.93,0,0,1-.4,2,5.1,5.1,0,0,1-2.69,2.69,4.8,4.8,0,0,1-1.94.39Z"/><path class="cls-5" d="M154.86,77.89a4.64,4.64,0,0,0-1.5-1,4.69,4.69,0,0,0-3.65,0,4.62,4.62,0,0,0-2.5,2.49,4.75,4.75,0,0,0-.37,1.83,4.62,4.62,0,0,0,.37,1.82,4.69,4.69,0,0,0,1,1.5,4.64,4.64,0,0,0,1.5,1,4.69,4.69,0,0,0,3.65,0,4.64,4.64,0,0,0,1.5-1,4.69,4.69,0,0,0,1-1.5,4.62,4.62,0,0,0,.37-1.82,4.75,4.75,0,0,0-.37-1.83,4.65,4.65,0,0,0-1-1.49"/></g><g id="Text"><path class="cls-3" d="M63.42,55.58H56.88V43h1.48V54.24h5.06Z"/><path class="cls-3" d="M72.33,51.44H66a3.35,3.35,0,0,0,.8,2.32,2.83,2.83,0,0,0,2.14.81,4.38,4.38,0,0,0,2.78-1v1.35a5.14,5.14,0,0,1-3.13.87,3.76,3.76,0,0,1-3-1.25,5.07,5.07,0,0,1-1.08-3.44A5.49,5.49,0,0,1,65,48.67,4.15,4.15,0,0,1,66.52,47a3.85,3.85,0,0,1,2.11-.6,3.42,3.42,0,0,1,2.72,1.13,4.72,4.72,0,0,1,1,3.19Zm-1.47-1.23a3,3,0,0,0-.6-1.93,2,2,0,0,0-1.65-.69,2.34,2.34,0,0,0-1.72.72,3.35,3.35,0,0,0-.89,1.9Z"/><path class="cls-3" d="M80.82,55.58H79.37V54.17h0a3,3,0,0,1-2.77,1.63,3,3,0,0,1-2.08-.71,2.44,2.44,0,0,1-.78-1.9q0-2.52,3-2.94l2.69-.38c0-1.52-.61-2.28-1.85-2.28a4.45,4.45,0,0,0-2.94,1.1V47.21a4.61,4.61,0,0,1,1.36-.58,6.39,6.39,0,0,1,1.7-.27q3.18,0,3.18,3.36ZM79.37,51l-2.18.31a3.26,3.26,0,0,0-1.56.53,1.49,1.49,0,0,0-.45,1.21,1.35,1.35,0,0,0,.49,1.09,1.84,1.84,0,0,0,1.23.41,2.34,2.34,0,0,0,1.78-.76,2.68,2.68,0,0,0,.69-1.89Z"/><path class="cls-3" d="M88.23,48a1.78,1.78,0,0,0-1.1-.29,1.81,1.81,0,0,0-1.56.9A4.15,4.15,0,0,0,85,51v4.59H83.53v-9H85v1.85h0A3.23,3.23,0,0,1,85.93,47a2.12,2.12,0,0,1,1.43-.54,2.45,2.45,0,0,1,.87.12Z"/><path class="cls-3" d="M97.23,55.58H95.79V50.44c0-1.9-.69-2.85-2.09-2.85a2.31,2.31,0,0,0-1.78.8,3,3,0,0,0-.72,2v5.14H89.76v-9H91.2v1.49h0a3.23,3.23,0,0,1,3-1.71,2.76,2.76,0,0,1,2.27,1,4.35,4.35,0,0,1,.77,2.75Z"/></g></svg>