<svg xmlns="http://www.w3.org/2000/svg" viewBox="0 0 400 140"><defs><style>.cls-1,.cls-10{fill:#2f2f2f;}.cls-1{stroke:#fff;}.cls-1,.cls-2,.cls-3,.cls-7{stroke-miterlimit:10;}.cls-1,.cls-2,.cls-3{stroke-width:2px;}.cls-2,.cls-3,.cls-7,.cls-9{fill:none;}.cls-2,.cls-3{stroke:#d8d8d8;}.cls-3{stroke-dasharray:7.9 7.9;}.cls-4{fill:#939393;}.cls-5{fill:#fff;}.cls-6{fill:#d63f27;}.cls-7{stroke:#c2c2c2;stroke-linecap:round;}.cls-8{fill:#c2c2c2;}</style></defs><title>o365roadmaponboard</title><g id="Road"><rect class="cls-1" x="10.33" y="109.04" width="379.33" height="20.5"/><line class="cls-2" x1="10.33" y1="103.54" x2="14.33" y2="103.54"/><line class="cls-3" x1="22.23" y1="103.54" x2="381.72" y2="103.54"/><line class="cls-2" x1="385.67" y1="103.54" x2="389.67" y2="103.54"/><line class="cls-2" x1="10.33" y1="135.04" x2="14.33" y2="135.04"/><line class="cls-3" x1="22.23" y1="135.04" x2="381.72" y2="135.04"/><line class="cls-2" x1="385.67" y1="135.04" x2="389.67" y2="135.04"/></g><g id="Layer_2" data-name="Layer 2"><path class="cls-4" d="M117.62,104.78a10.34,10.34,0,0,1-2.23-3.35,10.14,10.14,0,0,1-.8-4A10.21,10.21,0,0,1,116,92.27a10.39,10.39,0,0,1,3.7-3.71,10.49,10.49,0,0,1,8-1,10.42,10.42,0,0,1,6.18,4.75,10.56,10.56,0,0,1,1,2.46,10.25,10.25,0,0,1-2.66,10l-7.3,7.3Zm7.3-13.3a5.72,5.72,0,0,0-2.27.46,5.92,5.92,0,0,0-1.85,1.25,6,6,0,0,0-1.26,1.86,5.83,5.83,0,0,0,0,4.54,6,6,0,0,0,1.26,1.86,5.92,5.92,0,0,0,1.85,1.25,5.83,5.83,0,0,0,4.54,0,6,6,0,0,0,1.86-1.25,6.17,6.17,0,0,0,1.26-1.86,5.78,5.78,0,0,0,.45-2.27,5.62,5.62,0,0,0-.46-2.27,5.82,5.82,0,0,0-3.11-3.11A5.68,5.68,0,0,0,124.92,91.48Z"/><path class="cls-5" d="M124.92,87.54a9.82,9.82,0,0,1,5,1.35,9.91,9.91,0,0,1,2,1.56,10.12,10.12,0,0,1,1.56,2,10.24,10.24,0,0,1,1,2.38,9.88,9.88,0,0,1-2.57,9.67l-7,7-1.78-1.78-2.4-2.4-2.85-2.85a10,10,0,0,1-2.15-3.23,9.66,9.66,0,0,1-.76-3.8,10,10,0,0,1,.35-2.64,9.85,9.85,0,0,1,1-2.38,9.39,9.39,0,0,1,1.55-2,10.19,10.19,0,0,1,2-1.56,9.82,9.82,0,0,1,5-1.35m0,16a6,6,0,0,0,2.43-.49,6.28,6.28,0,0,0,3.31-3.31,6.34,6.34,0,0,0,0-4.84,6.47,6.47,0,0,0-1.34-2,6.4,6.4,0,0,0-2-1.33,6,6,0,0,0-2.43-.49,6,6,0,0,0-2.42.49,6.28,6.28,0,0,0-2,1.33,6.47,6.47,0,0,0-1.34,2,6.22,6.22,0,0,0,0,4.84,6.35,6.35,0,0,0,1.34,2,6.28,6.28,0,0,0,2,1.33,6,6,0,0,0,2.42.49m0-16.76a10.69,10.69,0,0,0-2.84.37,10.77,10.77,0,0,0-4.73,2.76,10,10,0,0,0-1.67,2.17,10.61,10.61,0,0,0-.64,9.5,10.92,10.92,0,0,0,2.31,3.47l2.85,2.85,2.41,2.4,1.77,1.78.54.54.54-.54,7-7a10.6,10.6,0,0,0,2.33-3.47,10.72,10.72,0,0,0,.82-4.1,10.52,10.52,0,0,0-.39-2.84,11.23,11.23,0,0,0-1.07-2.56,10.77,10.77,0,0,0-1.68-2.17,10.67,10.67,0,0,0-4.73-2.76,10.76,10.76,0,0,0-2.85-.37Zm0,16a5.32,5.32,0,0,1-2.12-.43,5.57,5.57,0,0,1-1.73-1.17,5.69,5.69,0,0,1-1.18-1.74,5.22,5.22,0,0,1-.43-2.12,5.14,5.14,0,0,1,.43-2.11,5.62,5.62,0,0,1,1.18-1.75,5.57,5.57,0,0,1,1.73-1.17,5.44,5.44,0,0,1,4.24,0,5.55,5.55,0,0,1,1.74,1.17A5.62,5.62,0,0,1,130,95.21a5.33,5.33,0,0,1,.42,2.11,5.22,5.22,0,0,1-.43,2.12,5.45,5.45,0,0,1-2.91,2.91,5.32,5.32,0,0,1-2.12.43Z"/><path class="cls-6" d="M128.07,94.17a4.48,4.48,0,0,0-1.42-1,4.57,4.57,0,0,0-3.46,0,4.44,4.44,0,0,0-1.41,1,4.62,4.62,0,0,0-1,1.42,4.57,4.57,0,0,0,0,3.46,4.62,4.62,0,0,0,1,1.42,4.44,4.44,0,0,0,1.41,1,4.45,4.45,0,0,0,3.46,0,4.48,4.48,0,0,0,1.42-1,4.6,4.6,0,0,0,1-1.42,4.45,4.45,0,0,0,0-3.46,4.6,4.6,0,0,0-1-1.42"/><polyline class="cls-7" points="124.92 83.25 131.38 63.58 369.42 63.58"/><g id="cloud_devices"><path class="cls-8" d="M123.42,44.73a9.49,9.49,0,0,0,3,.79l0-11.91h31.22l0,9.85c1,0,.8,0,1.18-.31a6.55,6.55,0,0,0,1.8-2.65,8.35,8.35,0,0,0,0-6.53,8.32,8.32,0,0,0-1.81-2.65,8.86,8.86,0,0,0-2.69-1.77,8.43,8.43,0,0,0-3.29-.65,12.9,12.9,0,0,0-1.39-4.42,12.49,12.49,0,0,0-6.55-5.87,12.5,12.5,0,0,0-4.58-.84,12.53,12.53,0,0,0-6,1.52,11.93,11.93,0,0,0-2.5,1.82,12.43,12.43,0,0,0-2,2.42,11,11,0,0,0-6.39.67,11.39,11.39,0,0,0-3.57,2.38,11.16,11.16,0,0,0-2.39,3.55,11.24,11.24,0,0,0,0,8.67,11.16,11.16,0,0,0,2.39,3.55A9.78,9.78,0,0,0,123.42,44.73Z"/><rect class="cls-9" x="154.19" y="52.1" width="2.31" height="2.31"/><rect class="cls-9" x="134.55" y="52.1" width="1.16" height="1.16"/><path class="cls-6" d="M146.1,53.25h-3.47V50.94h2.31V44.67c.74-.27.8-.53.91-.76a1.89,1.89,0,0,1,.45-.6,2.12,2.12,0,0,1,.64-.39,2.65,2.65,0,0,1,.77-.06h7.63V35.92H128.77v15h11.55v2.31H136c0,.16-.09,2.4-.09,2.4s9.83,0,9.83,0"/><path class="cls-10" d="M164.54,45.58a.56.56,0,0,0-.14-.2.82.82,0,0,0-.25-.16.81.81,0,0,0-.31,0H148a.75.75,0,0,0-.31,0,.72.72,0,0,0-.25.16.48.48,0,0,0-.15.2.45.45,0,0,0,0,.2V56.11a.48.48,0,0,0,0,.2.55.55,0,0,0,.15.2.61.61,0,0,0,.24.15.83.83,0,0,0,.32.06h15.83a.81.81,0,0,0,.31-.06.58.58,0,0,0,.25-.15.66.66,0,0,0,.14-.2.49.49,0,0,0,.05-.2V45.78A.46.46,0,0,0,164.54,45.58Zm-6.89,8.83h-3.46V52.1h3.46Z"/></g></g><g id="Text"><path class="cls-10" d="M184.22,46.68a8.94,8.94,0,0,1-.81,3.92,6,6,0,0,1-2.34,2.6,6.84,6.84,0,0,1-3.53.9,6.6,6.6,0,0,1-3.42-.88,6,6,0,0,1-2.32-2.51A8.14,8.14,0,0,1,171,47a8.78,8.78,0,0,1,.83-3.9,6,6,0,0,1,2.39-2.59,6.92,6.92,0,0,1,3.59-.91,6.37,6.37,0,0,1,3.34.89,6,6,0,0,1,2.29,2.5A8.05,8.05,0,0,1,184.22,46.68Zm-1.71.22a6.48,6.48,0,0,0-1.28-4.27,4.4,4.4,0,0,0-3.57-1.53,4.72,4.72,0,0,0-2.57.72,4.78,4.78,0,0,0-1.76,2.07,6.93,6.93,0,0,0-.63,3,7.09,7.09,0,0,0,.6,3,4.59,4.59,0,0,0,1.72,2,4.53,4.53,0,0,0,2.52.72,4.59,4.59,0,0,0,3.65-1.52A6.22,6.22,0,0,0,182.51,46.9Z"/><path class="cls-10" d="M195.06,53.86h-1.6v-5.7c0-2.12-.77-3.18-2.32-3.18a2.53,2.53,0,0,0-2,.9,3.28,3.28,0,0,0-.79,2.28v5.7h-1.61v-10h1.61v1.66h0a3.6,3.6,0,0,1,3.29-1.9,3,3,0,0,1,2.51,1.07,4.73,4.73,0,0,1,.86,3.05Z"/><path class="cls-10" d="M207.28,48.56a6.2,6.2,0,0,1-1.23,4,4,4,0,0,1-3.33,1.52,3.32,3.32,0,0,1-3-1.68h0v1.44h-1.6V39.06h1.6v6.56h0a3.78,3.78,0,0,1,3.46-2,3.71,3.71,0,0,1,3,1.32A5.48,5.48,0,0,1,207.28,48.56Zm-1.64,0a4.05,4.05,0,0,0-.76-2.59,2.55,2.55,0,0,0-2.1-1,2.88,2.88,0,0,0-2.24,1,3.53,3.53,0,0,0-.86,2.44v1.4a2.92,2.92,0,0,0,.83,2.11,2.75,2.75,0,0,0,2,.85,2.67,2.67,0,0,0,2.28-1.12A5.08,5.08,0,0,0,205.64,48.54Z"/><path class="cls-10" d="M218.84,48.82a5.38,5.38,0,0,1-1.35,3.83,4.71,4.71,0,0,1-3.63,1.45,4.65,4.65,0,0,1-3.54-1.41A5.21,5.21,0,0,1,209,49a5.45,5.45,0,0,1,1.36-3.92,4.88,4.88,0,0,1,3.74-1.44A4.45,4.45,0,0,1,217.58,45,5.47,5.47,0,0,1,218.84,48.82Zm-1.64.06a4.44,4.44,0,0,0-.83-2.89A2.93,2.93,0,0,0,214,45a3.09,3.09,0,0,0-2.44,1,4.29,4.29,0,0,0-.9,2.91,4.09,4.09,0,0,0,.9,2.81,3.14,3.14,0,0,0,2.44,1,2.92,2.92,0,0,0,2.39-1A4.32,4.32,0,0,0,217.2,48.88Z"/><path class="cls-10" d="M228.4,53.86h-1.6V52.3h0a3.64,3.64,0,0,1-5.39,1,2.72,2.72,0,0,1-.87-2.12q0-2.79,3.3-3.26l3-.42c0-1.69-.68-2.54-2.06-2.54a5,5,0,0,0-3.26,1.22V44.56a5.09,5.09,0,0,1,1.5-.64,7.14,7.14,0,0,1,1.9-.3c2.35,0,3.52,1.24,3.52,3.74Zm-1.6-5.06-2.42.34a3.67,3.67,0,0,0-1.74.59,1.68,1.68,0,0,0-.5,1.35,1.48,1.48,0,0,0,.54,1.2,2,2,0,0,0,1.38.46,2.58,2.58,0,0,0,2-.84,3,3,0,0,0,.77-2.1Z"/><path class="cls-10" d="M236.64,45.48a2.06,2.06,0,0,0-1.22-.32,2,2,0,0,0-1.73,1,4.64,4.64,0,0,0-.67,2.6v5.1h-1.6v-10H233v2.06h0a3.52,3.52,0,0,1,1-1.63,2.31,2.31,0,0,1,1.59-.61,2.63,2.63,0,0,1,1,.14Z"/><path class="cls-10" d="M246.58,53.86H245v-1.7h0a4,4,0,0,1-6.46.58,5.54,5.54,0,0,1-1.12-3.64,6,6,0,0,1,1.24-4,4.13,4.13,0,0,1,3.34-1.5,3.22,3.22,0,0,1,3,1.62h0V39.06h1.6ZM245,49.34V47.86a2.8,2.8,0,0,0-.83-2.06,2.93,2.93,0,0,0-4.3.25,4.64,4.64,0,0,0-.85,3,4.27,4.27,0,0,0,.8,2.72,2.63,2.63,0,0,0,2.16,1,2.77,2.77,0,0,0,2.17-1A3.57,3.57,0,0,0,245,49.34Z"/><path class="cls-10" d="M259.12,53.76a3,3,0,0,1-1.51.32q-2.61,0-2.61-2.94V45.22h-1.72V43.86H255V41.42l1.6-.52v3h2.52v1.36H256.6v5.64a2.29,2.29,0,0,0,.34,1.43,1.37,1.37,0,0,0,1.14.43,1.76,1.76,0,0,0,1-.32Z"/><path class="cls-10" d="M270.34,48.82A5.38,5.38,0,0,1,269,52.65a4.72,4.72,0,0,1-3.63,1.45,4.62,4.62,0,0,1-3.54-1.41A5.22,5.22,0,0,1,260.49,49a5.5,5.5,0,0,1,1.36-3.92,4.9,4.9,0,0,1,3.74-1.44A4.46,4.46,0,0,1,269.08,45,5.47,5.47,0,0,1,270.34,48.82Zm-1.64.06a4.39,4.39,0,0,0-.84-2.89,2.92,2.92,0,0,0-2.39-1A3.11,3.11,0,0,0,263,46a4.29,4.29,0,0,0-.9,2.91,4.09,4.09,0,0,0,.91,2.81,3.1,3.1,0,0,0,2.43,1,2.94,2.94,0,0,0,2.4-1A4.37,4.37,0,0,0,268.7,48.88Z"/><path class="cls-10" d="M290,46.68a8.94,8.94,0,0,1-.82,3.92,5.92,5.92,0,0,1-2.34,2.6,6.83,6.83,0,0,1-3.52.9,6.61,6.61,0,0,1-3.43-.88,6,6,0,0,1-2.32-2.51,8.14,8.14,0,0,1-.82-3.69,8.78,8.78,0,0,1,.83-3.9A6,6,0,0,1,280,40.53a6.92,6.92,0,0,1,3.59-.91,6.37,6.37,0,0,1,3.34.89,6,6,0,0,1,2.29,2.5A8.06,8.06,0,0,1,290,46.68Zm-1.72.22A6.48,6.48,0,0,0,287,42.63a4.39,4.39,0,0,0-3.57-1.53,4.72,4.72,0,0,0-2.57.72,4.78,4.78,0,0,0-1.76,2.07,6.93,6.93,0,0,0-.63,3,7.09,7.09,0,0,0,.6,3,4.59,4.59,0,0,0,1.72,2,5,5,0,0,0,6.17-.8A6.22,6.22,0,0,0,288.3,46.9Z"/><path class="cls-10" d="M297.5,40.46a2.23,2.23,0,0,0-1.07-.26c-1.12,0-1.68.7-1.68,2.12v1.54h2.35v1.36h-2.35v8.64h-1.6V45.22h-1.7V43.86h1.7V42.24a3.39,3.39,0,0,1,.9-2.46,3,3,0,0,1,2.28-.94,3.12,3.12,0,0,1,1.17.18Z"/><path class="cls-10" d="M303.76,40.46a2.23,2.23,0,0,0-1.07-.26c-1.12,0-1.68.7-1.68,2.12v1.54h2.35v1.36H301v8.64h-1.6V45.22h-1.7V43.86h1.7V42.24a3.39,3.39,0,0,1,.9-2.46,3,3,0,0,1,2.28-.94,3.12,3.12,0,0,1,1.17.18Z"/><path class="cls-10" d="M307,40.28a1,1,0,0,1-.31.74,1.05,1.05,0,0,1-.75.3,1,1,0,0,1-.74-.29,1,1,0,0,1-.3-.75,1,1,0,0,1,.3-.73,1,1,0,0,1,.74-.31,1,1,0,0,1,.76.3A1,1,0,0,1,307,40.28Zm-.27,13.58h-1.61v-10h1.61Z"/><path class="cls-10" d="M316.66,53.4a5.21,5.21,0,0,1-2.75.7,4.78,4.78,0,0,1-2.45-.63,4.36,4.36,0,0,1-1.7-1.78,6.13,6.13,0,0,1,.82-6.57,5,5,0,0,1,3.78-1.5,5.21,5.21,0,0,1,2.32.5v1.64a4.13,4.13,0,0,0-2.39-.78,3.2,3.2,0,0,0-2.52,1.11,4.19,4.19,0,0,0-1,2.87,3.94,3.94,0,0,0,.92,2.76,3.17,3.17,0,0,0,2.48,1,4.07,4.07,0,0,0,2.46-.86Z"/><path class="cls-10" d="M327,49.26H320a3.67,3.67,0,0,0,.89,2.58,3.11,3.11,0,0,0,2.37.9,4.89,4.89,0,0,0,3.09-1.1v1.5a5.73,5.73,0,0,1-3.47,1,4.19,4.19,0,0,1-3.34-1.38,5.62,5.62,0,0,1-1.2-3.82,6.09,6.09,0,0,1,.6-2.71,4.58,4.58,0,0,1,1.65-1.9,4.29,4.29,0,0,1,2.35-.67,3.8,3.8,0,0,1,3,1.26A5.28,5.28,0,0,1,327,48.42ZM325.4,47.9a3.36,3.36,0,0,0-.67-2.15A2.29,2.29,0,0,0,322.9,45a2.6,2.6,0,0,0-1.91.8,3.69,3.69,0,0,0-1,2.12Z"/><path class="cls-10" d="M341.8,49.9A3.82,3.82,0,0,1,340.45,53a5.34,5.34,0,0,1-3.57,1.15,5.8,5.8,0,0,1-3.18-.76V51.62a5,5,0,0,0,3.24,1.12,3.59,3.59,0,0,0,2.35-.73,2.44,2.44,0,0,0,.87-2q0-2.74-3.9-2.74h-1.17V45.94h1.11q3.45,0,3.45-2.58c0-1.59-.87-2.38-2.63-2.38a4.48,4.48,0,0,0-2.79,1V40.42a6.17,6.17,0,0,1,3.19-.8,4.19,4.19,0,0,1,2.81.92A3.06,3.06,0,0,1,341.29,43a3.43,3.43,0,0,1-2.79,3.56v0a3.82,3.82,0,0,1,2.39,1.07A3.07,3.07,0,0,1,341.8,49.9Z"/><path class="cls-10" d="M353.18,49.42a5.1,5.1,0,0,1-.57,2.41A4.2,4.2,0,0,1,351,53.51a4.3,4.3,0,0,1-2.25.59,3.84,3.84,0,0,1-3.3-1.68,8.06,8.06,0,0,1-1.2-4.72,11.77,11.77,0,0,1,.71-4.24,6.26,6.26,0,0,1,2-2.84,4.74,4.74,0,0,1,3-1,5.79,5.79,0,0,1,2.32.4v1.52A4.93,4.93,0,0,0,350,41a3.44,3.44,0,0,0-3,1.66,7.89,7.89,0,0,0-1.12,4.44h0a3.31,3.31,0,0,1,3.2-2,3.78,3.78,0,0,1,2.91,1.19A4.42,4.42,0,0,1,353.18,49.42Zm-1.64.2a3.45,3.45,0,0,0-.72-2.31,2.48,2.48,0,0,0-2-.85,2.64,2.64,0,0,0-2,.82,2.79,2.79,0,0,0-.8,2,3.83,3.83,0,0,0,.8,2.47,2.57,2.57,0,0,0,4,.12A3.29,3.29,0,0,0,351.54,49.62Z"/><path class="cls-10" d="M363.44,49.58a4.23,4.23,0,0,1-1.35,3.28,5.11,5.11,0,0,1-3.61,1.24,5.65,5.65,0,0,1-2.9-.58v-1.7a5.37,5.37,0,0,0,2.92.92,3.41,3.41,0,0,0,2.39-.83,2.87,2.87,0,0,0,.91-2.23,2.62,2.62,0,0,0-.92-2.14,4,4,0,0,0-2.66-.78,19.82,19.82,0,0,0-2.37.12l.47-7h6.48V41.3h-5.09l-.28,4.11,1.29,0a5,5,0,0,1,3.45,1.11A3.88,3.88,0,0,1,363.44,49.58Z"/></g></svg>