<svg xmlns="http://www.w3.org/2000/svg" viewBox="0 0 400 140"><defs><style>.cls-1,.cls-7,.cls-8{fill:#2f2f2f;}.cls-1{stroke:#fff;stroke-width:3px;}.cls-1,.cls-5{stroke-miterlimit:10;}.cls-2{fill:#939393;}.cls-3{fill:#fff;}.cls-4{fill:#d63f27;}.cls-5{fill:none;stroke:#c2c2c2;stroke-linecap:round;}.cls-6{fill:#c2c2c2;}.cls-8{font-size:20px;font-family:SegoePro, Segoe Pro;}</style></defs><title>newsize_o365roadmapgethelp</title><g id="Layer_2" data-name="Layer 2"><rect class="cls-1" x="10.58" y="105.83" width="379.33" height="20.5"/><path class="cls-2" d="M279.41,104.78a10.37,10.37,0,0,1-2.24-3.35,10.31,10.31,0,0,1,.62-9.16,10.41,10.41,0,0,1,1.61-2.09A10.38,10.38,0,0,1,284,87.52a10.65,10.65,0,0,1,5.49,0,9.83,9.83,0,0,1,2.47,1,10.18,10.18,0,0,1,3.71,3.7,10.58,10.58,0,0,1,1,2.46,10.72,10.72,0,0,1,.37,2.75,10.3,10.3,0,0,1-3,7.3l-7.3,7.3Zm7.3-13.3a5.73,5.73,0,0,0-2.28.46,6,6,0,0,0-1.85,1.25,6.14,6.14,0,0,0-1.25,1.86,5.72,5.72,0,0,0,0,4.54,6.14,6.14,0,0,0,1.25,1.86,6,6,0,0,0,1.85,1.25,5.86,5.86,0,0,0,4.55,0,6.1,6.1,0,0,0,1.85-1.25,6,6,0,0,0,1.26-1.86,5.83,5.83,0,0,0,0-4.54,6,6,0,0,0-1.26-1.86A6.1,6.1,0,0,0,289,91.94,5.75,5.75,0,0,0,286.71,91.48Z"/><path class="cls-3" d="M286.71,87.54a9.89,9.89,0,0,1,5,1.35,10.48,10.48,0,0,1,2,1.56,10.07,10.07,0,0,1,1.55,2,10.24,10.24,0,0,1,1,2.38,9.91,9.91,0,0,1-2.56,9.67l-7,7-1.78-1.78-2.4-2.4-2.85-2.85a10,10,0,0,1-2.92-7,10,10,0,0,1,.35-2.64,9.85,9.85,0,0,1,1-2.38,9.72,9.72,0,0,1,1.55-2,10.19,10.19,0,0,1,2-1.56,9.82,9.82,0,0,1,5-1.35m0,16a6,6,0,0,0,2.42-.49,6.28,6.28,0,0,0,3.31-3.31,6.22,6.22,0,0,0,0-4.84,6.47,6.47,0,0,0-1.34-2,6.4,6.4,0,0,0-2-1.33,6.25,6.25,0,0,0-4.85,0,6.28,6.28,0,0,0-2,1.33,6.44,6.44,0,0,0-1.33,2,6.11,6.11,0,0,0,0,4.84,6.22,6.22,0,0,0,3.3,3.31,6,6,0,0,0,2.43.49m0-16.76a10.76,10.76,0,0,0-2.85.37,10.92,10.92,0,0,0-4.73,2.76,10.29,10.29,0,0,0-1.67,2.17,11,11,0,0,0-1.08,2.55,10.75,10.75,0,0,0,.44,7,10.79,10.79,0,0,0,2.32,3.47L282,107.9l2.4,2.4,1.78,1.78.54.54.54-.54,7-7a10.73,10.73,0,0,0,3.14-7.57,10.63,10.63,0,0,0-1.46-5.4,11.09,11.09,0,0,0-1.67-2.17,10.94,10.94,0,0,0-2.18-1.68,11.05,11.05,0,0,0-2.55-1.08,10.82,10.82,0,0,0-2.85-.37Zm0,16a5.37,5.37,0,0,1-2.13-.43,5.57,5.57,0,0,1-1.73-1.17,5.67,5.67,0,0,1-1.17-1.74,5.23,5.23,0,0,1-.44-2.12,5.14,5.14,0,0,1,.44-2.11,5.45,5.45,0,0,1,2.9-2.92,5.37,5.37,0,0,1,2.13-.43,5.31,5.31,0,0,1,2.11.43,5.55,5.55,0,0,1,1.74,1.17,5.62,5.62,0,0,1,1.18,1.75,5.54,5.54,0,0,1,0,4.23,5.69,5.69,0,0,1-1.18,1.74,5.55,5.55,0,0,1-1.74,1.17,5.31,5.31,0,0,1-2.11.43Z"/><path class="cls-4" d="M289.85,94.17a4.46,4.46,0,0,0-6.29,0,4.6,4.6,0,0,0-.95,1.42,4.45,4.45,0,0,0,0,3.46,4.6,4.6,0,0,0,.95,1.42,4.46,4.46,0,0,0,6.29,0,4.6,4.6,0,0,0,.95-1.42,4.45,4.45,0,0,0,0-3.46,4.6,4.6,0,0,0-.95-1.42"/><polyline class="cls-5" points="287.48 81.41 283.74 60.19 146.12 60.19"/><path class="cls-6" d="M165.53,42.6a6,6,0,1,0-6-6A6,6,0,0,0,165.53,42.6Z"/><path class="cls-6" d="M165.52,43.56a9,9,0,0,0-9,9h17.94A9,9,0,0,0,165.52,43.56Z"/><path class="cls-6" d="M146.61,53.49h7v0A11.9,11.9,0,0,1,155,48a5.9,5.9,0,0,0-2.38-.5A6,6,0,0,0,146.61,53.49Z"/><path class="cls-6" d="M152.81,36.64a4.48,4.48,0,0,0-.26,9l.26,0,.26,0a4.48,4.48,0,0,0-.26-9Z"/><polygon class="cls-7" points="151.74 17.29 167.93 17.29 167.93 28.72 157.18 28.72 153.64 32.58 153.64 28.72 151.74 28.72 151.74 17.29"/><polygon class="cls-4" points="170.79 12.52 194.61 12.52 194.61 28.72 178.95 28.72 173.65 34.18 173.65 28.72 170.79 28.72 170.79 12.52"/></g><g id="Text"><text class="cls-8" transform="translate(202.35 48.86)">Get help</text></g></svg>