<svg xmlns="http://www.w3.org/2000/svg" viewBox="0 0 400 140"><defs><style>.cls-1,.cls-9{fill:#2f2f2f;}.cls-1{stroke:#fff;}.cls-1,.cls-2,.cls-3,.cls-7{stroke-miterlimit:10;}.cls-1,.cls-2,.cls-3{stroke-width:2px;}.cls-2,.cls-3,.cls-7{fill:none;}.cls-2,.cls-3{stroke:#d8d8d8;}.cls-3{stroke-dasharray:7.9 7.9;}.cls-4{fill:#939393;}.cls-5{fill:#fff;}.cls-6{fill:#d63f27;}.cls-7{stroke:#c2c2c2;stroke-linecap:round;}.cls-8{fill:#c2c2c2;}</style></defs><title>o365roadmapgethelp</title><g id="Road"><rect class="cls-1" x="2.09" y="110.82" width="379.33" height="20.5"/><line class="cls-2" x1="2.09" y1="105.32" x2="6.09" y2="105.32"/><line class="cls-3" x1="13.99" y1="105.32" x2="373.47" y2="105.32"/><line class="cls-2" x1="377.42" y1="105.32" x2="381.42" y2="105.32"/><line class="cls-2" x1="2.09" y1="136.82" x2="6.09" y2="136.82"/><line class="cls-3" x1="13.99" y1="136.82" x2="373.47" y2="136.82"/><line class="cls-2" x1="377.42" y1="136.82" x2="381.42" y2="136.82"/></g><g id="Layer_2" data-name="Layer 2"><path class="cls-4" d="M279.41,104.78a10.37,10.37,0,0,1-2.24-3.35,10.31,10.31,0,0,1,.62-9.16,10.41,10.41,0,0,1,1.61-2.09A10.38,10.38,0,0,1,284,87.52a10.65,10.65,0,0,1,5.49,0,9.83,9.83,0,0,1,2.47,1,10.18,10.18,0,0,1,3.71,3.7,10.58,10.58,0,0,1,1,2.46,10.72,10.72,0,0,1,.37,2.75,10.3,10.3,0,0,1-3,7.3l-7.3,7.3Zm7.3-13.3a5.73,5.73,0,0,0-2.28.46,6,6,0,0,0-1.85,1.25,6.14,6.14,0,0,0-1.25,1.86,5.72,5.72,0,0,0,0,4.54,6.14,6.14,0,0,0,1.25,1.86,6,6,0,0,0,1.85,1.25,5.86,5.86,0,0,0,4.55,0,6.1,6.1,0,0,0,1.85-1.25,6,6,0,0,0,1.26-1.86,5.83,5.83,0,0,0,0-4.54,6,6,0,0,0-1.26-1.86A6.1,6.1,0,0,0,289,91.94,5.75,5.75,0,0,0,286.71,91.48Z"/><path class="cls-5" d="M286.71,87.54a9.89,9.89,0,0,1,5,1.35,10.48,10.48,0,0,1,2,1.56,10.07,10.07,0,0,1,1.55,2,10.24,10.24,0,0,1,1,2.38,9.91,9.91,0,0,1-2.56,9.67l-7,7-1.78-1.78-2.4-2.4-2.85-2.85a10,10,0,0,1-2.92-7,10,10,0,0,1,.35-2.64,9.85,9.85,0,0,1,1-2.38,9.72,9.72,0,0,1,1.55-2,10.19,10.19,0,0,1,2-1.56,9.82,9.82,0,0,1,5-1.35m0,16a6,6,0,0,0,2.42-.49,6.28,6.28,0,0,0,3.31-3.31,6.22,6.22,0,0,0,0-4.84,6.47,6.47,0,0,0-1.34-2,6.4,6.4,0,0,0-2-1.33,6.25,6.25,0,0,0-4.85,0,6.28,6.28,0,0,0-2,1.33,6.44,6.44,0,0,0-1.33,2,6.11,6.11,0,0,0,0,4.84,6.22,6.22,0,0,0,3.3,3.31,6,6,0,0,0,2.43.49m0-16.76a10.76,10.76,0,0,0-2.85.37,10.92,10.92,0,0,0-4.73,2.76,10.29,10.29,0,0,0-1.67,2.17,11,11,0,0,0-1.08,2.55,10.75,10.75,0,0,0,.44,7,10.79,10.79,0,0,0,2.32,3.47L282,107.9l2.4,2.4,1.78,1.78.54.54.54-.54,7-7a10.73,10.73,0,0,0,3.14-7.57,10.63,10.63,0,0,0-1.46-5.4,11.09,11.09,0,0,0-1.67-2.17,10.94,10.94,0,0,0-2.18-1.68,11.05,11.05,0,0,0-2.55-1.08,10.82,10.82,0,0,0-2.85-.37Zm0,16a5.37,5.37,0,0,1-2.13-.43,5.57,5.57,0,0,1-1.73-1.17,5.67,5.67,0,0,1-1.17-1.74,5.23,5.23,0,0,1-.44-2.12,5.14,5.14,0,0,1,.44-2.11,5.45,5.45,0,0,1,2.9-2.92,5.37,5.37,0,0,1,2.13-.43,5.31,5.31,0,0,1,2.11.43,5.55,5.55,0,0,1,1.74,1.17,5.62,5.62,0,0,1,1.18,1.75,5.54,5.54,0,0,1,0,4.23,5.69,5.69,0,0,1-1.18,1.74,5.55,5.55,0,0,1-1.74,1.17,5.31,5.31,0,0,1-2.11.43Z"/><path class="cls-6" d="M289.85,94.17a4.46,4.46,0,0,0-6.29,0,4.6,4.6,0,0,0-.95,1.42,4.45,4.45,0,0,0,0,3.46,4.6,4.6,0,0,0,.95,1.42,4.46,4.46,0,0,0,6.29,0,4.6,4.6,0,0,0,.95-1.42,4.45,4.45,0,0,0,0-3.46,4.6,4.6,0,0,0-.95-1.42"/><polyline class="cls-7" points="287.48 81.41 283.74 60.19 146.12 60.19"/><path class="cls-8" d="M165.53,42.6a6,6,0,1,0-6-6A6,6,0,0,0,165.53,42.6Z"/><path class="cls-8" d="M165.52,43.56a9,9,0,0,0-9,9h17.94A9,9,0,0,0,165.52,43.56Z"/><path class="cls-8" d="M146.61,53.49h7v0A11.9,11.9,0,0,1,155,48a5.9,5.9,0,0,0-2.38-.5A6,6,0,0,0,146.61,53.49Z"/><path class="cls-8" d="M152.81,36.64a4.48,4.48,0,0,0-.26,9l.26,0,.26,0a4.48,4.48,0,0,0-.26-9Z"/><polygon class="cls-9" points="151.74 17.29 167.93 17.29 167.93 28.72 157.18 28.72 153.64 32.58 153.64 28.72 151.74 28.72 151.74 17.29"/><polygon class="cls-6" points="170.79 12.52 194.61 12.52 194.61 28.72 178.95 28.72 173.65 34.18 173.65 28.72 170.79 28.72 170.79 12.52"/></g><g id="Text"><path class="cls-9" d="M214.66,47.9A9.33,9.33,0,0,1,210,49.1a6.87,6.87,0,0,1-3.5-.88,6,6,0,0,1-2.37-2.51,8,8,0,0,1-.83-3.67,7.33,7.33,0,0,1,2-5.32,7,7,0,0,1,5.23-2.1,8.9,8.9,0,0,1,3.83.74v1.82a7.32,7.32,0,0,0-4-1.08,5.27,5.27,0,0,0-2.76.73,5.09,5.09,0,0,0-1.91,2.09,6.49,6.49,0,0,0-.69,3,6,6,0,0,0,1.39,4.17,4.87,4.87,0,0,0,3.79,1.53A5.88,5.88,0,0,0,213,47V43H210V41.56h4.71Z"/><path class="cls-9" d="M225.65,44.26h-7.06a3.72,3.72,0,0,0,.9,2.58,3.09,3.09,0,0,0,2.36.9,4.9,4.9,0,0,0,3.1-1.1v1.5a5.74,5.74,0,0,1-3.48,1,4.2,4.2,0,0,1-3.34-1.38,5.62,5.62,0,0,1-1.2-3.82,6.09,6.09,0,0,1,.6-2.71,4.54,4.54,0,0,1,1.66-1.9,4.23,4.23,0,0,1,2.34-.67,3.78,3.78,0,0,1,3,1.26,5.23,5.23,0,0,1,1.09,3.54ZM224,42.9a3.25,3.25,0,0,0-.67-2.15,2.26,2.26,0,0,0-1.83-.77,2.58,2.58,0,0,0-1.9.8,3.77,3.77,0,0,0-1,2.12Z"/><path class="cls-9" d="M232.63,48.76a3,3,0,0,1-1.5.32c-1.74,0-2.62-1-2.62-2.94V40.22h-1.72V38.86h1.72V36.42l1.61-.52v3h2.51v1.36h-2.51v5.64a2.29,2.29,0,0,0,.34,1.43,1.37,1.37,0,0,0,1.14.43,1.71,1.71,0,0,0,1-.32Z"/><path class="cls-9" d="M247.73,48.86h-1.6V43.1c0-2.08-.77-3.12-2.32-3.12a2.51,2.51,0,0,0-2,.92,3.42,3.42,0,0,0-.79,2.3v5.66h-1.6V34.06H241v6.46h0a3.63,3.63,0,0,1,3.28-1.9c2.26,0,3.38,1.36,3.38,4.08Z"/><path class="cls-9" d="M258.71,44.26h-7.06a3.67,3.67,0,0,0,.89,2.58,3.11,3.11,0,0,0,2.37.9,4.92,4.92,0,0,0,3.1-1.1v1.5a5.78,5.78,0,0,1-3.48,1,4.19,4.19,0,0,1-3.34-1.38A5.62,5.62,0,0,1,250,43.9a6.09,6.09,0,0,1,.6-2.71,4.58,4.58,0,0,1,1.65-1.9,4.29,4.29,0,0,1,2.35-.67,3.8,3.8,0,0,1,3,1.26,5.23,5.23,0,0,1,1.09,3.54Zm-1.64-1.36a3.31,3.31,0,0,0-.67-2.15,2.26,2.26,0,0,0-1.83-.77,2.61,2.61,0,0,0-1.91.8,3.76,3.76,0,0,0-1,2.12Z"/><path class="cls-9" d="M262.65,48.86h-1.6V34.06h1.6Z"/><path class="cls-9" d="M275.1,43.56a6.19,6.19,0,0,1-1.24,4,4.1,4.1,0,0,1-3.32,1.5,3.3,3.3,0,0,1-3-1.68h0v6h-1.6V38.86h1.6v1.76h0a3.77,3.77,0,0,1,3.45-2,3.71,3.71,0,0,1,3,1.32A5.48,5.48,0,0,1,275.1,43.56Zm-1.64,0a4.06,4.06,0,0,0-.77-2.59,2.52,2.52,0,0,0-2.1-1,2.85,2.85,0,0,0-2.23,1,3.53,3.53,0,0,0-.86,2.44v1.4a2.91,2.91,0,0,0,.82,2.11,2.75,2.75,0,0,0,2,.85,2.66,2.66,0,0,0,2.27-1.12A5.08,5.08,0,0,0,273.46,43.54Z"/></g></svg>