<svg xmlns="http://www.w3.org/2000/svg" viewBox="0 0 400 140"><defs><style>.cls-1,.cls-7,.cls-9{fill:#2f2f2f;}.cls-1{stroke:#fff;stroke-width:3px;}.cls-1,.cls-5{stroke-miterlimit:10;}.cls-2{fill:#939393;}.cls-3{fill:#fff;}.cls-4{fill:#d63f27;}.cls-5{fill:none;stroke:#c2c2c2;stroke-linecap:round;}.cls-6{fill:#d83b01;}.cls-8{fill:#c2c2c2;}.cls-9{font-size:20px;font-family:SegoePro, Segoe Pro;}.cls-10{letter-spacing:-0.01em;}.cls-11{letter-spacing:-0.02em;}.cls-12{letter-spacing:0.02em;}</style></defs><title>newsize_o365roadmapengage</title><g id="Layer_2" data-name="Layer 2"><rect class="cls-1" x="10.58" y="105.83" width="379.33" height="20.5"/><path class="cls-2" d="M314.43,104.78a10.34,10.34,0,0,1-2.23-3.35,10.14,10.14,0,0,1-.8-4,10.21,10.21,0,0,1,1.42-5.21,10,10,0,0,1,1.6-2.09,10.46,10.46,0,0,1,2.1-1.62,10.19,10.19,0,0,1,2.47-1,10.65,10.65,0,0,1,5.49,0A10.49,10.49,0,0,1,329,90.18a10.34,10.34,0,0,1,1.62,2.09,11,11,0,0,1,1,2.46,10.25,10.25,0,0,1-2.66,10l-7.3,7.3Zm7.3-13.3a5.68,5.68,0,0,0-2.27.46,5.92,5.92,0,0,0-1.85,1.25,6,6,0,0,0-1.26,1.86,5.72,5.72,0,0,0,0,4.54,6,6,0,0,0,1.26,1.86,5.92,5.92,0,0,0,1.85,1.25,5.83,5.83,0,0,0,4.54,0,5.82,5.82,0,0,0,3.11-3.11,5.83,5.83,0,0,0,0-4.54A5.82,5.82,0,0,0,324,91.94,5.72,5.72,0,0,0,321.73,91.48Z"/><path class="cls-3" d="M321.73,87.54a9.82,9.82,0,0,1,5,1.35,9.91,9.91,0,0,1,2,1.56,10.12,10.12,0,0,1,1.56,2,10.69,10.69,0,0,1,1,2.38,10,10,0,0,1-.41,6.45,9.71,9.71,0,0,1-2.16,3.22l-7,7L320,109.76l-2.4-2.4-2.85-2.85a10,10,0,0,1-2.15-3.23,9.67,9.67,0,0,1-.77-3.8,10,10,0,0,1,.36-2.64,10.24,10.24,0,0,1,1-2.38,10.07,10.07,0,0,1,1.55-2,10.48,10.48,0,0,1,2-1.56,9.89,9.89,0,0,1,2.38-1,10,10,0,0,1,2.64-.35m0,16a6,6,0,0,0,2.42-.49,6.19,6.19,0,0,0,3.31-3.31,6.22,6.22,0,0,0,0-4.84,6.44,6.44,0,0,0-1.33-2,6.33,6.33,0,0,0-2-1.33,6,6,0,0,0-2.42-.49,6,6,0,0,0-2.43.49,6.35,6.35,0,0,0-2,1.33,6.47,6.47,0,0,0-1.34,2,6.11,6.11,0,0,0,0,4.84,6.31,6.31,0,0,0,3.3,3.31,6,6,0,0,0,2.43.49m0-16.76a10.63,10.63,0,0,0-2.84.37,10.77,10.77,0,0,0-4.73,2.76,10.34,10.34,0,0,0-1.68,2.17,11,11,0,0,0-1.07,2.55,10.64,10.64,0,0,0,.43,7,10.79,10.79,0,0,0,2.32,3.47L317,107.9l2.4,2.4,1.78,1.78.54.54.54-.54,7-7a10.62,10.62,0,0,0,3.14-7.57,10.51,10.51,0,0,0-.38-2.84A11.23,11.23,0,0,0,331,92.08a10.62,10.62,0,0,0-9.26-5.3Zm0,16a5.32,5.32,0,0,1-2.12-.43,5.45,5.45,0,0,1-1.73-1.17,5.69,5.69,0,0,1-1.18-1.74,5.22,5.22,0,0,1-.43-2.12,5.14,5.14,0,0,1,.43-2.11,5.62,5.62,0,0,1,1.18-1.75,5.45,5.45,0,0,1,1.73-1.17,5.44,5.44,0,0,1,4.24,0,5.67,5.67,0,0,1,1.74,1.17,5.6,5.6,0,0,1,1.17,1.75,5.42,5.42,0,0,1,0,4.23,5.45,5.45,0,0,1-2.91,2.91,5.32,5.32,0,0,1-2.12.43Z"/><path class="cls-4" d="M324.88,94.17a4.6,4.6,0,0,0-1.42-1,4.57,4.57,0,0,0-3.46,0,4.39,4.39,0,0,0-2.37,2.37,4.45,4.45,0,0,0,0,3.46,4.39,4.39,0,0,0,2.37,2.37,4.45,4.45,0,0,0,3.46,0,4.39,4.39,0,0,0,2.37-2.37,4.57,4.57,0,0,0,0-3.46,4.6,4.6,0,0,0-.95-1.42"/><polyline class="cls-5" points="318.83 81.41 311.99 60.19 59.7 60.19"/><path class="cls-6" d="M82.7,31V26.4a2.08,2.08,0,0,0-.24-.94A3.4,3.4,0,0,0,81,24a2.08,2.08,0,0,0-.94-.24H72A2.13,2.13,0,0,0,71,24a3.31,3.31,0,0,0-.86.62,3.27,3.27,0,0,0-.61.86,2.13,2.13,0,0,0-.24,1V31c2.31-.23,4.67-.36,7-.36C78.45,30.68,80.59,30.79,82.7,31Z"/><circle class="cls-6" cx="76.01" cy="17.85" r="3.83"/><path class="cls-7" d="M65.49,30.22a2.08,2.08,0,0,0-.24-.94,3.54,3.54,0,0,0-.62-.87,3.33,3.33,0,0,0-.87-.63,2.11,2.11,0,0,0-.94-.24h-8a2.13,2.13,0,0,0-1,.24,3.31,3.31,0,0,0-1.48,1.48,2.13,2.13,0,0,0-.24,1v6.27a.36.36,0,0,0,0,.1c3.06-2.46,7.92-4.11,13.36-5Z"/><circle class="cls-7" cx="58.8" cy="21.67" r="3.83"/><path class="cls-7" d="M99.9,30.22a2,2,0,0,0-.24-.94,3.29,3.29,0,0,0-.62-.87,3.33,3.33,0,0,0-.87-.63,2.08,2.08,0,0,0-.94-.24h-8a2.13,2.13,0,0,0-1,.24,3.31,3.31,0,0,0-1.48,1.48,2.13,2.13,0,0,0-.24,1v1.23c5.35.84,10.17,2.38,13.38,4.66Z"/><circle class="cls-7" cx="93.21" cy="21.67" r="3.83"/><path class="cls-8" d="M97.29,38.91c-2.39-1.57-6.18-2.82-10.77-3.59a60.64,60.64,0,0,0-6.39-.7c-1.24-.07-2.51-.11-3.8-.11-1.49,0-2.93.05-4.34.14a59.06,59.06,0,0,0-6.5.78c-4.69.84-8.46,2.21-10.7,3.89-1.43,1.07-2.25,2.26-2.25,3.52,0,4.6,10.65,8.33,23.79,8.33s23.78-3.73,23.78-8.33C100.11,41.42,99.09,40.08,97.29,38.91Z"/><g id="pedestrian"><path class="cls-8" d="M376.64,80.85l-4.52-1m11.74,7.43-4.83-2-2.54-4.33-4.51-1h0l-4.18,1.43-4.2,1.4.45,7,2.34-.15-.3-4.68,4.6-1.47-1.89,7.17,1.32,2.26-4,10.83,2.42,1L372.61,95l2.57,3.36,1.62,6.94,2.34-.15-1.7-8.11-3.88-5.62,1.88-7.17,1.4,3.43,6,2Z"/><circle class="cls-8" cx="375.31" cy="76.06" r="2.73"/></g><rect class="cls-8" x="357.68" y="99.33" width="5.47" height="1.56" transform="translate(-5.69 23.37) rotate(-3.68)"/><rect class="cls-8" x="359.04" y="96.09" width="6.25" height="1.56" transform="translate(-5.48 23.48) rotate(-3.68)"/></g><g id="Text"><text class="cls-9" transform="translate(112.1 48.33)">Engage with Mic<tspan class="cls-10" x="143.92" y="0">r</tspan><tspan x="150.62" y="0">os</tspan><tspan class="cls-11" x="169.98" y="0">o</tspan><tspan class="cls-12" x="181.18" y="0">f</tspan><tspan x="187.8" y="0">t</tspan></text></g></svg>