<svg xmlns="http://www.w3.org/2000/svg" viewBox="0 0 400 140"><defs><style>.cls-1,.cls-9{fill:#2f2f2f;}.cls-1{stroke:#fff;}.cls-1,.cls-2,.cls-3,.cls-7{stroke-miterlimit:10;}.cls-1,.cls-2,.cls-3{stroke-width:2px;}.cls-2,.cls-3,.cls-7{fill:none;}.cls-2,.cls-3{stroke:#d8d8d8;}.cls-3{stroke-dasharray:7.9 7.9;}.cls-4{fill:#939393;}.cls-5{fill:#fff;}.cls-6{fill:#d63f27;}.cls-7{stroke:#c2c2c2;stroke-linecap:round;}.cls-8{fill:#d83b01;}.cls-10{fill:#c2c2c2;}</style></defs><title>o365roadmapengage</title><g id="Road"><rect class="cls-1" x="5.51" y="110.82" width="379.33" height="20.5"/><line class="cls-2" x1="5.51" y1="105.32" x2="9.51" y2="105.32"/><line class="cls-3" x1="17.41" y1="105.32" x2="376.89" y2="105.32"/><line class="cls-2" x1="380.84" y1="105.32" x2="384.84" y2="105.32"/><line class="cls-2" x1="5.51" y1="136.82" x2="9.51" y2="136.82"/><line class="cls-3" x1="17.41" y1="136.82" x2="376.89" y2="136.82"/><line class="cls-2" x1="380.84" y1="136.82" x2="384.84" y2="136.82"/></g><g id="Layer_2" data-name="Layer 2"><path class="cls-4" d="M314.43,104.78a10.34,10.34,0,0,1-2.23-3.35,10.14,10.14,0,0,1-.8-4,10.21,10.21,0,0,1,1.42-5.21,10,10,0,0,1,1.6-2.09,10.46,10.46,0,0,1,2.1-1.62,10.19,10.19,0,0,1,2.47-1,10.65,10.65,0,0,1,5.49,0A10.49,10.49,0,0,1,329,90.18a10.34,10.34,0,0,1,1.62,2.09,11,11,0,0,1,1,2.46,10.25,10.25,0,0,1-2.66,10l-7.3,7.3Zm7.3-13.3a5.68,5.68,0,0,0-2.27.46,5.92,5.92,0,0,0-1.85,1.25,6,6,0,0,0-1.26,1.86,5.72,5.72,0,0,0,0,4.54,6,6,0,0,0,1.26,1.86,5.92,5.92,0,0,0,1.85,1.25,5.83,5.83,0,0,0,4.54,0,5.82,5.82,0,0,0,3.11-3.11,5.83,5.83,0,0,0,0-4.54A5.82,5.82,0,0,0,324,91.94,5.72,5.72,0,0,0,321.73,91.48Z"/><path class="cls-5" d="M321.73,87.54a9.82,9.82,0,0,1,5,1.35,9.91,9.91,0,0,1,2,1.56,10.12,10.12,0,0,1,1.56,2,10.69,10.69,0,0,1,1,2.38,10,10,0,0,1-.41,6.45,9.71,9.71,0,0,1-2.16,3.22l-7,7L320,109.76l-2.4-2.4-2.85-2.85a10,10,0,0,1-2.15-3.23,9.67,9.67,0,0,1-.77-3.8,10,10,0,0,1,.36-2.64,10.24,10.24,0,0,1,1-2.38,10.07,10.07,0,0,1,1.55-2,10.48,10.48,0,0,1,2-1.56,9.89,9.89,0,0,1,2.38-1,10,10,0,0,1,2.64-.35m0,16a6,6,0,0,0,2.42-.49,6.19,6.19,0,0,0,3.31-3.31,6.22,6.22,0,0,0,0-4.84,6.44,6.44,0,0,0-1.33-2,6.33,6.33,0,0,0-2-1.33,6,6,0,0,0-2.42-.49,6,6,0,0,0-2.43.49,6.35,6.35,0,0,0-2,1.33,6.47,6.47,0,0,0-1.34,2,6.11,6.11,0,0,0,0,4.84,6.31,6.31,0,0,0,3.3,3.31,6,6,0,0,0,2.43.49m0-16.76a10.63,10.63,0,0,0-2.84.37,10.77,10.77,0,0,0-4.73,2.76,10.34,10.34,0,0,0-1.68,2.17,11,11,0,0,0-1.07,2.55,10.64,10.64,0,0,0,.43,7,10.79,10.79,0,0,0,2.32,3.47L317,107.9l2.4,2.4,1.78,1.78.54.54.54-.54,7-7a10.62,10.62,0,0,0,3.14-7.57,10.51,10.51,0,0,0-.38-2.84A11.23,11.23,0,0,0,331,92.08a10.62,10.62,0,0,0-9.26-5.3Zm0,16a5.32,5.32,0,0,1-2.12-.43,5.45,5.45,0,0,1-1.73-1.17,5.69,5.69,0,0,1-1.18-1.74,5.22,5.22,0,0,1-.43-2.12,5.14,5.14,0,0,1,.43-2.11,5.62,5.62,0,0,1,1.18-1.75,5.45,5.45,0,0,1,1.73-1.17,5.44,5.44,0,0,1,4.24,0,5.67,5.67,0,0,1,1.74,1.17,5.6,5.6,0,0,1,1.17,1.75,5.42,5.42,0,0,1,0,4.23,5.45,5.45,0,0,1-2.91,2.91,5.32,5.32,0,0,1-2.12.43Z"/><path class="cls-6" d="M324.88,94.17a4.6,4.6,0,0,0-1.42-1,4.57,4.57,0,0,0-3.46,0,4.39,4.39,0,0,0-2.37,2.37,4.45,4.45,0,0,0,0,3.46,4.39,4.39,0,0,0,2.37,2.37,4.45,4.45,0,0,0,3.46,0,4.39,4.39,0,0,0,2.37-2.37,4.57,4.57,0,0,0,0-3.46,4.6,4.6,0,0,0-.95-1.42"/><polyline class="cls-7" points="318.83 81.41 311.99 60.19 59.7 60.19"/><path class="cls-8" d="M82.7,31V26.4a2.08,2.08,0,0,0-.24-.94A3.4,3.4,0,0,0,81,24a2.08,2.08,0,0,0-.94-.24H72A2.13,2.13,0,0,0,71,24a3.31,3.31,0,0,0-.86.62,3.27,3.27,0,0,0-.61.86,2.13,2.13,0,0,0-.24,1V31c2.31-.23,4.67-.36,7-.36C78.45,30.68,80.59,30.79,82.7,31Z"/><circle class="cls-8" cx="76.01" cy="17.85" r="3.83"/><path class="cls-9" d="M65.49,30.22a2.08,2.08,0,0,0-.24-.94,3.54,3.54,0,0,0-.62-.87,3.33,3.33,0,0,0-.87-.63,2.11,2.11,0,0,0-.94-.24h-8a2.13,2.13,0,0,0-1,.24,3.31,3.31,0,0,0-1.48,1.48,2.13,2.13,0,0,0-.24,1v6.27a.36.36,0,0,0,0,.1c3.06-2.46,7.92-4.11,13.36-5Z"/><circle class="cls-9" cx="58.8" cy="21.67" r="3.83"/><path class="cls-9" d="M99.9,30.22a2,2,0,0,0-.24-.94,3.29,3.29,0,0,0-.62-.87,3.33,3.33,0,0,0-.87-.63,2.08,2.08,0,0,0-.94-.24h-8a2.13,2.13,0,0,0-1,.24,3.31,3.31,0,0,0-1.48,1.48,2.13,2.13,0,0,0-.24,1v1.23c5.35.84,10.17,2.38,13.38,4.66Z"/><circle class="cls-9" cx="93.21" cy="21.67" r="3.83"/><path class="cls-10" d="M97.29,38.91c-2.39-1.57-6.18-2.82-10.77-3.59a60.64,60.64,0,0,0-6.39-.7c-1.24-.07-2.51-.11-3.8-.11-1.49,0-2.93.05-4.34.14a59.06,59.06,0,0,0-6.5.78c-4.69.84-8.46,2.21-10.7,3.89-1.43,1.07-2.25,2.26-2.25,3.52,0,4.6,10.65,8.33,23.79,8.33s23.78-3.73,23.78-8.33C100.11,41.42,99.09,40.08,97.29,38.91Z"/><g id="pedestrian"><path class="cls-10" d="M376.64,80.85l-4.52-1m11.74,7.43-4.83-2-2.54-4.33-4.51-1h0l-4.18,1.43-4.2,1.4.45,7,2.34-.15-.3-4.68,4.6-1.47-1.89,7.17,1.32,2.26-4,10.83,2.42,1L372.61,95l2.57,3.36,1.62,6.94,2.34-.15-1.7-8.11-3.88-5.62,1.88-7.17,1.4,3.43,6,2Z"/><circle class="cls-10" cx="375.31" cy="76.06" r="2.73"/></g><rect class="cls-10" x="357.68" y="99.33" width="5.47" height="1.56" transform="translate(-5.69 23.37) rotate(-3.68)"/><rect class="cls-10" x="359.04" y="96.09" width="6.25" height="1.56" transform="translate(-5.48 23.48) rotate(-3.68)"/></g><g id="Text"><path class="cls-9" d="M121.36,48.33h-7.42v-14H121v1.49h-5.46v4.66h5.06V42h-5.06v4.89h5.78Z"/><path class="cls-9" d="M132.14,48.33h-1.6V42.62c0-2.11-.77-3.17-2.32-3.17a2.56,2.56,0,0,0-2,.89,3.32,3.32,0,0,0-.8,2.28v5.71h-1.6v-10h1.6V40h0a3.59,3.59,0,0,1,3.28-1.91,3,3,0,0,1,2.52,1.08,4.76,4.76,0,0,1,.86,3Z"/><path class="cls-9" d="M143.62,47.53q0,5.49-5.28,5.49a7.28,7.28,0,0,1-3.24-.69v-1.6a6.66,6.66,0,0,0,3.21.94q3.7,0,3.7-3.92v-1.1h0a3.76,3.76,0,0,1-3.44,1.92,3.82,3.82,0,0,1-3.62-2.33,6,6,0,0,1-.52-2.59,6.15,6.15,0,0,1,1.24-4.06A4.09,4.09,0,0,1,139,38.08a3.26,3.26,0,0,1,3,1.62h0V38.33h1.61ZM142,43.81V42.33a2.74,2.74,0,0,0-.83-2,2.68,2.68,0,0,0-2-.84,2.79,2.79,0,0,0-2.33,1.08,4.9,4.9,0,0,0-.83,3,4.14,4.14,0,0,0,.8,2.65,2.59,2.59,0,0,0,2.14,1,2.79,2.79,0,0,0,2.19-1A3.55,3.55,0,0,0,142,43.81Z"/><path class="cls-9" d="M153.94,48.33h-1.6V46.76h0a3.63,3.63,0,0,1-5.39,1,2.72,2.72,0,0,1-.87-2.12q0-2.79,3.3-3.26l3-.42c0-1.69-.69-2.54-2.06-2.54A5,5,0,0,0,147,40.67V39a5.18,5.18,0,0,1,1.51-.64,7.12,7.12,0,0,1,1.89-.31q3.53,0,3.53,3.74Zm-1.6-5.06-2.42.34a3.56,3.56,0,0,0-1.74.59,1.64,1.64,0,0,0-.5,1.34,1.49,1.49,0,0,0,.54,1.21,2,2,0,0,0,1.37.45,2.56,2.56,0,0,0,2-.84,3,3,0,0,0,.78-2.1Z"/><path class="cls-9" d="M165.41,47.53c0,3.66-1.75,5.49-5.27,5.49a7.25,7.25,0,0,1-3.24-.69v-1.6a6.66,6.66,0,0,0,3.21.94q3.7,0,3.7-3.92v-1.1h0a3.73,3.73,0,0,1-3.44,1.92,3.93,3.93,0,0,1-2.15-.6,4,4,0,0,1-1.47-1.73,7,7,0,0,1,.73-6.65,4.09,4.09,0,0,1,3.33-1.51,3.26,3.26,0,0,1,3,1.62h0V38.33h1.6Zm-1.6-3.72V42.33a2.74,2.74,0,0,0-.83-2,2.68,2.68,0,0,0-2-.84,2.78,2.78,0,0,0-2.33,1.08,4.84,4.84,0,0,0-.84,3,4.09,4.09,0,0,0,.81,2.65,2.57,2.57,0,0,0,2.13,1,2.76,2.76,0,0,0,2.19-1A3.51,3.51,0,0,0,163.81,43.81Z"/><path class="cls-9" d="M176.61,43.73h-7.06a3.76,3.76,0,0,0,.9,2.58,3.11,3.11,0,0,0,2.37.89,4.88,4.88,0,0,0,3.09-1.09V47.6a5.68,5.68,0,0,1-3.48,1,4.21,4.21,0,0,1-3.34-1.38,5.64,5.64,0,0,1-1.2-3.82,6.06,6.06,0,0,1,.6-2.71,4.61,4.61,0,0,1,1.66-1.9,4.24,4.24,0,0,1,2.34-.68,3.79,3.79,0,0,1,3,1.27,5.28,5.28,0,0,1,1.08,3.54ZM175,42.37a3.25,3.25,0,0,0-.67-2.15,2.26,2.26,0,0,0-1.83-.77,2.59,2.59,0,0,0-1.9.8,3.77,3.77,0,0,0-1,2.12Z"/><path class="cls-9" d="M196.21,38.33l-3,10h-1.66l-2.06-7.16a4.14,4.14,0,0,1-.16-.92h0a4.28,4.28,0,0,1-.21.9l-2.23,7.18h-1.6l-3-10h1.68L186,45.85a6.58,6.58,0,0,1,.14.9h.07a4.43,4.43,0,0,1,.19-.92l2.29-7.5h1.47l2.08,7.54a5,5,0,0,1,.14.89h.07a3.69,3.69,0,0,1,.16-.89l2-7.54Z"/><path class="cls-9" d="M200,34.74a1,1,0,0,1-.31.75,1,1,0,0,1-.74.3,1,1,0,0,1-.74-.29,1,1,0,0,1-.31-.76,1,1,0,0,1,1.05-1,1,1,0,0,1,.75.3A1,1,0,0,1,200,34.74Zm-.27,13.59h-1.6v-10h1.6Z"/><path class="cls-9" d="M207.56,48.23a3.09,3.09,0,0,1-1.5.32c-1.75,0-2.62-1-2.62-2.95V39.68h-1.72V38.33h1.72V35.89l1.6-.52v3h2.52v1.35H205v5.65a2.36,2.36,0,0,0,.34,1.43,1.4,1.4,0,0,0,1.15.42,1.66,1.66,0,0,0,1-.32Z"/><path class="cls-9" d="M218,48.33h-1.6V42.57c0-2.08-.77-3.12-2.32-3.12a2.49,2.49,0,0,0-2,.91,3.38,3.38,0,0,0-.79,2.3v5.67h-1.6V33.52h1.6V40h0a3.64,3.64,0,0,1,3.28-1.91c2.26,0,3.38,1.36,3.38,4.09Z"/><path class="cls-9" d="M240.18,48.33h-1.64V38.92c0-.74,0-1.64.13-2.71h0a10,10,0,0,1-.42,1.36l-4.78,10.76h-.8l-4.79-10.69a7.88,7.88,0,0,1-.42-1.43h0c0,.56.07,1.47.07,2.73v9.39h-1.58v-14h2.17l4.3,9.77a13.09,13.09,0,0,1,.63,1.68h.07c.33-.9.55-1.47.67-1.72l4.39-9.73h2.06Z"/><path class="cls-9" d="M245.51,34.74a1,1,0,0,1-.31.75,1,1,0,0,1-.74.3,1.07,1.07,0,0,1-.75-.29,1,1,0,0,1-.3-.76,1,1,0,0,1,1.05-1,1,1,0,0,1,.75.3A1,1,0,0,1,245.51,34.74Zm-.27,13.59h-1.6v-10h1.6Z"/><path class="cls-9" d="M255.22,47.87a5.21,5.21,0,0,1-2.75.7,4.78,4.78,0,0,1-2.45-.63,4.36,4.36,0,0,1-1.7-1.78,6.13,6.13,0,0,1,.82-6.57,4.94,4.94,0,0,1,3.78-1.51,5,5,0,0,1,2.32.51v1.64a4.13,4.13,0,0,0-2.39-.78,3.2,3.2,0,0,0-2.52,1.11,4.17,4.17,0,0,0-1,2.86,4,4,0,0,0,.92,2.77,3.18,3.18,0,0,0,2.48,1,4,4,0,0,0,2.46-.86Z"/><path class="cls-9" d="M262.85,40a2,2,0,0,0-1.22-.32,2,2,0,0,0-1.72,1,4.54,4.54,0,0,0-.67,2.6v5.1h-1.6v-10h1.6v2.06h0a3.48,3.48,0,0,1,1-1.64,2.35,2.35,0,0,1,1.59-.6,2.61,2.61,0,0,1,1,.14Z"/><path class="cls-9" d="M273.42,43.29a5.4,5.4,0,0,1-1.35,3.83,4.71,4.71,0,0,1-3.63,1.45,4.62,4.62,0,0,1-3.54-1.41,5.22,5.22,0,0,1-1.32-3.72,5.51,5.51,0,0,1,1.35-3.92,4.91,4.91,0,0,1,3.74-1.44,4.49,4.49,0,0,1,3.49,1.39A5.48,5.48,0,0,1,273.42,43.29Zm-1.64.06a4.44,4.44,0,0,0-.83-2.89,3,3,0,0,0-2.39-1,3.06,3.06,0,0,0-2.44,1,4.29,4.29,0,0,0-.9,2.91,4.06,4.06,0,0,0,.9,2.8,3.09,3.09,0,0,0,2.44,1,2.94,2.94,0,0,0,2.39-1A4.39,4.39,0,0,0,271.78,43.35Z"/><path class="cls-9" d="M281.36,45.65a2.57,2.57,0,0,1-1,2.11,4.1,4.1,0,0,1-2.66.81,5,5,0,0,1-2.48-.6V46.25a4,4,0,0,0,2.6,1c1.26,0,1.9-.46,1.9-1.39a1.23,1.23,0,0,0-.37-.93,7.68,7.68,0,0,0-1.69-1,5,5,0,0,1-1.88-1.21,2.81,2.81,0,0,1,.45-3.8,3.85,3.85,0,0,1,2.53-.83,4.84,4.84,0,0,1,2.14.47v1.61a3.75,3.75,0,0,0-2.26-.71,2,2,0,0,0-1.28.39,1.25,1.25,0,0,0-.48,1,1.35,1.35,0,0,0,.37,1,5.42,5.42,0,0,0,1.53.84,5.6,5.6,0,0,1,2,1.27A2.43,2.43,0,0,1,281.36,45.65Z"/><path class="cls-9" d="M292.79,43.29a5.36,5.36,0,0,1-1.36,3.83,4.7,4.7,0,0,1-3.62,1.45,4.62,4.62,0,0,1-3.54-1.41,5.19,5.19,0,0,1-1.33-3.72,5.51,5.51,0,0,1,1.36-3.92A4.9,4.9,0,0,1,288,38.08a4.5,4.5,0,0,1,3.49,1.39A5.48,5.48,0,0,1,292.79,43.29Zm-1.64.06a4.39,4.39,0,0,0-.84-2.89,2.93,2.93,0,0,0-2.39-1,3.06,3.06,0,0,0-2.44,1,4.29,4.29,0,0,0-.9,2.91,4,4,0,0,0,.91,2.8,3.07,3.07,0,0,0,2.43,1,3,3,0,0,0,2.4-1A4.39,4.39,0,0,0,291.15,43.35Z"/><path class="cls-9" d="M299.85,34.93a2.12,2.12,0,0,0-1.07-.26c-1.12,0-1.68.7-1.68,2.11v1.55h2.35v1.35H297.1v8.65h-1.6V39.68h-1.7V38.33h1.7V36.71a3.39,3.39,0,0,1,.9-2.46,3,3,0,0,1,2.28-.94,3.37,3.37,0,0,1,1.17.17Z"/><path class="cls-9" d="M306.17,48.23a3.16,3.16,0,0,1-1.51.32c-1.74,0-2.62-1-2.62-2.95V39.68h-1.71V38.33H302V35.89l1.61-.52v3h2.52v1.35h-2.52v5.65a2.29,2.29,0,0,0,.34,1.43,1.4,1.4,0,0,0,1.14.42,1.69,1.69,0,0,0,1-.32Z"/></g></svg>