<svg xmlns="http://www.w3.org/2000/svg" viewBox="0 0 400 140"><defs><style>.cls-1,.cls-8,.cls-9{fill:#2f2f2f;}.cls-1{stroke:#fff;stroke-width:3px;}.cls-1,.cls-5{stroke-miterlimit:10;}.cls-2{fill:#939393;}.cls-3{fill:#fff;}.cls-4{fill:#d63f27;}.cls-5,.cls-7{fill:none;}.cls-5{stroke:#c2c2c2;stroke-linecap:round;}.cls-6{fill:#c2c2c2;}.cls-9{font-size:20px;font-family:SegoePro, Segoe Pro;}.cls-10{letter-spacing:-0.01em;}</style></defs><title>newsize_o365roadmaponboard</title><g id="Layer_2" data-name="Layer 2"><rect class="cls-1" x="10.58" y="105.83" width="379.33" height="20.5"/><path class="cls-2" d="M117.62,104.78a10.34,10.34,0,0,1-2.23-3.35,10.14,10.14,0,0,1-.8-4A10.21,10.21,0,0,1,116,92.27a10.39,10.39,0,0,1,3.7-3.71,10.49,10.49,0,0,1,8-1,10.42,10.42,0,0,1,6.18,4.75,10.56,10.56,0,0,1,1,2.46,10.25,10.25,0,0,1-2.66,10l-7.3,7.3Zm7.3-13.3a5.72,5.72,0,0,0-2.27.46,5.92,5.92,0,0,0-1.85,1.25,6,6,0,0,0-1.26,1.86,5.83,5.83,0,0,0,0,4.54,6,6,0,0,0,1.26,1.86,5.92,5.92,0,0,0,1.85,1.25,5.83,5.83,0,0,0,4.54,0,6,6,0,0,0,1.86-1.25,6.17,6.17,0,0,0,1.26-1.86,5.78,5.78,0,0,0,.45-2.27,5.62,5.62,0,0,0-.46-2.27,5.82,5.82,0,0,0-3.11-3.11A5.68,5.68,0,0,0,124.92,91.48Z"/><path class="cls-3" d="M124.92,87.54a9.82,9.82,0,0,1,5,1.35,9.91,9.91,0,0,1,2,1.56,10.12,10.12,0,0,1,1.56,2,10.24,10.24,0,0,1,1,2.38,9.88,9.88,0,0,1-2.57,9.67l-7,7-1.78-1.78-2.4-2.4-2.85-2.85a10,10,0,0,1-2.15-3.23,9.66,9.66,0,0,1-.76-3.8,10,10,0,0,1,.35-2.64,9.85,9.85,0,0,1,1-2.38,9.39,9.39,0,0,1,1.55-2,10.19,10.19,0,0,1,2-1.56,9.82,9.82,0,0,1,5-1.35m0,16a6,6,0,0,0,2.43-.49,6.28,6.28,0,0,0,3.31-3.31,6.34,6.34,0,0,0,0-4.84,6.47,6.47,0,0,0-1.34-2,6.4,6.4,0,0,0-2-1.33,6,6,0,0,0-2.43-.49,6,6,0,0,0-2.42.49,6.28,6.28,0,0,0-2,1.33,6.47,6.47,0,0,0-1.34,2,6.22,6.22,0,0,0,0,4.84,6.35,6.35,0,0,0,1.34,2,6.28,6.28,0,0,0,2,1.33,6,6,0,0,0,2.42.49m0-16.76a10.69,10.69,0,0,0-2.84.37,10.77,10.77,0,0,0-4.73,2.76,10,10,0,0,0-1.67,2.17,10.61,10.61,0,0,0-.64,9.5,10.92,10.92,0,0,0,2.31,3.47l2.85,2.85,2.41,2.4,1.77,1.78.54.54.54-.54,7-7a10.6,10.6,0,0,0,2.33-3.47,10.72,10.72,0,0,0,.82-4.1,10.52,10.52,0,0,0-.39-2.84,11.23,11.23,0,0,0-1.07-2.56,10.77,10.77,0,0,0-1.68-2.17,10.67,10.67,0,0,0-4.73-2.76,10.76,10.76,0,0,0-2.85-.37Zm0,16a5.32,5.32,0,0,1-2.12-.43,5.57,5.57,0,0,1-1.73-1.17,5.69,5.69,0,0,1-1.18-1.74,5.22,5.22,0,0,1-.43-2.12,5.14,5.14,0,0,1,.43-2.11,5.62,5.62,0,0,1,1.18-1.75,5.57,5.57,0,0,1,1.73-1.17,5.44,5.44,0,0,1,4.24,0,5.55,5.55,0,0,1,1.74,1.17A5.62,5.62,0,0,1,130,95.21a5.33,5.33,0,0,1,.42,2.11,5.22,5.22,0,0,1-.43,2.12,5.45,5.45,0,0,1-2.91,2.91,5.32,5.32,0,0,1-2.12.43Z"/><path class="cls-4" d="M128.07,94.17a4.48,4.48,0,0,0-1.42-1,4.57,4.57,0,0,0-3.46,0,4.44,4.44,0,0,0-1.41,1,4.62,4.62,0,0,0-1,1.42,4.57,4.57,0,0,0,0,3.46,4.62,4.62,0,0,0,1,1.42,4.44,4.44,0,0,0,1.41,1,4.45,4.45,0,0,0,3.46,0,4.48,4.48,0,0,0,1.42-1,4.6,4.6,0,0,0,1-1.42,4.45,4.45,0,0,0,0-3.46,4.6,4.6,0,0,0-1-1.42"/><polyline class="cls-5" points="124.92 83.25 131.38 63.58 369.42 63.58"/><g id="cloud_devices"><path class="cls-6" d="M123.42,44.73a9.49,9.49,0,0,0,3,.79l0-11.91h31.22l0,9.85c1,0,.8,0,1.18-.31a6.55,6.55,0,0,0,1.8-2.65,8.35,8.35,0,0,0,0-6.53,8.32,8.32,0,0,0-1.81-2.65,8.86,8.86,0,0,0-2.69-1.77,8.43,8.43,0,0,0-3.29-.65,12.9,12.9,0,0,0-1.39-4.42,12.49,12.49,0,0,0-6.55-5.87,12.5,12.5,0,0,0-4.58-.84,12.53,12.53,0,0,0-6,1.52,11.93,11.93,0,0,0-2.5,1.82,12.43,12.43,0,0,0-2,2.42,11,11,0,0,0-6.39.67,11.39,11.39,0,0,0-3.57,2.38,11.16,11.16,0,0,0-2.39,3.55,11.24,11.24,0,0,0,0,8.67,11.16,11.16,0,0,0,2.39,3.55A9.78,9.78,0,0,0,123.42,44.73Z"/><rect class="cls-7" x="154.19" y="52.1" width="2.31" height="2.31"/><rect class="cls-7" x="134.55" y="52.1" width="1.16" height="1.16"/><path class="cls-4" d="M146.1,53.25h-3.47V50.94h2.31V44.67c.74-.27.8-.53.91-.76a1.89,1.89,0,0,1,.45-.6,2.12,2.12,0,0,1,.64-.39,2.65,2.65,0,0,1,.77-.06h7.63V35.92H128.77v15h11.55v2.31H136c0,.16-.09,2.4-.09,2.4s9.83,0,9.83,0"/><path class="cls-8" d="M164.54,45.58a.56.56,0,0,0-.14-.2.82.82,0,0,0-.25-.16.81.81,0,0,0-.31,0H148a.75.75,0,0,0-.31,0,.72.72,0,0,0-.25.16.48.48,0,0,0-.15.2.45.45,0,0,0,0,.2V56.11a.48.48,0,0,0,0,.2.55.55,0,0,0,.15.2.61.61,0,0,0,.24.15.83.83,0,0,0,.32.06h15.83a.81.81,0,0,0,.31-.06.58.58,0,0,0,.25-.15.66.66,0,0,0,.14-.2.49.49,0,0,0,.05-.2V45.78A.46.46,0,0,0,164.54,45.58Zm-6.89,8.83h-3.46V52.1h3.46Z"/></g></g><g id="Text"><text class="cls-9" transform="translate(170.06 53.86)">Onboa<tspan class="cls-10" x="59.74" y="0">r</tspan><tspan x="66.44" y="0">d to Office 365</tspan></text></g></svg>