<svg xmlns="http://www.w3.org/2000/svg" viewBox="0 0 400 140"><defs><style>.cls-1,.cls-6,.cls-9{fill:#2f2f2f;}.cls-1{stroke:#fff;stroke-width:3px;}.cls-1,.cls-5{stroke-miterlimit:10;}.cls-2{fill:#939393;}.cls-3{fill:#fff;}.cls-4{fill:#d63f27;}.cls-5{fill:none;stroke:#c2c2c2;stroke-linecap:round;}.cls-7{fill:#d83b01;}.cls-8{fill:#c2c2c2;}.cls-9{font-size:20px;font-family:SegoePro, Segoe Pro;}.cls-10{letter-spacing:0em;}</style></defs><title>newsize_o365roadmaplearn</title><g id="Layer_2" data-name="Layer 2"><rect class="cls-1" x="10.58" y="105.83" width="379.33" height="20.5"/><path class="cls-2" d="M229.46,104.78a10.54,10.54,0,0,1-2.24-3.35,10.31,10.31,0,0,1-.79-4,10.21,10.21,0,0,1,1.42-5.21,10,10,0,0,1,1.6-2.09,10.46,10.46,0,0,1,2.1-1.62,10.29,10.29,0,0,1,2.46-1,10.42,10.42,0,0,1,2.75-.36,10.29,10.29,0,0,1,2.74.36,10.06,10.06,0,0,1,2.48,1,10.39,10.39,0,0,1,3.71,3.7,11,11,0,0,1,1,2.46,10.43,10.43,0,0,1-.41,6.71,10.52,10.52,0,0,1-2.25,3.34l-7.3,7.3Zm7.3-13.3a5.77,5.77,0,0,0-2.28.46,5.85,5.85,0,0,0-3.1,3.11,5.72,5.72,0,0,0,0,4.54,5.85,5.85,0,0,0,3.1,3.11,5.86,5.86,0,0,0,4.55,0,5.82,5.82,0,0,0,3.11-3.11,5.83,5.83,0,0,0,0-4.54A5.82,5.82,0,0,0,239,91.94,5.72,5.72,0,0,0,236.76,91.48Z"/><path class="cls-3" d="M236.76,87.54a9.89,9.89,0,0,1,5,1.35,10.19,10.19,0,0,1,2,1.56,10.51,10.51,0,0,1,1.56,2,10.66,10.66,0,0,1,1,2.38,9.56,9.56,0,0,1,.36,2.64,9.89,9.89,0,0,1-.76,3.81,9.71,9.71,0,0,1-2.16,3.22l-7,7L235,109.76l-2.4-2.4-2.85-2.85a10,10,0,0,1-2.15-3.23,9.67,9.67,0,0,1-.77-3.8,10,10,0,0,1,.36-2.64,10.24,10.24,0,0,1,1-2.38,10.07,10.07,0,0,1,1.55-2,10.48,10.48,0,0,1,2-1.56,9.89,9.89,0,0,1,5-1.35m0,16a6,6,0,0,0,2.42-.49,6.19,6.19,0,0,0,3.31-3.31,6.22,6.22,0,0,0,0-4.84,6.44,6.44,0,0,0-1.33-2,6.33,6.33,0,0,0-2-1.33,6,6,0,0,0-2.42-.49,6,6,0,0,0-2.43.49,6.52,6.52,0,0,0-2,1.33,6.44,6.44,0,0,0-1.33,2,6.11,6.11,0,0,0,0,4.84,6.33,6.33,0,0,0,1.33,2,6.52,6.52,0,0,0,2,1.33,6,6,0,0,0,2.43.49m0-16.76a10.63,10.63,0,0,0-2.84.37,10.77,10.77,0,0,0-4.73,2.76,10.34,10.34,0,0,0-1.68,2.17,11.44,11.44,0,0,0-1.08,2.55,11,11,0,0,0-.38,2.85,10.73,10.73,0,0,0,3.14,7.57L232,107.9l2.4,2.4,1.78,1.78.54.54.54-.54,7-7a10.62,10.62,0,0,0,3.14-7.57,10.92,10.92,0,0,0-.38-2.84,10.53,10.53,0,0,0-2.75-4.73,10.66,10.66,0,0,0-2.18-1.68,10.87,10.87,0,0,0-2.55-1.08,10.76,10.76,0,0,0-2.85-.37Zm0,16a5.32,5.32,0,0,1-2.12-.43,5.61,5.61,0,0,1-1.74-1.17,5.67,5.67,0,0,1-1.17-1.74,5.22,5.22,0,0,1-.43-2.12,5.14,5.14,0,0,1,.43-2.11,5.43,5.43,0,0,1,2.91-2.92,5.44,5.44,0,0,1,4.24,0,5.67,5.67,0,0,1,1.74,1.17,5.6,5.6,0,0,1,1.17,1.75,5.42,5.42,0,0,1,0,4.23,5.45,5.45,0,0,1-2.91,2.91,5.32,5.32,0,0,1-2.12.43Z"/><path class="cls-4" d="M239.9,94.17a4.44,4.44,0,0,0-1.41-1,4.57,4.57,0,0,0-3.46,0,4.48,4.48,0,0,0-1.42,1,4.6,4.6,0,0,0-1,1.42,4.45,4.45,0,0,0,0,3.46,4.6,4.6,0,0,0,1,1.42,4.48,4.48,0,0,0,1.42,1,4.45,4.45,0,0,0,3.46,0,4.44,4.44,0,0,0,1.41-1,4.62,4.62,0,0,0,1-1.42,4.57,4.57,0,0,0,0-3.46,4.62,4.62,0,0,0-1-1.42"/><polyline class="cls-5" points="236.76 79.82 233.62 60.72 117.84 60.72"/><g id="education_tutorial"><path class="cls-6" d="M141.45,40l-1.29-.65-12.42-6.21A13.92,13.92,0,0,0,127.3,35a18.94,18.94,0,0,0-.2,2.28q0,1.17,0,2.52L141.45,47l14.39-7.22V37.48a14.13,14.13,0,0,0-.46-3.61c-.07-.25-.17-.48-.24-.72l-12.39,6.19Z"/><path class="cls-7" d="M124,40.68a3.38,3.38,0,0,0-.69-.52,2.87,2.87,0,0,0-1.42-.38,2.83,2.83,0,0,0-1.41.38,3.43,3.43,0,0,0-.7.52,3,3,0,0,0-.89,2.15V52h6V42.83A3,3,0,0,0,124,40.68Z"/><path class="cls-8" d="M141.84,13.17l-24,12,3,1.5h0V41a3,3,0,0,1,3,0V28.17h0l4.92,2.46,13.08,6.54,13.08-6.54,10.92-5.46Z"/></g></g><g id="Text"><text class="cls-9" transform="translate(177.53 51.08)">Lea<tspan class="cls-10" x="29.82" y="0">r</tspan><tspan x="36.75" y="0">n</tspan></text></g></svg>