<svg xmlns="http://www.w3.org/2000/svg" viewBox="0 0 400 140"><defs><style>.cls-1,.cls-6,.cls-9{fill:#2f2f2f;}.cls-1{stroke:#fff;stroke-width:3px;}.cls-1,.cls-8{stroke-miterlimit:10;}.cls-2{fill:#c2c2c2;}.cls-3{fill:#d63f27;}.cls-4{fill:#939393;}.cls-5{fill:#fff;}.cls-7{fill:#d83b01;}.cls-8{fill:none;stroke:#c2c2c2;stroke-linecap:round;}.cls-9{font-size:20px;font-family:SegoePro, Segoe Pro;}.cls-10{letter-spacing:0.01em;}</style></defs><title>newsize_o365roadmapunderstandoffice365</title><g id="Layer_2" data-name="Layer 2"><rect class="cls-1" x="10.58" y="105.83" width="379.33" height="20.5"/><rect class="cls-2" x="23.81" y="88.72" width="2.37" height="17.78"/><rect class="cls-2" x="23.81" y="74.5" width="2.37" height="2.37"/><polygon class="cls-3" points="36.85 82.8 32.1 88.72 13.15 88.72 13.15 76.87 32.1 76.87 36.85 82.8"/><path class="cls-4" d="M59.51,104.78a10.37,10.37,0,0,1-2.24-3.35,10.31,10.31,0,0,1,.62-9.16,10.41,10.41,0,0,1,1.61-2.09,10.38,10.38,0,0,1,4.56-2.66,10.65,10.65,0,0,1,5.49,0,9.83,9.83,0,0,1,2.47,1,10.11,10.11,0,0,1,2.1,1.61,10.3,10.3,0,0,1,1.61,2.09,10.58,10.58,0,0,1,1,2.46,10.72,10.72,0,0,1,.37,2.75,10.3,10.3,0,0,1-3,7.3l-7.3,7.3Zm7.3-13.3a5.73,5.73,0,0,0-2.28.46,6,6,0,0,0-1.85,1.25,6.14,6.14,0,0,0-1.25,1.86,5.72,5.72,0,0,0,0,4.54,6.14,6.14,0,0,0,1.25,1.86,6,6,0,0,0,1.85,1.25,5.86,5.86,0,0,0,4.55,0,5.91,5.91,0,0,0,3.11-3.11,5.83,5.83,0,0,0,0-4.54,5.91,5.91,0,0,0-3.11-3.11A5.72,5.72,0,0,0,66.81,91.48Z"/><path class="cls-5" d="M66.81,87.54a10,10,0,0,1,2.64.35,9.89,9.89,0,0,1,2.38,1,10.19,10.19,0,0,1,2,1.56,10.07,10.07,0,0,1,1.55,2,10.24,10.24,0,0,1,1,2.38,9.91,9.91,0,0,1-2.56,9.67l-7,7L65,109.76l-2.4-2.4-2.85-2.85a10,10,0,0,1-2.92-7,9.56,9.56,0,0,1,.36-2.64,9.83,9.83,0,0,1,1-2.38,9.72,9.72,0,0,1,1.55-2,10.19,10.19,0,0,1,2-1.56,9.89,9.89,0,0,1,5-1.35m0,16a6,6,0,0,0,2.42-.49,6.28,6.28,0,0,0,2-1.33,6.35,6.35,0,0,0,1.34-2,6.22,6.22,0,0,0,0-4.84,6.47,6.47,0,0,0-1.34-2,6.28,6.28,0,0,0-2-1.33,6.25,6.25,0,0,0-4.85,0,6.28,6.28,0,0,0-2,1.33,6.44,6.44,0,0,0-1.33,2,6.11,6.11,0,0,0,0,4.84,6.22,6.22,0,0,0,3.3,3.31,6,6,0,0,0,2.43.49m0-16.76a10.76,10.76,0,0,0-2.85.37,10.92,10.92,0,0,0-4.73,2.76,10.29,10.29,0,0,0-1.67,2.17,11,11,0,0,0-1.08,2.55,10.75,10.75,0,0,0,.44,7,10.79,10.79,0,0,0,2.32,3.47l2.85,2.85,2.4,2.4,1.78,1.78.54.54.54-.54,7-7a10.73,10.73,0,0,0,3.14-7.57,10.92,10.92,0,0,0-.38-2.84,10.53,10.53,0,0,0-2.75-4.73,10.94,10.94,0,0,0-2.18-1.68,11.05,11.05,0,0,0-2.55-1.08,10.76,10.76,0,0,0-2.85-.37Zm0,16a5.37,5.37,0,0,1-2.13-.43A5.57,5.57,0,0,1,63,101.18a5.67,5.67,0,0,1-1.17-1.74,5.23,5.23,0,0,1-.44-2.12,5.14,5.14,0,0,1,.44-2.11,5.45,5.45,0,0,1,2.9-2.92,5.37,5.37,0,0,1,2.13-.43,5.31,5.31,0,0,1,2.11.43,5.55,5.55,0,0,1,1.74,1.17,5.62,5.62,0,0,1,1.18,1.75,5.42,5.42,0,0,1,0,4.23,5.69,5.69,0,0,1-1.18,1.74,5.55,5.55,0,0,1-1.74,1.17,5.31,5.31,0,0,1-2.11.43Z"/><path class="cls-3" d="M70,94.17a4.46,4.46,0,0,0-6.29,0,4.6,4.6,0,0,0-.95,1.42,4.45,4.45,0,0,0,0,3.46,4.6,4.6,0,0,0,.95,1.42,4.46,4.46,0,0,0,6.29,0,4.6,4.6,0,0,0,1-1.42,4.45,4.45,0,0,0,0-3.46,4.6,4.6,0,0,0-1-1.42"/><g id="SYMBOLS"><g id="light_bulb_idea_capture" data-name="light bulb idea capture"><path class="cls-2" d="M81.3,43,67.47,29.22,74.73,22l6.57,6.51,8.82-8.82-.51-.51a15.73,15.73,0,0,0-4.9-3.28,15.36,15.36,0,0,0-12,0,15.33,15.33,0,0,0-8.19,8.2,14.94,14.94,0,0,0-1.22,6,14.13,14.13,0,0,0,1.19,5.84,16.61,16.61,0,0,0,3.42,4.92,20.51,20.51,0,0,1,3.82,5.23,17.82,17.82,0,0,1,1.77,6.27H84a17.82,17.82,0,0,1,1.77-6.27,20.31,20.31,0,0,1,3.83-5.23A16.61,16.61,0,0,0,93,35.9a14.39,14.39,0,0,0,1.18-5.82Z"/><path class="cls-6" d="M73.58,60.89a1.59,1.59,0,0,0,.51,1.19,1.56,1.56,0,0,0,1.21.56h6.86a1.61,1.61,0,0,0,1.2-.51,1.65,1.65,0,0,0,.51-1.2V55.74H73.58Z"/><polygon class="cls-7" points="98.87 15.68 92.1 22.45 81.23 33.31 74.73 26.8 72.32 29.22 81.23 38.13 93.53 25.83 101.28 18.09 98.87 15.68"/></g></g><polyline class="cls-8" points="67.32 82.56 73.51 69.58 301.61 69.58"/></g><g id="Text"><text class="cls-9" transform="translate(101.28 55.65)">Unde<tspan class="cls-10" x="47.06" y="0">r</tspan><tspan x="54.16" y="0">stand Office 365</tspan></text></g></svg>