<svg xmlns="http://www.w3.org/2000/svg" viewBox="0 0 400 140"><defs><style>.cls-1,.cls-10,.cls-11{fill:#2f2f2f;}.cls-1{stroke:#fff;stroke-width:3px;}.cls-1,.cls-5{stroke-miterlimit:10;}.cls-2{fill:#939393;}.cls-3{fill:#fff;}.cls-4{fill:#d63f27;}.cls-5,.cls-6{fill:none;}.cls-5{stroke:#c2c2c2;stroke-linecap:round;}.cls-7{fill:#c2c2c2;}.cls-8{fill:#d2d2d2;}.cls-9{fill:#d83b01;}.cls-11{font-size:20px;font-family:SegoePro, Segoe Pro;}</style></defs><title>newsize_o365roadmapevaluate</title><g id="Layer_2" data-name="Layer 2"><rect class="cls-1" x="10.58" y="105.83" width="379.33" height="20.5"/><path class="cls-2" d="M92.93,104.78a10.34,10.34,0,0,1-2.23-3.35,10.14,10.14,0,0,1-.8-4,10.21,10.21,0,0,1,1.42-5.21,10,10,0,0,1,1.6-2.09A10.46,10.46,0,0,1,95,88.56a10.19,10.19,0,0,1,2.47-1,10.65,10.65,0,0,1,5.49,0,10.49,10.49,0,0,1,4.56,2.66,10.34,10.34,0,0,1,1.62,2.09,10.56,10.56,0,0,1,1,2.46,10.25,10.25,0,0,1-2.66,10l-7.3,7.3Zm7.3-13.3a5.68,5.68,0,0,0-2.27.46,5.92,5.92,0,0,0-1.85,1.25,6,6,0,0,0-1.26,1.86,5.83,5.83,0,0,0,0,4.54,6,6,0,0,0,1.26,1.86A5.92,5.92,0,0,0,98,102.7a5.83,5.83,0,0,0,4.54,0,5.82,5.82,0,0,0,3.11-3.11,5.83,5.83,0,0,0,0-4.54,5.82,5.82,0,0,0-3.11-3.11A5.72,5.72,0,0,0,100.23,91.48Z"/><path class="cls-3" d="M100.23,87.54a9.82,9.82,0,0,1,5,1.35,9.91,9.91,0,0,1,2,1.56,10.12,10.12,0,0,1,1.56,2,10.24,10.24,0,0,1,1,2.38,10,10,0,0,1,.35,2.64,10.07,10.07,0,0,1-.75,3.81,9.89,9.89,0,0,1-2.17,3.22l-7,7-1.78-1.78-2.4-2.4-2.85-2.85a10,10,0,0,1-2.15-3.23,9.67,9.67,0,0,1-.77-3.8,10,10,0,0,1,.36-2.64,9.85,9.85,0,0,1,1-2.38,9.67,9.67,0,0,1,1.54-2,10.8,10.8,0,0,1,2-1.56,9.89,9.89,0,0,1,5-1.35m0,16a6,6,0,0,0,2.42-.49A6.19,6.19,0,0,0,106,99.74a6.22,6.22,0,0,0,0-4.84,6.44,6.44,0,0,0-1.33-2,6.33,6.33,0,0,0-2-1.33,6,6,0,0,0-2.42-.49,6,6,0,0,0-2.43.49,6.35,6.35,0,0,0-2,1.33,6.47,6.47,0,0,0-1.34,2,6.11,6.11,0,0,0,0,4.84,6.31,6.31,0,0,0,3.3,3.31,6,6,0,0,0,2.43.49m0-16.76a10.69,10.69,0,0,0-2.84.37,10.77,10.77,0,0,0-4.73,2.76A10.34,10.34,0,0,0,91,92.08a11,11,0,0,0-1.07,2.55,10.57,10.57,0,0,0,.44,7,10.92,10.92,0,0,0,2.31,3.47l2.85,2.85,2.4,2.4,1.78,1.78.54.54.54-.54,7-7A10.68,10.68,0,0,0,111,97.48a10.52,10.52,0,0,0-.39-2.84,11.23,11.23,0,0,0-1.07-2.56,10.62,10.62,0,0,0-9.26-5.3Zm0,16a5.32,5.32,0,0,1-2.12-.43,5.45,5.45,0,0,1-1.73-1.17,5.69,5.69,0,0,1-1.18-1.74,5.22,5.22,0,0,1-.43-2.12,5.14,5.14,0,0,1,.43-2.11,5.62,5.62,0,0,1,1.18-1.75,5.45,5.45,0,0,1,1.73-1.17,5.44,5.44,0,0,1,4.24,0,5.67,5.67,0,0,1,1.74,1.17,5.6,5.6,0,0,1,1.17,1.75,5.42,5.42,0,0,1,0,4.23,5.45,5.45,0,0,1-2.91,2.91,5.32,5.32,0,0,1-2.12.43Z"/><path class="cls-4" d="M103.38,94.17a4.6,4.6,0,0,0-1.42-1,4.57,4.57,0,0,0-3.46,0,4.39,4.39,0,0,0-2.37,2.37,4.45,4.45,0,0,0,0,3.46,4.39,4.39,0,0,0,2.37,2.37,4.45,4.45,0,0,0,3.46,0,4.39,4.39,0,0,0,2.37-2.37,4.57,4.57,0,0,0,0-3.46,4.6,4.6,0,0,0-1-1.42"/><polyline class="cls-5" points="100.23 82.31 105.32 65.87 292.93 65.87"/><g id="shopping_cart"><path class="cls-6" d="M104.56,52.41a1.52,1.52,0,0,0-1.48,1.49,1.5,1.5,0,0,0,1.48,1.49,1.45,1.45,0,0,0,1-.44,1.47,1.47,0,0,0,.44-1.05,1.52,1.52,0,0,0-1.49-1.49Z"/><path class="cls-6" d="M125.38,52.41a1.41,1.41,0,0,0-1,.45,1.43,1.43,0,0,0-.44,1,1.47,1.47,0,0,0,.44,1.05,1.46,1.46,0,0,0,2.09,0,1.47,1.47,0,0,0,.44-1.05,1.43,1.43,0,0,0-.44-1A1.4,1.4,0,0,0,125.38,52.41Z"/><path class="cls-7" d="M128.53,50.74a4.44,4.44,0,0,0-1.41-1,3.51,3.51,0,0,0-1.74.16H105.69l-2.09-6.31H129l6.72-20.21h-39l9.6,28.86-9.6-28.86h0l-2.1-6.31H87.68v2.53h4.41l10.07,30.29a4.34,4.34,0,0,0-1.85,1.65,4.49,4.49,0,0,0-.34,4.13,4.52,4.52,0,0,0,2.38,2.38,4.48,4.48,0,0,0,4.92-1,4.56,4.56,0,0,0,1-1.42,4.41,4.41,0,0,0,.35-1.75,4.72,4.72,0,0,0-.26-1.49h12.85a7.84,7.84,0,0,0-.25,1.42,4.37,4.37,0,0,0,1.3,3.16,4.47,4.47,0,0,0,7.27-4.9A4.62,4.62,0,0,0,128.53,50.74ZM105.61,55a1.45,1.45,0,0,1-1,.44,1.5,1.5,0,0,1-1.48-1.49,1.52,1.52,0,0,1,1.48-1.49,1.52,1.52,0,0,1,1.49,1.49A1.47,1.47,0,0,1,105.61,55Zm20.81,0a1.46,1.46,0,0,1-2.09,0,1.47,1.47,0,0,1-.44-1.05,1.43,1.43,0,0,1,.44-1,1.44,1.44,0,0,1,2.09,0,1.43,1.43,0,0,1,.44,1A1.47,1.47,0,0,1,126.42,55Z"/><path class="cls-8" d="M96.52,22.17h0m7.58,21.47h24.39l6.72-20.21H97.78"/><path class="cls-9" d="M96.52,22.17h0M104,43.64h24.47l6.72-20.21H97.28Z"/><path class="cls-10" d="M104.56,49.57A4.46,4.46,0,1,0,109,54,4.46,4.46,0,0,0,104.56,49.57Zm0,6A1.49,1.49,0,1,1,106.05,54,1.49,1.49,0,0,1,104.56,55.52Z"/><path class="cls-10" d="M125.38,49.57A4.46,4.46,0,1,0,129.84,54,4.46,4.46,0,0,0,125.38,49.57Zm0,6A1.49,1.49,0,1,1,126.86,54,1.49,1.49,0,0,1,125.38,55.52Z"/></g></g><g id="Text"><text class="cls-11" transform="translate(137.86 53.86)">Evaluate and buy</text></g></svg>